<svg width="62" height="77" viewBox="0 0 62 77" fill="none" xmlns="http://www.w3.org/2000/svg">
<path d="M0.138672 39.4643C0.738292 38.5566 1.21799 37.5202 1.98417 36.7954C3.68976 35.2306 5.76844 35.2848 8.00702 36.8157C15.8687 42.1807 23.7171 47.5794 31.5854 52.9511C38.2745 57.5303 44.9636 62.1433 51.6594 66.6954C55.6768 69.4117 55.5103 73.5302 50.9598 76.0501C54.7841 76.0501 32.3383 76.0501 48.6546 76.0501C47.5353 75.3592 46.6892 74.8714 45.8697 74.3024C31.7453 64.6429 17.6609 54.963 3.51653 45.3508C1.99083 44.3077 0.738292 43.1629 0.138672 41.3746C0.138672 40.731 0.138672 40.0875 0.138672 39.4643Z" fill="#5C5C5D"/>
<path d="M61.5174 25.3145C60.8586 27.338 59.368 28.1215 57.4116 28.4281C51.2829 29.3615 45.274 29.0617 39.3715 27.0586C36.6632 26.1389 35.4122 26.4659 33.2495 28.4554C34.048 29.0481 35.0528 29.491 35.6251 30.2745C36.6565 31.6576 36.417 33.1769 35.4987 34.5941C33.3693 37.8713 31.2398 41.1416 29.33 44.0781C30.2617 45.2977 31.2332 46.2311 31.7456 47.3826C32.065 48.0912 31.6923 49.1404 31.6058 50.4077C27.9792 47.914 24.7585 45.6997 21.3647 43.3559C22.7888 41.1008 24.1862 38.9137 25.6967 36.5359C25.1444 36.5154 24.8117 36.4746 24.4657 36.4746C21.6442 36.5291 20.2601 35.2891 19.9606 32.3934C19.6013 29.0004 20.9056 26.2479 23.188 23.9177C24.3592 22.7186 25.6768 21.6898 26.8613 20.6406C24.3126 18.1742 21.6775 15.7759 19.2486 13.1732C17.5584 11.3745 16.0745 9.36463 14.6504 7.32747C12.5077 4.27513 13.0001 2.38786 16.1943 0.677734C16.72 0.677734 17.2323 0.677734 17.7447 0.677734C18.663 1.56346 19.7344 2.34698 20.4531 3.38941C23.8069 8.26088 27.7862 12.4647 32.584 15.8849C33.1696 16.3005 33.702 16.9887 33.9482 17.67C36.2506 23.836 43.1379 26.8338 48.7808 23.7065C51.1298 22.412 53.399 21.6421 55.9809 21.2946C59.0353 20.8654 59.9536 21.1175 61.524 23.7065C61.5174 24.2516 61.5174 24.7694 61.5174 25.3145Z" fill="#5C5C5D"/>
<path d="M35.1052 39.9079C36.4407 37.6892 37.6785 35.6215 39.04 33.3135C41.5741 33.8218 44.2972 34.2202 46.916 34.9346C48.8899 35.4842 49.5869 37.7029 48.7335 39.9766C47.1636 44.1531 45.5414 48.3227 43.9454 52.4992C43.776 52.9732 43.6066 53.4815 43.4307 53.9417C46.2515 55.7964 46.8248 57.2252 45.6001 59.7325C43.7044 58.393 41.8282 57.0878 39.9585 55.769C39.4374 55.4049 38.9553 55.0477 38.4537 54.6699C36.2387 53.1174 36.2583 53.1174 37.268 50.4522C38.4667 47.3885 39.6263 44.3317 40.8706 41.11C38.8901 40.7048 37.0661 40.3132 35.1052 39.9079Z" fill="#5C5C5D"/>
<path d="M35.8819 13.8252C35.8682 9.08059 39.5984 5.32613 44.3435 5.33988C49.1846 5.36051 52.9765 9.09434 52.9765 13.8734C52.9696 18.5217 49.116 22.4 44.4532 22.4344C39.6944 22.4619 35.8887 18.6593 35.8819 13.8252Z" fill="#5C5C5D"/>
</svg>
