<svg width="64" height="88" viewBox="0 0 64 88" fill="none" xmlns="http://www.w3.org/2000/svg">
<path d="M63.6623 0.483398C63.396 2.17693 63.2515 3.90985 62.8331 5.57187C60.148 15.8749 56.2687 25.5792 49.5521 33.8578C47.0191 36.9613 44.1134 39.5764 40.4774 41.4826C39.9602 39.86 40.2416 38.9226 41.5728 38.0719C45.6271 35.4489 48.586 31.668 51.1114 27.5484C56.1926 19.1989 59.5775 10.1247 61.5705 0.483398C62.2627 0.483398 62.9625 0.483398 63.6623 0.483398Z" fill="#5C5C5D"/>
<path d="M34.4647 87.3627C34.4561 78.9613 34.5164 70.5598 34.3786 62.1662C34.3442 60.2628 35.076 59.3735 37.306 59.0537C37.306 68.5082 37.306 77.9316 37.306 87.3627C36.3589 87.3627 35.4032 87.3627 34.4647 87.3627Z" fill="#5C5C5D"/>
<path d="M37.3058 46.3238C33.3062 46.2449 29.3219 46.1739 25.3299 46.1108C24.2842 46.095 23.2309 46.1108 21.9791 46.1108C21.9791 41.8417 21.9791 37.7461 21.9791 33.1929C19.2161 34.2898 16.7736 35.2604 14.3234 36.2389C10.8581 37.6514 9.87348 37.3358 7.84315 34.1635C5.59146 30.6678 3.33215 27.1483 1.10337 23.6131C-0.278173 21.4035 -0.0339237 19.2492 1.69109 18.0419C3.5306 16.7477 5.47697 17.3317 7.00354 19.699C8.6446 22.2321 10.3467 24.7257 11.8504 27.3692C12.6747 28.8133 13.5067 28.9712 14.873 28.2531C16.3232 27.5271 17.9185 27.1009 19.3687 26.4065C23.4446 24.4416 27.6351 23.3211 32.1918 23.692C32.9857 23.7472 34.184 23.0054 34.6343 22.2716C38.2218 16.5347 41.6642 10.711 45.1676 4.93464C46.6713 2.48049 48.5414 1.80185 50.3885 3.04076C52.2051 4.23233 52.457 6.38662 51.0296 8.76975C46.8774 15.6666 42.6641 22.5556 38.5653 29.4841C37.947 30.5415 37.5959 31.8751 37.5501 33.114C37.3516 37.5331 37.3516 41.9521 37.2753 46.3633L37.3058 46.3238Z" fill="#5C5C5D"/>
<path d="M37.2157 45.856C39.9602 44.4968 42.6738 43.0342 45.4647 41.7941C47.6139 40.8641 50.0182 42.0803 50.6754 44.5763C52.1597 50.1405 53.5204 55.7445 54.7882 61.3644C55.2753 63.5027 53.6982 65.6251 51.6108 66.1417C49.5466 66.6346 47.4051 65.4343 46.7635 63.2006C45.9749 60.4741 45.3796 57.692 44.6916 54.9258C44.5369 54.2978 44.3591 53.6699 44.1813 52.9783C38.5068 54.4171 34.0383 59.5282 27.4051 58.4472C27.1345 59.0115 26.7789 59.6793 26.4773 60.4026C23.5628 67.2943 20.6559 74.2099 17.7181 81.1017C16.4657 84.0746 14.6567 85.0205 12.2369 84.0905C9.66243 83.0889 8.27085 80.0683 9.38412 77.4134C13.2651 68.0813 17.2233 58.7651 21.2589 49.4887C21.514 48.8846 22.6273 48.3441 23.3695 48.3361C27.9849 48.2407 32.6003 48.2884 37.4322 48.2884C37.3626 47.3186 37.3085 46.5635 37.2543 45.8163L37.2157 45.856Z" fill="#5C5C5D"/>
<path d="M28.5461 9.26967C31.6953 9.30079 34.3701 12.1869 34.3773 15.602C34.3988 19.0793 31.5875 22.051 28.3807 21.9576C25.1954 21.8565 22.5998 18.9393 22.6645 15.5242C22.722 12.0858 25.4112 9.24634 28.5461 9.26967Z" fill="#5C5C5D"/>
</svg>
