<svg width="77" height="58" viewBox="0 0 77 58" fill="none" xmlns="http://www.w3.org/2000/svg">
<path d="M42.5621 18.0193C40.2234 19.4868 37.89 20.9543 35.5462 22.4481C35.9333 23.0089 36.31 23.5697 36.692 24.12C37.5604 25.3831 38.4342 26.6305 39.3079 27.8937C39.6427 28.3758 39.8468 28.9209 39.763 29.5079C39.7055 30.0425 39.7369 30.5719 39.7369 31.096C39.7369 32.0814 39.7055 33.051 39.6689 34.0206C39.6113 36.2743 39.5328 38.5333 39.4962 40.7922C39.4805 41.9663 38.9103 42.7367 37.9057 43.2556C36.4304 43.9841 34.5521 43.6382 33.5581 42.4537C33.1448 41.9663 32.9512 41.4212 32.9617 40.787C33.0297 38.1978 33.0925 35.6087 33.1552 33.03C33.1657 32.5059 33.1971 31.987 33.1919 31.4786C33.1919 31.3319 33.1343 31.1642 33.0558 31.0541C31.9048 29.3717 30.7695 27.705 29.6185 26.0435C28.7762 24.8276 27.9548 23.6011 27.0968 22.4009C26.3068 21.3107 26.4376 19.9952 27.1334 18.9574C27.5049 18.4019 27.9862 17.9721 28.5722 17.6524C28.6506 17.6104 28.75 17.5685 28.7867 17.5004C29.2418 16.6408 30.0371 16.1429 30.7591 15.5821C31.9415 14.6806 33.1291 13.7739 34.3115 12.8724C35.9857 11.5831 37.6494 10.2937 39.334 9.03586C41.4529 7.45302 44.4874 8.3021 45.5756 10.7655C46.0831 11.908 46.2191 13.0821 46.0517 14.319C46.0412 14.3976 46.0412 14.5129 46.0831 14.5968C46.9411 16.7823 47.8096 18.9784 48.6467 21.1745C48.7566 21.4627 48.903 21.5466 49.2065 21.5466C51.5137 21.4994 53.8262 21.4889 56.1334 21.4365C56.8397 21.426 57.4728 21.6095 58.043 22.0183C59.3248 22.9565 59.2621 24.6179 57.9123 25.4513C57.3891 25.7762 56.845 25.9492 56.2276 25.9492C54.9144 25.9597 53.6065 25.9754 52.2828 25.9963C50.8388 26.0068 49.3896 26.0592 47.9456 26.0697C47.2027 26.0802 46.5121 25.9701 45.9052 25.4565C45.4343 25.0582 45.1257 24.555 44.9059 23.989C44.1787 22.1231 43.4567 20.2782 42.7295 18.4123C42.6929 18.297 42.6196 18.1555 42.5621 18.0193Z" fill="#5C5C5D"/>
<path d="M25.1662 30.6771C25.8673 30.0534 26.5474 29.4507 27.2433 28.8479C27.5519 28.6016 27.8763 28.3972 28.2059 28.1875C28.3524 28.0775 28.4832 28.1037 28.5931 28.3028C29.0116 29.0209 29.4511 29.7389 29.8853 30.4413C29.99 30.6142 29.9063 30.7085 29.7912 30.8029C29.268 31.2903 28.7396 31.7515 28.2007 32.2233C27.9391 32.4591 27.6723 32.7054 27.4002 32.9361C30.3981 36.9141 31.413 41.3167 30.2777 46.1386C29.4092 49.8232 27.3688 52.8002 24.303 55.0015C18.1765 59.4041 9.66955 58.7384 4.30693 53.1513C-0.924897 47.7372 -1.53179 39.1836 3.2658 33.0461C5.92357 29.6498 9.44459 27.6949 13.7295 27.2336C17.9934 26.7829 21.8074 27.9569 25.1662 30.6771ZM23.4136 32.2075C19.3955 28.9265 12.8243 28.1456 7.63437 31.9402C2.46533 35.7296 0.492929 42.9887 4.08196 49.1628C7.01179 54.2048 13.2952 57.0612 19.6467 54.8757C25.1872 52.9679 28.0647 47.8944 28.2896 44.0998C28.2373 44.0998 28.1798 44.0893 28.1117 44.0893C24.8889 44.0893 21.6609 44.0893 18.4329 44.0893C18.2602 44.0788 18.1713 44.1732 18.0876 44.2832C17.0988 45.777 15.1944 46.2015 13.6667 45.2948C12.5261 44.6239 11.914 43.2298 12.1599 41.9037C12.411 40.5882 13.4993 39.4823 14.7758 39.3146C15.3042 39.2569 15.6652 39.0735 16.0733 38.6961C17.5173 37.3387 19.0293 36.0755 20.5151 34.7652C21.4726 33.9266 22.43 33.0881 23.4136 32.2075ZM18.3805 40.8503C18.4067 40.8765 18.4172 40.8974 18.4276 40.9236C21.7237 40.9236 25.0197 40.9236 28.3524 40.9236C28.0437 38.5022 27.1491 36.3638 25.6737 34.4508C23.2305 36.5944 20.8029 38.7276 18.3805 40.8503Z" fill="#5C5C5D"/>
<path d="M57.0228 27.6052C57.0018 27.3169 56.96 27.0496 56.96 26.798C56.96 26.7142 57.0437 26.5674 57.1117 26.5412C57.975 26.2634 58.8434 25.9856 59.8009 25.6816C59.9474 26.1533 60.0886 26.6408 60.2299 27.1334C65.174 27.0496 69.3489 28.8211 72.577 32.6419C75.1144 35.6399 76.3125 39.1672 76.1713 43.0981C75.8887 50.4148 70.5 56.5365 63.2643 57.6739C55.1445 58.9632 48.1234 53.853 46.0987 46.856C44.9059 42.6945 45.361 38.6798 47.4956 34.9219C49.625 31.1587 52.8635 28.7687 57.0228 27.6052ZM57.3419 29.906C51.3933 31.4574 46.6167 37.6787 47.9665 44.9011C49.3634 52.4169 56.7036 57.0135 63.9026 55.2315C71.29 53.4285 75.6115 45.8812 73.2885 38.5278C72.2055 35.0686 69.9715 32.5162 66.754 30.8442C64.7973 29.8117 62.6941 29.361 60.4705 29.4238C60.5333 29.8746 60.5804 30.2834 60.638 30.6975C60.8315 32.165 61.0146 33.643 61.2135 35.1263C61.3966 36.5361 61.5902 37.9513 61.7628 39.3716C61.7942 39.5918 61.8831 39.7175 62.061 39.8486C63.1754 40.6662 63.641 41.7616 63.4161 43.1191C63.1911 44.4294 62.1395 45.4619 60.8996 45.7082C59.3352 46.0384 57.8023 45.2156 57.1902 43.7428C56.6094 42.3434 57.1065 40.6872 58.4144 39.8119C58.5766 39.7018 58.6237 39.5918 58.6028 39.3978C58.3203 37.4743 58.0744 35.5508 57.8337 33.622C57.6663 32.3851 57.5093 31.1587 57.3419 29.906Z" fill="#5C5C5D"/>
<path d="M49.5466 11.0117C46.5226 11.0117 44.0688 8.55886 44.0688 5.54518C44.0688 2.48956 46.5121 0.0157236 49.5466 0C52.5863 0 55.0557 2.48956 55.0557 5.55566C55.0452 8.55886 52.5601 11.0117 49.5466 11.0117Z" fill="#5C5C5D"/>
<path d="M42.002 36.4942C41.9444 35.9124 41.8973 35.4302 41.8607 34.9428C41.7875 34.1095 41.7299 33.2814 41.6776 32.448C41.6671 32.3222 41.709 32.1702 41.7875 32.0811C42.9908 30.6241 44.2046 29.167 45.4341 27.7205C45.5073 27.6261 45.6381 27.5527 45.748 27.5527C47.0664 27.5632 48.39 27.6104 49.698 27.6366C49.7346 27.6366 49.7817 27.6471 49.8759 27.6733C47.2338 30.6136 44.6545 33.512 42.002 36.4942Z" fill="#5C5C5D"/>
</svg>
