<svg width="73" height="85" viewBox="0 0 73 85" fill="none" xmlns="http://www.w3.org/2000/svg">
<path d="M20.0705 0.628906C20.7654 0.858702 21.4833 1.02722 22.1324 1.32595C25.1794 2.75069 26.8212 6.16699 26.0652 9.38413C25.2557 12.7315 22.3156 15.0371 18.9556 14.9529C15.4962 14.8686 12.6554 12.4328 12.0368 9.06242C11.3419 5.24781 13.8696 1.53277 17.6726 0.751464C17.8024 0.728485 17.917 0.667206 18.0468 0.628906C18.7265 0.636566 19.3908 0.636566 20.0705 0.628906Z" fill="#5C5C5D"/>
<path d="M0.665771 31.2994C2.4442 29.2195 4.23027 27.147 6.01634 25.082C8.54278 22.1436 11.0692 19.1755 13.588 16.2297C13.7941 15.9928 13.9544 15.8966 14.275 16.0594C14.8093 16.3185 15.3894 16.5405 16.0153 16.8144C15.6184 17.3103 15.2672 17.7396 14.9085 18.1837C11.7104 22.1065 8.51988 26.0516 5.30649 29.9597C5.00118 30.3371 4.99355 30.5666 5.23016 30.9959C5.97817 32.306 6.67276 33.6605 7.35207 35.015C7.56579 35.4221 7.64975 35.8809 7.74134 36.3324C7.87873 37.0134 7.58869 37.4205 6.84831 37.4575C5.75682 37.5315 4.77983 37.2058 3.95549 36.5027C2.57396 35.3258 1.76489 33.7567 1.01688 32.1579C0.910022 31.9581 0.780263 31.736 0.665771 31.5214C0.665771 31.4548 0.665771 31.3734 0.665771 31.2994Z" fill="#5C5C5D"/>
<path d="M72.2965 62.67C72.2269 62.8228 72.1503 62.9895 72.0947 63.1562C71.5378 64.552 70.0968 65.3228 68.6001 65.0381C67.2427 64.7673 66.1637 63.4617 66.1568 62.0311C66.1498 60.6214 67.2149 59.3158 68.621 59.0172C70.062 58.7256 71.5308 59.5172 72.0877 60.8853C72.1573 61.052 72.2339 61.2117 72.2826 61.3784C72.2965 61.802 72.2965 62.2395 72.2965 62.67Z" fill="#5C5C5D"/>
<path d="M30.5396 22.5027C32.7487 25.6183 34.6453 28.8535 36.2294 32.2979C37.9516 36.0487 38.7946 39.9862 39.0344 44.1031C39.187 46.5014 39.4486 48.9222 39.5358 51.3281C39.5939 52.7552 39.4776 54.1972 39.3323 55.6018C38.9254 59.2405 38.4748 62.8717 38.0098 66.5029C37.3994 71.21 36.8762 75.9321 35.6336 80.5271C35.3865 81.4461 34.9941 82.3502 34.4636 83.1422C33.1483 85.0698 30.4524 84.9876 29.2243 82.9927C28.9191 82.5071 28.7665 81.8122 28.8101 81.2294C28.9627 79.2868 29.2389 77.3442 29.4859 75.4315C29.842 72.6446 30.2199 69.8726 30.5759 67.1006C30.8303 65.1207 31.0773 63.1556 31.3317 61.1757C31.3462 61.1009 31.3317 61.0188 31.3317 60.8095C31.2009 61.1009 31.1137 61.2952 31.0337 61.482C29.3333 65.6287 27.1678 69.4915 24.1594 72.7865C21.4126 75.805 18.2225 78.2707 14.5819 80.034C12.4746 81.0725 11.123 80.1162 10.9195 77.6132C10.796 76.1114 11.2175 74.8038 12.3002 73.7802C13.2885 72.8762 14.3203 71.9796 15.3086 71.0606C19.6686 67.1081 23.2511 62.5131 25.838 57.141C26.7173 55.2955 27.0007 53.3081 26.9208 51.2758C26.7536 47.6296 26.1941 44.0134 25.1695 40.5017C24.5373 38.3649 23.4618 36.5493 21.9068 35.0251C20.8676 33.9865 19.7631 33.0003 18.8184 31.8795C17.2343 30.0266 16.5294 27.7402 15.9989 25.3867C15.6865 23.982 15.4903 22.5624 15.7809 21.1354C16.2823 18.6398 18.4115 16.7495 20.8894 16.5627C21.5071 16.5104 22.1248 16.4731 22.7497 16.4208C25.2131 16.1892 26.9208 14.6425 28.4613 12.8269C28.7302 12.5131 29.0645 12.1993 29.4351 12.0051C31.1573 11.0338 32.9231 10.182 34.8851 9.8906C35.3283 9.83083 35.7643 9.81589 36.1858 9.88313C37.8426 10.1596 38.7582 11.5867 38.3949 13.2902C38.1769 14.3437 37.581 15.1805 36.9488 16.0024C35.3138 18.1094 33.3736 19.925 31.4189 21.6957C31.1282 21.9647 30.8448 22.2038 30.5396 22.5027Z" fill="#5C5C5D"/>
</svg>
