<svg width="60" height="85" viewBox="0 0 60 85" fill="none" xmlns="http://www.w3.org/2000/svg">
<path d="M16.9599 68.6985C15.5505 67.2448 14.6385 66.0651 13.5381 65.2355C10.1089 62.6174 6.61931 60.0906 3.11468 57.6246C0.574766 55.8361 0.13763 53.4691 1.52441 50.4476C3.24281 46.7335 5.00643 43.0574 6.64946 39.2824C7.55388 37.2199 8.56382 37.022 10.2747 38.0114C13.621 39.9826 17.4196 37.9733 18.7762 33.7417C19.5902 31.2301 19.8917 28.4369 21.2483 26.2145C22.0322 24.9055 24.7454 25.0881 24.3535 27.6149C23.7506 31.5041 22.2356 35.1954 20.8715 38.8258C20.4494 39.9217 19.1606 40.5915 18.1884 41.3602C16.8016 42.4333 15.347 43.3847 13.6738 44.5644C13.214 43.6967 12.5583 42.4562 11.7519 40.9111C13.2668 48.4764 14.0959 48.9482 23.939 47.5783C23.1024 46.1474 22.0171 44.3513 21.4594 43.0879C21.1654 42.4333 22.4693 40.797 23.3812 42.0223C26.8934 46.7791 29.9081 51.8937 33.0887 56.9244C33.3525 57.3507 33.1038 58.264 33.0962 58.9566C32.531 58.85 31.9431 58.8272 31.4155 58.6141C31.1442 58.5075 30.903 58.0965 30.7824 57.7616C28.5741 52.1448 24.6324 51.5055 20.0952 52.0078C17.1634 52.3351 14.1863 52.0611 10.6817 52.0611C11.3525 53.0581 11.767 53.8116 12.3096 54.4205C16.1233 58.6673 21.0222 61.529 23.1928 67.8004C23.4717 68.5919 25.1901 68.7137 26.2603 69.041C30.7975 70.4261 35.4327 71.3623 39.7739 73.2878C42.962 74.6959 43.8136 76.6518 39.9095 78.7981C35.9075 80.9672 15.2565 88.3422 7.05645 80.6247C5.61691 79.27 2.05953 74.3077 7.33532 71.4917C10.0938 70.0228 13.2894 69.6955 16.9599 68.6985Z" fill="#5C5C5D"/>
<path d="M46.9162 1.4209C50.7724 1.87057 58.3356 9.56837 58.9695 15.0254C60.0585 24.4609 59.253 33.6068 54.4421 41.5561C53.5545 43.0118 52.1299 44.4904 50.7724 44.8639C49.4298 45.2145 47.5129 44.6124 46.506 43.5454C45.8347 42.8518 46.0809 40.4891 46.2972 38.9572C47.3563 31.5261 49.1762 24.1561 49.4821 16.6793C49.6685 11.5728 47.8038 6.33682 46.9162 1.4209Z" fill="#5C5C5D"/>
<path d="M46.0685 5.62103C41.6564 9.40591 37.4534 13.0184 33.2503 16.6234C31.021 18.5346 28.1725 16.8333 27.4991 13.2058C26.8102 9.49585 30.0767 4.30195 34.5816 1.96357C39.1485 -0.434771 43.1117 0.194793 45.3177 3.74733C45.7512 4.43685 45.9524 5.31375 46.0685 5.62103Z" fill="#5C5C5D"/>
<path d="M16.7435 31.1462C16.7435 34.4665 14.7246 37.0373 12.1605 36.9648C9.70691 36.8923 7.88698 34.4665 7.8575 31.2349C7.82803 27.8501 9.8027 25.3277 12.4037 25.4163C14.7836 25.4808 16.7361 28.0597 16.7435 31.1462Z" fill="#5C5C5D"/>
</svg>
