<svg width="188" height="23" viewBox="0 0 188 23" fill="none" xmlns="http://www.w3.org/2000/svg">
<path d="M13.9222 13.908C14.0982 13.908 14.2542 13.976 14.3902 14.112L15.6622 15.492C14.9582 16.364 14.0902 17.032 13.0582 17.496C12.0342 17.96 10.8022 18.192 9.36222 18.192C8.07422 18.192 6.91422 17.972 5.88222 17.532C4.85822 17.092 3.98222 16.48 3.25422 15.696C2.52622 14.912 1.96622 13.976 1.57422 12.888C1.19022 11.8 0.998219 10.612 0.998219 9.324C0.998219 8.02 1.20622 6.828 1.62222 5.748C2.03822 4.66 2.62222 3.724 3.37422 2.94C4.13422 2.156 5.03822 1.548 6.08622 1.116C7.13422 0.676 8.29422 0.456 9.56622 0.456C10.8302 0.456 11.9502 0.664 12.9262 1.08C13.9102 1.496 14.7462 2.04 15.4342 2.712L14.3542 4.212C14.2902 4.308 14.2062 4.392 14.1022 4.464C14.0062 4.536 13.8702 4.572 13.6942 4.572C13.5742 4.572 13.4502 4.54 13.3222 4.476C13.1942 4.404 13.0542 4.32 12.9022 4.224C12.7502 4.12 12.5742 4.008 12.3742 3.888C12.1742 3.768 11.9422 3.66 11.6782 3.564C11.4142 3.46 11.1062 3.376 10.7542 3.312C10.4102 3.24 10.0102 3.204 9.55422 3.204C8.77822 3.204 8.06622 3.344 7.41822 3.624C6.77822 3.896 6.22622 4.296 5.76222 4.824C5.29822 5.344 4.93822 5.984 4.68222 6.744C4.42622 7.496 4.29822 8.356 4.29822 9.324C4.29822 10.3 4.43422 11.168 4.70622 11.928C4.98622 12.688 5.36222 13.328 5.83422 13.848C6.30622 14.368 6.86222 14.768 7.50222 15.048C8.14222 15.32 8.83022 15.456 9.56622 15.456C10.0062 15.456 10.4022 15.432 10.7542 15.384C11.1142 15.336 11.4422 15.26 11.7382 15.156C12.0422 15.052 12.3262 14.92 12.5902 14.76C12.8622 14.592 13.1302 14.388 13.3942 14.148C13.4742 14.076 13.5582 14.02 13.6462 13.98C13.7342 13.932 13.8262 13.908 13.9222 13.908ZM20.4054 0.167999V18H17.4414V0.167999H20.4054ZM33.9665 5.688V18H32.1545C31.7625 18 31.5145 17.82 31.4105 17.46L31.2065 16.476C30.7025 16.988 30.1465 17.404 29.5385 17.724C28.9305 18.036 28.2145 18.192 27.3905 18.192C26.7185 18.192 26.1225 18.08 25.6025 17.856C25.0905 17.624 24.6585 17.3 24.3065 16.884C23.9545 16.468 23.6865 15.976 23.5025 15.408C23.3265 14.832 23.2385 14.2 23.2385 13.512V5.688H26.2025V13.512C26.2025 14.264 26.3745 14.848 26.7185 15.264C27.0705 15.672 27.5945 15.876 28.2905 15.876C28.8025 15.876 29.2825 15.764 29.7305 15.54C30.1785 15.308 30.6025 14.992 31.0025 14.592V5.688H33.9665ZM39.8694 14.808C40.2054 15.216 40.5694 15.504 40.9614 15.672C41.3614 15.84 41.7814 15.924 42.2214 15.924C42.6774 15.924 43.0854 15.844 43.4454 15.684C43.8134 15.516 44.1254 15.26 44.3814 14.916C44.6374 14.564 44.8334 14.12 44.9694 13.584C45.1054 13.04 45.1734 12.392 45.1734 11.64C45.1734 10.288 44.9494 9.312 44.5014 8.712C44.0534 8.104 43.4094 7.8 42.5694 7.8C42.0014 7.8 41.5054 7.932 41.0814 8.196C40.6574 8.452 40.2534 8.816 39.8694 9.288V14.808ZM39.8694 7.2C40.3654 6.68 40.9134 6.268 41.5134 5.964C42.1214 5.652 42.8134 5.496 43.5894 5.496C44.3014 5.496 44.9414 5.636 45.5094 5.916C46.0854 6.196 46.5734 6.6 46.9734 7.128C47.3814 7.648 47.6934 8.28 47.9094 9.024C48.1254 9.768 48.2334 10.604 48.2334 11.532C48.2334 12.532 48.1094 13.44 47.8614 14.256C47.6134 15.072 47.2574 15.772 46.7934 16.356C46.3374 16.932 45.7854 17.38 45.1374 17.7C44.4894 18.02 43.7694 18.18 42.9774 18.18C42.5934 18.18 42.2454 18.14 41.9334 18.06C41.6214 17.988 41.3334 17.884 41.0694 17.748C40.8054 17.612 40.5614 17.448 40.3374 17.256C40.1214 17.056 39.9134 16.836 39.7134 16.596L39.5814 17.424C39.5334 17.632 39.4494 17.78 39.3294 17.868C39.2174 17.956 39.0614 18 38.8614 18H36.9054V0.167999H39.8694V7.2Z" fill="#21496D"/>
<path d="M53.4866 7.008C53.9666 6.56 54.4946 6.196 55.0706 5.916C55.6466 5.636 56.3226 5.496 57.0986 5.496C57.7706 5.496 58.3666 5.612 58.8866 5.844C59.4066 6.068 59.8386 6.388 60.1826 6.804C60.5346 7.212 60.7986 7.704 60.9746 8.28C61.1586 8.848 61.2506 9.476 61.2506 10.164V18H58.2866V10.164C58.2866 9.412 58.1146 8.832 57.7706 8.424C57.4266 8.008 56.9026 7.8 56.1986 7.8C55.6866 7.8 55.2066 7.916 54.7586 8.148C54.3106 8.38 53.8866 8.696 53.4866 9.096V18H50.5226V0.167999H53.4866V7.008ZM69.5175 5.496C70.4295 5.496 71.2575 5.644 72.0015 5.94C72.7535 6.236 73.3935 6.656 73.9215 7.2C74.4575 7.744 74.8695 8.408 75.1575 9.192C75.4455 9.976 75.5895 10.852 75.5895 11.82C75.5895 12.796 75.4455 13.676 75.1575 14.46C74.8695 15.244 74.4575 15.912 73.9215 16.464C73.3935 17.016 72.7535 17.44 72.0015 17.736C71.2575 18.032 70.4295 18.18 69.5175 18.18C68.5975 18.18 67.7615 18.032 67.0095 17.736C66.2575 17.44 65.6135 17.016 65.0775 16.464C64.5495 15.912 64.1375 15.244 63.8415 14.46C63.5535 13.676 63.4095 12.796 63.4095 11.82C63.4095 10.852 63.5535 9.976 63.8415 9.192C64.1375 8.408 64.5495 7.744 65.0775 7.2C65.6135 6.656 66.2575 6.236 67.0095 5.94C67.7615 5.644 68.5975 5.496 69.5175 5.496ZM69.5175 15.9C70.5415 15.9 71.2975 15.556 71.7855 14.868C72.2815 14.18 72.5295 13.172 72.5295 11.844C72.5295 10.516 72.2815 9.504 71.7855 8.808C71.2975 8.112 70.5415 7.764 69.5175 7.764C68.4775 7.764 67.7055 8.116 67.2015 8.82C66.7055 9.516 66.4575 10.524 66.4575 11.844C66.4575 13.164 66.7055 14.172 67.2015 14.868C67.7055 15.556 68.4775 15.9 69.5175 15.9ZM88.4587 5.688V18H86.6467C86.2547 18 86.0067 17.82 85.9027 17.46L85.6987 16.476C85.1947 16.988 84.6387 17.404 84.0307 17.724C83.4227 18.036 82.7067 18.192 81.8827 18.192C81.2107 18.192 80.6147 18.08 80.0947 17.856C79.5827 17.624 79.1507 17.3 78.7987 16.884C78.4467 16.468 78.1787 15.976 77.9947 15.408C77.8187 14.832 77.7307 14.2 77.7307 13.512V5.688H80.6947V13.512C80.6947 14.264 80.8667 14.848 81.2107 15.264C81.5627 15.672 82.0867 15.876 82.7827 15.876C83.2947 15.876 83.7747 15.764 84.2227 15.54C84.6707 15.308 85.0947 14.992 85.4947 14.592V5.688H88.4587ZM98.9096 8.088C98.8296 8.216 98.7456 8.308 98.6576 8.364C98.5696 8.412 98.4576 8.436 98.3216 8.436C98.1776 8.436 98.0216 8.396 97.8536 8.316C97.6936 8.236 97.5056 8.148 97.2896 8.052C97.0736 7.948 96.8256 7.856 96.5456 7.776C96.2736 7.696 95.9496 7.656 95.5736 7.656C94.9896 7.656 94.5296 7.78 94.1936 8.028C93.8656 8.276 93.7016 8.6 93.7016 9C93.7016 9.264 93.7856 9.488 93.9536 9.672C94.1296 9.848 94.3576 10.004 94.6376 10.14C94.9256 10.276 95.2496 10.4 95.6096 10.512C95.9696 10.616 96.3336 10.732 96.7016 10.86C97.0776 10.988 97.4456 11.136 97.8056 11.304C98.1656 11.464 98.4856 11.672 98.7656 11.928C99.0536 12.176 99.2816 12.476 99.4496 12.828C99.6256 13.18 99.7136 13.604 99.7136 14.1C99.7136 14.692 99.6056 15.24 99.3896 15.744C99.1816 16.24 98.8696 16.672 98.4536 17.04C98.0376 17.4 97.5216 17.684 96.9056 17.892C96.2976 18.092 95.5936 18.192 94.7936 18.192C94.3696 18.192 93.9536 18.152 93.5456 18.072C93.1456 18 92.7576 17.896 92.3816 17.76C92.0136 17.624 91.6696 17.464 91.3496 17.28C91.0376 17.096 90.7616 16.896 90.5216 16.68L91.2056 15.552C91.2936 15.416 91.3976 15.312 91.5176 15.24C91.6376 15.168 91.7896 15.132 91.9736 15.132C92.1576 15.132 92.3296 15.184 92.4896 15.288C92.6576 15.392 92.8496 15.504 93.0656 15.624C93.2816 15.744 93.5336 15.856 93.8216 15.96C94.1176 16.064 94.4896 16.116 94.9376 16.116C95.2896 16.116 95.5896 16.076 95.8376 15.996C96.0936 15.908 96.3016 15.796 96.4616 15.66C96.6296 15.524 96.7496 15.368 96.8216 15.192C96.9016 15.008 96.9416 14.82 96.9416 14.628C96.9416 14.34 96.8536 14.104 96.6776 13.92C96.5096 13.736 96.2816 13.576 95.9936 13.44C95.7136 13.304 95.3896 13.184 95.0216 13.08C94.6616 12.968 94.2896 12.848 93.9056 12.72C93.5296 12.592 93.1576 12.444 92.7896 12.276C92.4296 12.1 92.1056 11.88 91.8176 11.616C91.5376 11.352 91.3096 11.028 91.1336 10.644C90.9656 10.26 90.8816 9.796 90.8816 9.252C90.8816 8.748 90.9816 8.268 91.1816 7.812C91.3816 7.356 91.6736 6.96 92.0576 6.624C92.4496 6.28 92.9336 6.008 93.5096 5.808C94.0936 5.6 94.7656 5.496 95.5256 5.496C96.3736 5.496 97.1456 5.636 97.8416 5.916C98.5376 6.196 99.1176 6.564 99.5816 7.02L98.9096 8.088ZM109.876 10.428C109.876 10.044 109.82 9.684 109.708 9.348C109.604 9.004 109.444 8.704 109.228 8.448C109.012 8.192 108.736 7.992 108.4 7.848C108.072 7.696 107.688 7.62 107.248 7.62C106.392 7.62 105.716 7.864 105.22 8.352C104.732 8.84 104.42 9.532 104.284 10.428H109.876ZM104.224 12.216C104.272 12.848 104.384 13.396 104.56 13.86C104.736 14.316 104.968 14.696 105.256 15C105.544 15.296 105.884 15.52 106.276 15.672C106.676 15.816 107.116 15.888 107.596 15.888C108.076 15.888 108.488 15.832 108.832 15.72C109.184 15.608 109.488 15.484 109.744 15.348C110.008 15.212 110.236 15.088 110.428 14.976C110.628 14.864 110.82 14.808 111.004 14.808C111.252 14.808 111.436 14.9 111.556 15.084L112.408 16.164C112.08 16.548 111.712 16.872 111.304 17.136C110.896 17.392 110.468 17.6 110.02 17.76C109.58 17.912 109.128 18.02 108.664 18.084C108.208 18.148 107.764 18.18 107.332 18.18C106.476 18.18 105.68 18.04 104.944 17.76C104.208 17.472 103.568 17.052 103.024 16.5C102.48 15.94 102.052 15.252 101.74 14.436C101.428 13.612 101.272 12.66 101.272 11.58C101.272 10.74 101.408 9.952 101.68 9.216C101.952 8.472 102.34 7.828 102.844 7.284C103.356 6.732 103.976 6.296 104.704 5.976C105.44 5.656 106.268 5.496 107.188 5.496C107.964 5.496 108.68 5.62 109.336 5.868C109.992 6.116 110.556 6.48 111.028 6.96C111.5 7.432 111.868 8.016 112.132 8.712C112.404 9.4 112.54 10.188 112.54 11.076C112.54 11.524 112.492 11.828 112.396 11.988C112.3 12.14 112.116 12.216 111.844 12.216H104.224Z" fill="#1155CC"/>
<path d="M130.309 3.804C130.213 3.972 130.109 4.096 129.997 4.176C129.893 4.248 129.761 4.284 129.601 4.284C129.433 4.284 129.249 4.224 129.049 4.104C128.857 3.976 128.625 3.836 128.353 3.684C128.081 3.532 127.761 3.396 127.393 3.276C127.033 3.148 126.605 3.084 126.109 3.084C125.661 3.084 125.269 3.14 124.933 3.252C124.597 3.356 124.313 3.504 124.081 3.696C123.857 3.888 123.689 4.12 123.577 4.392C123.465 4.656 123.409 4.948 123.409 5.268C123.409 5.676 123.521 6.016 123.745 6.288C123.977 6.56 124.281 6.792 124.657 6.984C125.033 7.176 125.461 7.348 125.941 7.5C126.421 7.652 126.913 7.816 127.417 7.992C127.921 8.16 128.413 8.36 128.893 8.592C129.373 8.816 129.801 9.104 130.177 9.456C130.553 9.8 130.853 10.224 131.077 10.728C131.309 11.232 131.425 11.844 131.425 12.564C131.425 13.348 131.289 14.084 131.017 14.772C130.753 15.452 130.361 16.048 129.841 16.56C129.329 17.064 128.701 17.464 127.957 17.76C127.213 18.048 126.361 18.192 125.401 18.192C124.849 18.192 124.305 18.136 123.769 18.024C123.233 17.92 122.717 17.768 122.221 17.568C121.733 17.368 121.273 17.128 120.841 16.848C120.409 16.568 120.025 16.256 119.689 15.912L120.637 14.364C120.717 14.252 120.821 14.16 120.949 14.088C121.077 14.008 121.213 13.968 121.357 13.968C121.557 13.968 121.773 14.052 122.005 14.22C122.237 14.38 122.513 14.56 122.833 14.76C123.153 14.96 123.525 15.144 123.949 15.312C124.381 15.472 124.897 15.552 125.497 15.552C126.417 15.552 127.129 15.336 127.633 14.904C128.137 14.464 128.389 13.836 128.389 13.02C128.389 12.564 128.273 12.192 128.041 11.904C127.817 11.616 127.517 11.376 127.141 11.184C126.765 10.984 126.337 10.816 125.857 10.68C125.377 10.544 124.889 10.396 124.393 10.236C123.897 10.076 123.409 9.884 122.929 9.66C122.449 9.436 122.021 9.144 121.645 8.784C121.269 8.424 120.965 7.976 120.733 7.44C120.509 6.896 120.397 6.228 120.397 5.436C120.397 4.804 120.521 4.188 120.769 3.588C121.025 2.988 121.393 2.456 121.873 1.992C122.353 1.528 122.945 1.156 123.649 0.875999C124.353 0.596 125.161 0.456 126.073 0.456C127.097 0.456 128.041 0.616 128.905 0.935999C129.769 1.256 130.505 1.704 131.113 2.28L130.309 3.804ZM136.502 14.808C136.838 15.216 137.202 15.504 137.594 15.672C137.994 15.84 138.426 15.924 138.89 15.924C139.338 15.924 139.742 15.84 140.102 15.672C140.462 15.504 140.766 15.248 141.014 14.904C141.27 14.56 141.466 14.128 141.602 13.608C141.738 13.08 141.806 12.46 141.806 11.748C141.806 11.028 141.746 10.42 141.626 9.924C141.514 9.42 141.35 9.012 141.134 8.7C140.918 8.388 140.654 8.16 140.342 8.016C140.038 7.872 139.69 7.8 139.298 7.8C138.682 7.8 138.158 7.932 137.726 8.196C137.294 8.452 136.886 8.816 136.502 9.288V14.808ZM136.346 7.368C136.85 6.8 137.422 6.34 138.062 5.988C138.702 5.636 139.454 5.46 140.318 5.46C140.99 5.46 141.602 5.6 142.154 5.88C142.714 6.16 143.194 6.568 143.594 7.104C144.002 7.632 144.314 8.288 144.53 9.072C144.754 9.848 144.866 10.74 144.866 11.748C144.866 12.668 144.742 13.52 144.494 14.304C144.246 15.088 143.89 15.768 143.426 16.344C142.97 16.92 142.414 17.372 141.758 17.7C141.11 18.02 140.382 18.18 139.574 18.18C138.886 18.18 138.298 18.076 137.81 17.868C137.322 17.652 136.886 17.356 136.502 16.98V22.02H133.538V5.688H135.35C135.734 5.688 135.986 5.868 136.106 6.228L136.346 7.368ZM152.627 5.496C153.539 5.496 154.367 5.644 155.111 5.94C155.863 6.236 156.503 6.656 157.031 7.2C157.567 7.744 157.979 8.408 158.267 9.192C158.555 9.976 158.699 10.852 158.699 11.82C158.699 12.796 158.555 13.676 158.267 14.46C157.979 15.244 157.567 15.912 157.031 16.464C156.503 17.016 155.863 17.44 155.111 17.736C154.367 18.032 153.539 18.18 152.627 18.18C151.707 18.18 150.871 18.032 150.119 17.736C149.367 17.44 148.723 17.016 148.187 16.464C147.659 15.912 147.247 15.244 146.951 14.46C146.663 13.676 146.519 12.796 146.519 11.82C146.519 10.852 146.663 9.976 146.951 9.192C147.247 8.408 147.659 7.744 148.187 7.2C148.723 6.656 149.367 6.236 150.119 5.94C150.871 5.644 151.707 5.496 152.627 5.496ZM152.627 15.9C153.651 15.9 154.407 15.556 154.895 14.868C155.391 14.18 155.639 13.172 155.639 11.844C155.639 10.516 155.391 9.504 154.895 8.808C154.407 8.112 153.651 7.764 152.627 7.764C151.587 7.764 150.815 8.116 150.311 8.82C149.815 9.516 149.567 10.524 149.567 11.844C149.567 13.164 149.815 14.172 150.311 14.868C150.815 15.556 151.587 15.9 152.627 15.9ZM163.756 7.824C164.14 7.088 164.596 6.512 165.124 6.096C165.652 5.672 166.276 5.46 166.996 5.46C167.564 5.46 168.02 5.584 168.364 5.832L168.172 8.052C168.132 8.196 168.072 8.3 167.992 8.364C167.92 8.42 167.82 8.448 167.692 8.448C167.572 8.448 167.392 8.428 167.152 8.388C166.92 8.348 166.692 8.328 166.468 8.328C166.14 8.328 165.848 8.376 165.592 8.472C165.336 8.568 165.104 8.708 164.896 8.892C164.696 9.068 164.516 9.284 164.356 9.54C164.204 9.796 164.06 10.088 163.924 10.416V18H160.96V5.688H162.7C163.004 5.688 163.216 5.744 163.336 5.856C163.456 5.96 163.536 6.152 163.576 6.432L163.756 7.824ZM174.017 18.192C172.945 18.192 172.121 17.892 171.545 17.292C170.977 16.684 170.693 15.848 170.693 14.784V7.908H169.433C169.273 7.908 169.137 7.856 169.025 7.752C168.913 7.648 168.857 7.492 168.857 7.284V6.108L170.837 5.784L171.461 2.424C171.501 2.264 171.577 2.14 171.689 2.052C171.801 1.964 171.945 1.92 172.121 1.92H173.657V5.796H176.945V7.908H173.657V14.58C173.657 14.964 173.749 15.264 173.933 15.48C174.125 15.696 174.385 15.804 174.713 15.804C174.897 15.804 175.049 15.784 175.169 15.744C175.297 15.696 175.405 15.648 175.493 15.6C175.589 15.552 175.673 15.508 175.745 15.468C175.817 15.42 175.889 15.396 175.961 15.396C176.049 15.396 176.121 15.42 176.177 15.468C176.233 15.508 176.293 15.572 176.357 15.66L177.245 17.1C176.813 17.46 176.317 17.732 175.757 17.916C175.197 18.1 174.617 18.192 174.017 18.192ZM186.355 8.088C186.275 8.216 186.191 8.308 186.103 8.364C186.015 8.412 185.903 8.436 185.767 8.436C185.623 8.436 185.467 8.396 185.299 8.316C185.139 8.236 184.951 8.148 184.735 8.052C184.519 7.948 184.271 7.856 183.991 7.776C183.719 7.696 183.395 7.656 183.019 7.656C182.435 7.656 181.975 7.78 181.639 8.028C181.311 8.276 181.147 8.6 181.147 9C181.147 9.264 181.231 9.488 181.399 9.672C181.575 9.848 181.803 10.004 182.083 10.14C182.371 10.276 182.695 10.4 183.055 10.512C183.415 10.616 183.779 10.732 184.147 10.86C184.523 10.988 184.891 11.136 185.251 11.304C185.611 11.464 185.931 11.672 186.211 11.928C186.499 12.176 186.727 12.476 186.895 12.828C187.071 13.18 187.159 13.604 187.159 14.1C187.159 14.692 187.051 15.24 186.835 15.744C186.627 16.24 186.315 16.672 185.899 17.04C185.483 17.4 184.967 17.684 184.351 17.892C183.743 18.092 183.039 18.192 182.239 18.192C181.815 18.192 181.399 18.152 180.991 18.072C180.591 18 180.203 17.896 179.827 17.76C179.459 17.624 179.115 17.464 178.795 17.28C178.483 17.096 178.207 16.896 177.967 16.68L178.651 15.552C178.739 15.416 178.843 15.312 178.963 15.24C179.083 15.168 179.235 15.132 179.419 15.132C179.603 15.132 179.775 15.184 179.935 15.288C180.103 15.392 180.295 15.504 180.511 15.624C180.727 15.744 180.979 15.856 181.267 15.96C181.563 16.064 181.935 16.116 182.383 16.116C182.735 16.116 183.035 16.076 183.283 15.996C183.539 15.908 183.747 15.796 183.907 15.66C184.075 15.524 184.195 15.368 184.267 15.192C184.347 15.008 184.387 14.82 184.387 14.628C184.387 14.34 184.299 14.104 184.123 13.92C183.955 13.736 183.727 13.576 183.439 13.44C183.159 13.304 182.835 13.184 182.467 13.08C182.107 12.968 181.735 12.848 181.351 12.72C180.975 12.592 180.603 12.444 180.235 12.276C179.875 12.1 179.551 11.88 179.263 11.616C178.983 11.352 178.755 11.028 178.579 10.644C178.411 10.26 178.327 9.796 178.327 9.252C178.327 8.748 178.427 8.268 178.627 7.812C178.827 7.356 179.119 6.96 179.503 6.624C179.895 6.28 180.379 6.008 180.955 5.808C181.539 5.6 182.211 5.496 182.971 5.496C183.819 5.496 184.591 5.636 185.287 5.916C185.983 6.196 186.563 6.564 187.027 7.02L186.355 8.088Z" fill="#38761D"/>
</svg>
