<?xml version="1.0" encoding="utf-8"?>
<!-- Generator: Adobe Illustrator 16.0.0, SVG Export Plug-In . SVG Version: 6.00 Build 0)  -->
<!DOCTYPE svg PUBLIC "-//W3C//DTD SVG 1.1//EN" "http://www.w3.org/Graphics/SVG/1.1/DTD/svg11.dtd">
<svg version="1.1" id="Layer_1" xmlns="http://www.w3.org/2000/svg" xmlns:xlink="http://www.w3.org/1999/xlink" x="0px" y="0px"
	 width="430px" height="173px" viewBox="0 0 430 173" enable-background="new 0 0 430 173" xml:space="preserve">
<g>
	<path fill-rule="evenodd" clip-rule="evenodd" fill="#0D5082" d="M156.628,148.58c0,5.5-4.5,10-10,10H26c-5.5,0-10-4.5-10-10
		V27.951c0-5.5,4.5-10,10-10h120.628c5.5,0,10,4.5,10,10V148.58z"/>
</g>
<text transform="matrix(1 0 0 1 156.6284 114.5439)" fill="#0D5082" font-family="'Roboto-Black'" font-size="66"> IQ Skills</text>
<path fill-rule="evenodd" clip-rule="evenodd" fill="#FFFFFF" d="M52.985,141.632c0.979-3.263,1.979-6.238,2.753-9.27
	c1.173-4.589,2.196-9.218,3.269-13.83c0.499-2.146-0.208-3.318-2.414-4.217c-5.253-2.141-8.484-6.664-11.25-11.265
	C35.74,87.067,33.84,70.38,42.261,53.318c4.664-9.449,12.565-15.702,22.405-19.098c15.148-5.229,30.078-4.297,44.277,3.351
	c7.639,4.113,13.512,9.954,15.044,18.996c0.477,2.825,1.574,5.936-1.85,8.008c-0.37,0.224-0.197,1.354-0.271,2.066
	c-0.265,2.566-0.083,5.282-0.891,7.663c-1.41,4.149-0.463,7.704,1.705,11.128c1.141,1.799,2.582,3.405,3.877,5.107
	c2.063,2.712,1.662,4.992-1.485,6.217c-2.393,0.934-2.593,2.041-1.699,4.232c0.488,1.193,0.096,2.744,0.113,4.134
	c0.009,0.694,0.12,1.396,0.053,2.081c-0.08,0.784-0.065,2.024-0.509,2.25c-2.078,1.061-1.837,2.756-1.69,4.563
	c0.314,3.867-1.452,6.012-5.367,6.215c-2.308,0.12-4.646-0.12-6.959-0.323c-4.363-0.382-6.449,0.52-7.793,4.596
	c-1.654,5.013-2.815,10.193-4.025,15.341c-0.323,1.371-0.64,2.208-2.221,2.204c-13.503-0.024-27.006-0.011-40.508-0.021
	C54.117,142.026,53.768,141.847,52.985,141.632z"/>
<g>
	<path fill-rule="evenodd" clip-rule="evenodd" fill="#0D5082" d="M78.534,45.457c1.071,1.402,1.01,1.586,0.402,2.522
		c0.309,0.438,0.81,0.852,0.889,1.348c0.072,0.442-0.322,0.976-0.51,1.471c1.587,0.536,1.587,0.536,1.388,2.41
		c-0.079,0.725-0.417,1.147-1.069,1.063c-0.873-0.115-1.326,0.208-1.712,1.091c-0.282,0.639-0.316,1.041,0.109,1.549
		c0.351,0.425,0.563,0.913,0.323,1.519c-0.043,0.105,0.015,0.266,0.048,0.398c0.084,0.33,0.151,0.676,0.275,0.988
		c0.269,0.674,0.456,1.44,0.881,1.97c0.532,0.667-0.006,1.385,0.278,2.007c0.577,0.11,1.144,0.23,1.717,0.312
		c0.109,0.018,0.273-0.089,0.348-0.194c0.153-0.213,0.26-0.467,0.397-0.7c0.395-0.684,0.965-0.846,1.59-0.459
		c0.218,0.137,0.435,0.273,0.651,0.417c0.711,0.473,0.813,0.869,0.449,1.704c-0.559,1.289-0.351,1.761,0.931,2.11
		c0.473,0.129,0.955,0.214,1.415,0.376c0.227,0.079,0.517,0.245,0.592,0.453c0.204,0.571,0.404,1.182,0.419,1.782
		c0.006,0.307-0.347,0.668-0.599,0.929c-0.17,0.172-0.454,0.206-0.873,0.38c0.307,0.118,0.455,0.221,0.608,0.228
		c0.545,0.021,1.088,0,1.632,0.007c0.422,0.005,0.594-0.23,0.616-0.677c0.043-0.85,0.127-1.699,0.16-2.551
		c0.018-0.506,0.201-0.721,0.663-0.902c1.153-0.451,2.283-0.994,3.385-1.582c0.338-0.18,0.514-0.154,0.76,0.083
		c0.612,0.591,1.25,1.154,1.851,1.759c0.367,0.367,0.661,0.41,1.006-0.023c0.302-0.377,0.632-0.738,0.977-1.073
		c0.391-0.378,0.348-0.713,0.02-1.111c-0.535-0.646-1.027-1.33-1.557-1.979c-0.248-0.304-0.239-0.553-0.084-0.926
		c0.509-1.251,0.989-2.522,1.432-3.803c0.131-0.38,0.275-0.569,0.651-0.588c0.795-0.043,1.583-0.144,2.379-0.187
		c0.491-0.029,0.726-0.241,0.691-0.811c-0.03-0.503-0.024-1.013-0.002-1.517c0.023-0.52-0.161-0.757-0.646-0.781
		c-0.774-0.036-1.545-0.134-2.318-0.175c-0.436-0.023-0.629-0.224-0.782-0.696c-0.413-1.246-0.886-2.469-1.388-3.675
		c-0.166-0.391-0.2-0.656,0.07-0.984c0.532-0.647,1.021-1.341,1.561-1.984c0.35-0.415,0.323-0.738-0.049-1.106
		c-0.361-0.352-0.699-0.734-1.027-1.12c-0.292-0.344-0.552-0.323-0.86-0.021c-0.594,0.581-1.219,1.127-1.805,1.718
		c-0.329,0.332-0.585,0.32-0.994,0.103c-1.068-0.56-2.171-1.055-3.284-1.499c-0.418-0.165-0.626-0.349-0.646-0.847
		c-0.032-0.875-0.117-1.746-0.164-2.618c-0.026-0.45-0.2-0.668-0.627-0.653c-0.523,0.019-1.046,0.016-1.57-0.005
		c-0.394-0.014-0.573,0.179-0.602,0.605c-0.057,0.893-0.153,1.786-0.18,2.683c-0.017,0.513-0.239,0.675-0.648,0.841
		c-1.115,0.447-2.215,0.937-3.285,1.497c-0.416,0.216-0.672,0.211-0.996-0.117c-0.521-0.531-1.074-1.027-1.614-1.538
		c-0.614-0.575-0.655-0.573-1.228,0.057C78.836,45.095,78.697,45.265,78.534,45.457 M95.056,56.025
		c0.063,4.248-3.263,7.5-6.838,7.44c-3.67-0.066-6.64-3.419-6.628-7.483c0.013-4.095,3.045-7.388,6.787-7.366
		C92.074,48.635,95.069,51.959,95.056,56.025"/>
	<path fill-rule="evenodd" clip-rule="evenodd" fill="#0D5082" d="M78.936,53.493c0.042,0.002,0.085,0,0.126,0.002
		c0.821,0.012,1.256-0.615,0.985-1.465c-0.046-0.144-0.28-0.304-0.424-0.301c-1.119,0.012-1.548-0.561-1.889-1.774
		c-0.326-1.16-0.279-1.857,0.601-2.517c0.611-0.458,0.099-0.79-0.13-1.157c-0.257-0.414-0.536-0.67-0.937-0.207
		c-0.726,0.835-1.344,0.725-2.299,0.195c-1.052-0.585-1.491-1.182-1.277-2.411c0.063-0.367-0.105-0.527-0.447-0.575
		c-1.062-0.156-1.062-0.172-1.241,0.974c-0.037,0.249-0.034,0.521-0.131,0.739c-0.083,0.19-0.256,0.39-0.434,0.463
		c-0.603,0.244-1.222,0.459-1.846,0.629c-0.194,0.053-0.454-0.01-0.637-0.118c-0.194-0.117-0.326-0.349-0.489-0.531
		c-0.689-0.782-1.066-0.756-1.633,0.16c-0.075,0.122-0.063,0.441,0.027,0.529c0.938,0.951,0.699,1.802,0.149,2.958
		c-0.466,0.979-0.919,1.331-1.825,1.14c-0.659-0.139-0.75,0.287-0.798,0.864c-0.042,0.552-0.026,0.966,0.616,0.957
		c0.953-0.015,1.578,0.38,1.586,1.551c0,0.155,0.049,0.332,0.13,0.457c0.569,0.871,0.254,1.483-0.429,2.048
		c-0.209,0.175-0.501,0.582-0.442,0.725c0.17,0.402,0.487,0.735,0.783,1.054c0.054,0.055,0.333-0.043,0.432-0.154
		c0.801-0.892,1.478-0.792,2.521-0.206c1.024,0.578,1.298,1.173,1.167,2.277c-0.109,0.894,0.579,0.547,0.947,0.675
		c0.417,0.146,0.662-0.058,0.659-0.527c-0.006-1.204,0.521-1.639,1.588-2.013c1.09-0.383,1.73-0.265,2.333,0.706
		c0.234,0.381,0.481,0.307,0.781,0.036c0.777-0.703,0.787-0.691,0.198-1.604c-0.111-0.169-0.207-0.354-0.332-0.505
		c-0.254-0.308-0.232-0.566,0-0.902c0.262-0.38,0.474-0.813,0.656-1.249C77.974,53.483,77.96,53.475,78.936,53.493 M72.231,55.608
		c-1.88,0.007-3.406-1.637-3.433-3.697c-0.026-2.07,1.524-3.805,3.408-3.806c1.889-0.005,3.448,1.711,3.434,3.777
		C75.625,53.945,74.11,55.601,72.231,55.608"/>
	<path fill-rule="evenodd" clip-rule="evenodd" fill="#0D5082" d="M111.571,66.348c0.04,0.014,0.083,0.025,0.122,0.038
		c0.784,0.243,1.377-0.236,1.353-1.129c-0.004-0.151-0.183-0.371-0.323-0.408c-1.077-0.304-1.33-0.976-1.32-2.236
		c0.01-1.205,0.25-1.861,1.277-2.247c0.715-0.267,0.316-0.73,0.197-1.148c-0.132-0.47-0.328-0.794-0.842-0.462
		c-0.928,0.597-1.491,0.317-2.26-0.461c-0.848-0.858-1.102-1.556-0.555-2.674c0.164-0.335,0.046-0.536-0.269-0.678
		c-0.976-0.45-0.971-0.465-1.462,0.585c-0.105,0.228-0.179,0.489-0.332,0.672c-0.133,0.159-0.354,0.302-0.544,0.323
		c-0.648,0.064-1.301,0.095-1.948,0.083c-0.201-0.004-0.434-0.138-0.579-0.294c-0.153-0.167-0.217-0.427-0.321-0.647
		c-0.444-0.945-0.813-1.026-1.613-0.307c-0.105,0.096-0.184,0.406-0.122,0.515c0.635,1.178,0.169,1.927-0.68,2.882
		c-0.721,0.808-1.253,1.019-2.069,0.58c-0.593-0.319-0.799,0.064-1.007,0.605c-0.194,0.517-0.294,0.919,0.325,1.092
		c0.919,0.254,1.408,0.809,1.09,1.936c-0.042,0.148-0.043,0.332-0.002,0.475c0.304,0.997-0.169,1.495-0.981,1.845
		c-0.25,0.109-0.643,0.418-0.626,0.571c0.051,0.434,0.263,0.843,0.458,1.234c0.036,0.067,0.332,0.052,0.457-0.027
		c1.018-0.63,1.64-0.344,2.478,0.513c0.822,0.844,0.92,1.492,0.485,2.515c-0.354,0.827,0.403,0.688,0.722,0.915
		c0.36,0.258,0.652,0.131,0.779-0.32c0.329-1.158,0.958-1.426,2.086-1.485c1.152-0.06,1.734,0.234,2.042,1.336
		c0.119,0.432,0.376,0.431,0.739,0.255c0.942-0.456,0.948-0.441,0.638-1.485c-0.06-0.192-0.099-0.397-0.178-0.578
		c-0.158-0.367-0.065-0.608,0.251-0.865c0.358-0.291,0.682-0.647,0.977-1.014C110.651,66.067,110.639,66.055,111.571,66.348
		 M104.546,66.488c-1.807-0.523-2.814-2.532-2.267-4.517c0.552-1.994,2.523-3.222,4.332-2.693c1.815,0.528,2.833,2.615,2.245,4.594
		C108.268,65.849,106.351,67.011,104.546,66.488"/>
	<path fill-rule="evenodd" clip-rule="evenodd" fill="#0D5082" d="M66.214,61.144c0.042,0.002,0.085,0,0.126,0.002
		c0.821,0.012,1.256-0.615,0.985-1.465c-0.046-0.144-0.28-0.304-0.424-0.301c-1.119,0.012-1.548-0.561-1.889-1.774
		c-0.326-1.16-0.279-1.857,0.6-2.517c0.611-0.458,0.1-0.79-0.13-1.157c-0.258-0.414-0.536-0.67-0.938-0.207
		c-0.726,0.835-1.344,0.725-2.299,0.195c-1.052-0.585-1.491-1.182-1.277-2.411c0.064-0.367-0.105-0.527-0.446-0.575
		c-1.062-0.156-1.062-0.172-1.241,0.974c-0.038,0.249-0.035,0.521-0.131,0.739c-0.083,0.19-0.257,0.39-0.434,0.463
		c-0.603,0.244-1.222,0.459-1.846,0.629c-0.194,0.053-0.455-0.01-0.637-0.118c-0.194-0.117-0.326-0.349-0.489-0.531
		c-0.688-0.782-1.066-0.756-1.633,0.16c-0.074,0.122-0.064,0.441,0.027,0.529c0.938,0.951,0.698,1.802,0.149,2.958
		c-0.466,0.979-0.919,1.331-1.824,1.14c-0.659-0.139-0.75,0.287-0.798,0.864c-0.043,0.552-0.026,0.966,0.616,0.957
		c0.953-0.015,1.577,0.38,1.586,1.551c0,0.155,0.049,0.332,0.13,0.457c0.568,0.871,0.253,1.483-0.429,2.048
		c-0.209,0.175-0.501,0.582-0.441,0.725c0.17,0.402,0.487,0.735,0.783,1.054c0.054,0.055,0.333-0.043,0.431-0.154
		c0.801-0.892,1.478-0.792,2.521-0.206c1.025,0.578,1.299,1.173,1.167,2.277c-0.11,0.894,0.578,0.547,0.947,0.675
		c0.417,0.146,0.662-0.058,0.659-0.527c-0.006-1.204,0.522-1.639,1.589-2.013c1.089-0.383,1.73-0.265,2.333,0.706
		c0.234,0.381,0.48,0.307,0.781,0.036c0.777-0.703,0.787-0.691,0.199-1.604c-0.112-0.169-0.207-0.354-0.332-0.505
		c-0.254-0.308-0.231-0.566,0-0.902c0.263-0.38,0.474-0.813,0.656-1.249C65.252,61.134,65.238,61.126,66.214,61.144 M59.51,63.259
		c-1.88,0.007-3.407-1.637-3.434-3.697c-0.026-2.07,1.524-3.805,3.408-3.806c1.889-0.005,3.447,1.711,3.434,3.777
		C62.904,61.596,61.388,63.252,59.51,63.259"/>
	<path fill-rule="evenodd" clip-rule="evenodd" fill="#0D5082" d="M86.908,68.099c-1.083,0.655-1.687,0.083-2.458-0.953
		c-0.708-0.957-0.691-1.637-0.183-2.486c0.316-0.522,0.111-0.706-0.27-0.943c-0.813-0.498-0.805-0.512-1.317,0.34
		c-0.581,0.966-0.579,0.966-1.61,0.742c-0.143-0.031-0.298-0.111-0.431-0.079c-1.224,0.31-1.598-0.575-1.812-1.597
		c-0.114-0.534-0.342-0.555-0.719-0.394c-0.151,0.067-0.311,0.138-0.471,0.155c-0.355,0.045-0.512,0.235-0.377,0.605
		c0.443,1.214,0.018,1.87-0.917,2.655c-0.85,0.72-1.436,0.849-2.243,0.21c-0.517-0.409-0.719-0.021-0.942,0.416
		c-0.227,0.441-0.489,0.841,0.131,1.168c0.856,0.446,1.381,1.063,0.878,2.185c-0.052,0.116-0.061,0.278-0.042,0.409
		c0.17,1.109-0.391,1.57-1.271,1.729c-0.626,0.115-0.664,0.473-0.509,1.081c0.146,0.586,0.31,0.941,0.917,0.696
		c0.862-0.346,1.575-0.287,1.922,0.824c0.044,0.146,0.152,0.295,0.266,0.381c0.884,0.645,0.694,1.387,0.224,2.206
		c-0.125,0.218-0.228,0.684-0.133,0.778c0.302,0.299,0.692,0.507,1.076,0.672c0.079,0.032,0.334-0.258,0.417-0.445
		c0.433-1.005,1.046-1.476,2.058-0.955c0.088,0.044,0.211,0.058,0.309,0.036c1.033-0.241,1.394,0.419,1.586,1.376
		c0.053,0.251,0.282,0.67,0.41,0.661c0.401-0.029,0.805-0.197,1.183-0.378c0.07-0.034,0.072-0.388,0.019-0.563
		c-0.32-1.05-0.246-1.905,0.839-2.342c0.093-0.037,0.189-0.118,0.244-0.211c0.577-0.981,1.257-0.774,2.004-0.261
		c0.203,0.138,0.634,0.258,0.718,0.153c0.264-0.335,0.448-0.768,0.588-1.194c0.031-0.091-0.231-0.361-0.399-0.457
		c-0.843-0.479-1.386-1.075-0.86-2.193c0.01-0.019,0.011-0.043,0.008-0.069c-0.158-1.299,0.38-1.988,1.54-2.164
		c0.394-0.061,0.448-0.389,0.311-0.727C87.437,68.793,87.593,68.19,86.908,68.099 M79.957,75.063
		c-1.997,0.005-3.596-1.749-3.598-3.942c-0.002-2.153,1.591-3.922,3.546-3.943c1.991-0.02,3.604,1.715,3.626,3.914
		C83.553,73.271,81.945,75.058,79.957,75.063"/>
</g>
</svg>
