<svg width="65" height="66" viewBox="0 0 65 66" fill="none" xmlns="http://www.w3.org/2000/svg">
<path d="M33.575 48.9102C40.7023 53.0519 47.3501 57.0482 54.1538 60.7769C57.1919 62.4347 59.9469 61.2306 62.234 58.5722C63.1697 59.0725 64.0418 59.5378 64.8966 60.0032C63.06 64.9302 56.9204 66.6695 51.6299 63.761C46.7205 61.0444 41.9094 58.1359 37.0578 55.3147C25.8934 48.8287 14.729 42.337 3.56456 35.8336C2.68088 35.3275 1.82608 34.7633 0.774902 34.1001C1.3698 33.0182 1.88961 32.0525 2.54804 30.8542C11.1885 35.8394 19.6556 40.7431 28.2556 45.7108C30.9529 42.6569 33.5346 39.7077 36.3358 36.5084C32.4315 33.8267 28.7523 31.3138 25.0675 28.7834C21.3652 26.2472 20.9898 24.5835 23.2192 20.5465C23.7968 19.4878 24.4495 18.4873 25.3158 17.0447C19.0319 14.3572 14.4402 8.20287 6.34267 10.297C6.4062 9.98287 6.47551 9.66875 6.53904 9.37208C6.81628 9.02888 7.05885 8.67986 7.36497 8.40646C7.71151 8.09816 8.12158 7.85966 8.54898 7.563C7.93676 6.42286 7.48626 5.55613 6.86248 4.36947C8.17934 4.50326 9.16698 4.61378 10.3972 4.74175C10.7264 4.13679 11.0903 3.43293 11.7198 2.26953C12.4071 3.47365 12.9212 4.50326 13.545 5.45724C14.1976 6.47522 14.781 7.73751 15.7282 8.34247C18.5467 10.2039 21.6309 11.6174 24.4033 13.5312C26.4594 14.9273 27.7589 14.7993 29.6418 13.0717C33.0899 9.88398 36.8499 7.0511 42.0018 7.31868C48.0374 7.64443 50.1571 10.4017 48.7131 16.2943C46.9111 23.5946 46.9227 23.583 52.9409 28.2482C54.5062 29.4814 57.0013 30.6565 55.2281 33.1171C53.2413 35.8743 51.5201 33.2625 49.8394 32.1921C45.4152 29.3709 41.0372 26.5264 36.59 23.7575C35.9893 23.3736 35.2038 23.2921 34.5049 23.0827C34.3605 23.3503 34.1815 23.6179 34.0256 23.8913C35.4868 25.2292 36.9423 26.5787 38.4093 27.905C39.5933 28.9812 40.7889 30.0282 41.9787 31.0986C45.1033 33.8849 45.2304 35.566 42.5216 38.6781C39.628 41.988 36.7401 45.3037 33.575 48.9102ZM36.5438 20.4418C37.9935 21.3086 39.0562 21.9077 40.5348 22.7919C40.6907 20.4884 40.8178 18.7316 40.9333 16.9865C40.6272 16.8527 40.3153 16.7189 40.0149 16.5677C38.9753 17.7311 37.9357 18.8887 36.5438 20.4418Z" fill="#5C5C5D"/>
<path d="M55.748 13.0423C52.2133 13.0947 49.3196 10.256 49.285 6.70762C49.2503 3.1767 52.1151 0.20422 55.5978 0.163501C59.0343 0.122782 62.055 3.08363 62.1012 6.55056C62.159 10.0291 59.248 12.9958 55.748 13.0423Z" fill="#5C5C5D"/>
</svg>
