<svg width="170" height="198" viewBox="0 0 170 198" fill="none" xmlns="http://www.w3.org/2000/svg">
<rect x="0.561584" y="0.5" width="168.815" height="196.574" rx="1.5" fill="white" stroke="#666666"/>
<path d="M1 2.18359C1 1.63131 1.44772 1.18359 2 1.18359H168C168.552 1.18359 169 1.63131 169 2.18359V62.1836H1V2.18359Z" fill="#666666"/>
<path d="M32.6784 30V16.1818H38.1301C39.1736 16.1818 40.0643 16.3685 40.802 16.7418C41.5441 17.1107 42.1087 17.6347 42.4955 18.3139C42.8868 18.9886 43.0825 19.7826 43.0825 20.6957C43.0825 21.6133 42.8846 22.4027 42.4887 23.0639C42.0929 23.7206 41.5194 24.2244 40.7682 24.5753C40.0215 24.9261 39.1174 25.1016 38.0559 25.1016H34.4056V22.7536H37.5836C38.1413 22.7536 38.6046 22.6771 38.9735 22.5241C39.3423 22.3712 39.6167 22.1418 39.7966 21.8359C39.9811 21.5301 40.0733 21.15 40.0733 20.6957C40.0733 20.2369 39.9811 19.85 39.7966 19.5352C39.6167 19.2203 39.3401 18.9819 38.9667 18.82C38.5979 18.6535 38.1323 18.5703 37.5701 18.5703H35.5999V30H32.6784ZM40.1407 23.7116L43.575 30H40.3499L36.9898 23.7116H40.1407ZM48.4284 30.1957C47.7672 30.1957 47.1779 30.081 46.6607 29.8516C46.1434 29.6177 45.734 29.2736 45.4327 28.8192C45.1358 28.3604 44.9874 27.7892 44.9874 27.1055C44.9874 26.5297 45.0931 26.0462 45.3045 25.6548C45.5159 25.2635 45.8038 24.9486 46.1681 24.7102C46.5325 24.4718 46.9463 24.2919 47.4096 24.1705C47.8774 24.049 48.3677 23.9635 48.8805 23.9141C49.4832 23.8511 49.969 23.7926 50.3379 23.7386C50.7067 23.6802 50.9743 23.5947 51.1408 23.4822C51.3072 23.3698 51.3904 23.2034 51.3904 22.983V22.9425C51.3904 22.5152 51.2555 22.1845 50.9856 21.9506C50.7202 21.7167 50.3424 21.5998 49.8521 21.5998C49.3348 21.5998 48.9232 21.7145 48.6173 21.9439C48.3115 22.1688 48.109 22.4522 48.0101 22.794L45.3517 22.5781C45.4866 21.9484 45.752 21.4041 46.1479 20.9453C46.5437 20.482 47.0542 20.1267 47.6795 19.8793C48.3092 19.6274 49.0379 19.5014 49.8656 19.5014C50.4413 19.5014 50.9923 19.5689 51.5186 19.7038C52.0494 19.8388 52.5194 20.0479 52.9288 20.3313C53.3426 20.6147 53.6687 20.979 53.9071 21.4244C54.1455 21.8652 54.2647 22.3937 54.2647 23.0099V30H51.5388V28.5629H51.4579C51.2915 28.8867 51.0688 29.1723 50.7899 29.4197C50.511 29.6626 50.1759 29.8538 49.7846 29.9933C49.3933 30.1282 48.9412 30.1957 48.4284 30.1957ZM49.2516 28.212C49.6744 28.212 50.0477 28.1288 50.3716 27.9624C50.6955 27.7914 50.9496 27.562 51.134 27.2741C51.3184 26.9863 51.4107 26.6602 51.4107 26.2958V25.196C51.3207 25.2545 51.197 25.3085 51.0396 25.358C50.8866 25.4029 50.7134 25.4457 50.52 25.4862C50.3266 25.5221 50.1332 25.5559 49.9398 25.5874C49.7464 25.6143 49.5709 25.6391 49.4135 25.6616C49.0761 25.7111 48.7815 25.7898 48.5296 25.8977C48.2777 26.0057 48.0821 26.1519 47.9426 26.3363C47.8032 26.5162 47.7334 26.7411 47.7334 27.011C47.7334 27.4023 47.8751 27.7015 48.1585 27.9084C48.4464 28.1108 48.8107 28.212 49.2516 28.212ZM61.5572 30.2024C60.4956 30.2024 59.5825 29.9775 58.8178 29.5277C58.0576 29.0734 57.4729 28.4437 57.0636 27.6385C56.6587 26.8333 56.4563 25.9067 56.4563 24.8587C56.4563 23.7971 56.661 22.866 57.0703 22.0653C57.4841 21.2602 58.0711 20.6327 58.8313 20.1829C59.5915 19.7286 60.4956 19.5014 61.5437 19.5014C62.4478 19.5014 63.2395 19.6656 63.9187 19.994C64.5979 20.3223 65.1354 20.7834 65.5312 21.3771C65.9271 21.9709 66.1452 22.6681 66.1857 23.4688H63.4734C63.3969 22.9515 63.1945 22.5354 62.8661 22.2205C62.5422 21.9012 62.1172 21.7415 61.5909 21.7415C61.1456 21.7415 60.7565 21.8629 60.4236 22.1058C60.0953 22.3442 59.8389 22.6928 59.6545 23.1516C59.47 23.6104 59.3778 24.166 59.3778 24.8182C59.3778 25.4794 59.4678 26.0417 59.6477 26.505C59.8321 26.9683 60.0908 27.3214 60.4236 27.5643C60.7565 27.8072 61.1456 27.9286 61.5909 27.9286C61.9193 27.9286 62.2139 27.8612 62.4748 27.7262C62.7402 27.5913 62.9583 27.3956 63.1292 27.1392C63.3047 26.8783 63.4194 26.5657 63.4734 26.2013H66.1857C66.1407 26.993 65.9248 27.6902 65.538 28.293C65.1556 28.8912 64.6271 29.359 63.9524 29.6964C63.2777 30.0337 62.4793 30.2024 61.5572 30.2024ZM71.0104 27.0178L71.0172 23.57H71.4355L74.7551 19.6364H78.0544L73.5946 24.8452H72.9131L71.0104 27.0178ZM68.406 30V16.1818H71.2803V30H68.406ZM74.8833 30L71.8336 25.4862L73.7498 23.4553L78.2501 30H74.8833ZM84.1408 30.2024C83.0748 30.2024 82.1572 29.9865 81.388 29.5547C80.6233 29.1184 80.0341 28.5021 79.6203 27.706C79.2064 26.9053 78.9995 25.9585 78.9995 24.8654C78.9995 23.7994 79.2064 22.8638 79.6203 22.0586C80.0341 21.2534 80.6166 20.6259 81.3678 20.1761C82.1234 19.7263 83.0096 19.5014 84.0261 19.5014C84.7099 19.5014 85.3463 19.6116 85.9356 19.832C86.5293 20.0479 87.0466 20.3741 87.4874 20.8104C87.9328 21.2467 88.2791 21.7955 88.5265 22.4567C88.7739 23.1134 88.8976 23.8826 88.8976 24.7642V25.5536H80.1465V23.7724H86.192C86.192 23.3585 86.102 22.992 85.9221 22.6726C85.7422 22.3532 85.4925 22.1036 85.1732 21.9237C84.8583 21.7392 84.4917 21.647 84.0734 21.647C83.6371 21.647 83.2502 21.7482 82.9129 21.9506C82.58 22.1486 82.3191 22.4162 82.1302 22.7536C81.9413 23.0864 81.8446 23.4575 81.8401 23.8668V25.5604C81.8401 26.0732 81.9345 26.5162 82.1234 26.8896C82.3169 27.2629 82.589 27.5508 82.9399 27.7532C83.2907 27.9556 83.7068 28.0568 84.1881 28.0568C84.5074 28.0568 84.7998 28.0118 85.0652 27.9219C85.3306 27.8319 85.5578 27.697 85.7467 27.517C85.9356 27.3371 86.0795 27.1167 86.1785 26.8558L88.8369 27.0312C88.7019 27.67 88.4253 28.2277 88.007 28.7045C87.5931 29.1768 87.0579 29.5457 86.4011 29.8111C85.7489 30.072 84.9955 30.2024 84.1408 30.2024ZM96.6657 19.6364V21.7955H90.4246V19.6364H96.6657ZM91.8415 17.1534H94.7158V26.8153C94.7158 27.0807 94.7563 27.2876 94.8373 27.4361C94.9182 27.58 95.0307 27.6812 95.1746 27.7397C95.323 27.7982 95.494 27.8274 95.6874 27.8274C95.8223 27.8274 95.9573 27.8162 96.0922 27.7937C96.2272 27.7667 96.3306 27.7464 96.4026 27.733L96.8547 29.8718C96.7107 29.9168 96.5083 29.9685 96.2474 30.027C95.9865 30.09 95.6694 30.1282 95.2961 30.1417C94.6034 30.1687 93.9961 30.0765 93.4743 29.8651C92.957 29.6536 92.5545 29.3253 92.2666 28.88C91.9787 28.4347 91.837 27.8724 91.8415 27.1932V17.1534ZM103.75 30V16.1818H106.624V21.3771H106.712C106.837 21.0982 107.02 20.8149 107.258 20.527C107.501 20.2346 107.816 19.9917 108.203 19.7983C108.594 19.6004 109.08 19.5014 109.66 19.5014C110.416 19.5014 111.113 19.6993 111.752 20.0952C112.39 20.4865 112.901 21.078 113.283 21.8697C113.666 22.6568 113.857 23.6442 113.857 24.8317C113.857 25.9877 113.67 26.9638 113.297 27.7599C112.928 28.5516 112.424 29.1521 111.785 29.5614C111.151 29.9663 110.44 30.1687 109.653 30.1687C109.096 30.1687 108.621 30.0765 108.23 29.892C107.843 29.7076 107.526 29.476 107.278 29.1971C107.031 28.9137 106.842 28.6281 106.712 28.3402H106.583V30H103.75ZM106.563 24.8182C106.563 25.4344 106.649 25.9719 106.819 26.4308C106.99 26.8896 107.238 27.2472 107.562 27.5036C107.886 27.7554 108.279 27.8814 108.742 27.8814C109.21 27.8814 109.606 27.7532 109.93 27.4968C110.254 27.2359 110.499 26.8761 110.665 26.4173C110.836 25.954 110.922 25.4209 110.922 24.8182C110.922 24.2199 110.839 23.6937 110.672 23.2393C110.506 22.785 110.261 22.4297 109.937 22.1733C109.613 21.9169 109.215 21.7887 108.742 21.7887C108.275 21.7887 107.879 21.9124 107.555 22.1598C107.236 22.4072 106.99 22.758 106.819 23.2124C106.649 23.6667 106.563 24.2019 106.563 24.8182ZM119.11 30.1957C118.449 30.1957 117.859 30.081 117.342 29.8516C116.825 29.6177 116.416 29.2736 116.114 28.8192C115.817 28.3604 115.669 27.7892 115.669 27.1055C115.669 26.5297 115.775 26.0462 115.986 25.6548C116.197 25.2635 116.485 24.9486 116.85 24.7102C117.214 24.4718 117.628 24.2919 118.091 24.1705C118.559 24.049 119.049 23.9635 119.562 23.9141C120.165 23.8511 120.65 23.7926 121.019 23.7386C121.388 23.6802 121.656 23.5947 121.822 23.4822C121.989 23.3698 122.072 23.2034 122.072 22.983V22.9425C122.072 22.5152 121.937 22.1845 121.667 21.9506C121.402 21.7167 121.024 21.5998 120.534 21.5998C120.016 21.5998 119.605 21.7145 119.299 21.9439C118.993 22.1688 118.791 22.4522 118.692 22.794L116.033 22.5781C116.168 21.9484 116.434 21.4041 116.829 20.9453C117.225 20.482 117.736 20.1267 118.361 19.8793C118.991 19.6274 119.719 19.5014 120.547 19.5014C121.123 19.5014 121.674 19.5689 122.2 19.7038C122.731 19.8388 123.201 20.0479 123.61 20.3313C124.024 20.6147 124.35 20.979 124.589 21.4244C124.827 21.8652 124.946 22.3937 124.946 23.0099V30H122.22V28.5629H122.139C121.973 28.8867 121.75 29.1723 121.471 29.4197C121.193 29.6626 120.857 29.8538 120.466 29.9933C120.075 30.1282 119.623 30.1957 119.11 30.1957ZM119.933 28.212C120.356 28.212 120.729 28.1288 121.053 27.9624C121.377 27.7914 121.631 27.562 121.815 27.2741C122 26.9863 122.092 26.6602 122.092 26.2958V25.196C122.002 25.2545 121.878 25.3085 121.721 25.358C121.568 25.4029 121.395 25.4457 121.202 25.4862C121.008 25.5221 120.815 25.5559 120.621 25.5874C120.428 25.6143 120.252 25.6391 120.095 25.6616C119.758 25.7111 119.463 25.7898 119.211 25.8977C118.959 26.0057 118.764 26.1519 118.624 26.3363C118.485 26.5162 118.415 26.7411 118.415 27.011C118.415 27.4023 118.557 27.7015 118.84 27.9084C119.128 28.1108 119.492 28.212 119.933 28.212ZM130.43 16.1818V30H127.556V16.1818H130.43ZM135.987 16.1818V30H133.113V16.1818H135.987ZM70.1175 40.0195H67.1622C67.1083 39.6372 66.998 39.2976 66.8316 39.0007C66.6652 38.6993 66.4515 38.4429 66.1906 38.2315C65.9297 38.0201 65.6284 37.8582 65.2865 37.7457C64.9492 37.6333 64.5826 37.5771 64.1867 37.5771C63.4715 37.5771 62.8485 37.7547 62.3178 38.1101C61.787 38.4609 61.3754 38.9737 61.083 39.6484C60.7907 40.3187 60.6445 41.1328 60.6445 42.0909C60.6445 43.076 60.7907 43.9036 61.083 44.5739C61.3799 45.2441 61.7937 45.7501 62.3245 46.092C62.8553 46.4338 63.4693 46.6048 64.1665 46.6048C64.5578 46.6048 64.9199 46.553 65.2528 46.4496C65.5901 46.3461 65.8893 46.1954 66.1502 45.9975C66.411 45.7951 66.627 45.55 66.7979 45.2621C66.9733 44.9742 67.0948 44.6458 67.1622 44.277L70.1175 44.2905C70.041 44.9247 69.8498 45.5365 69.544 46.1257C69.2426 46.7105 68.8355 47.2345 68.3227 47.6978C67.8145 48.1566 67.2072 48.521 66.501 48.7908C65.7993 49.0562 65.0054 49.1889 64.1193 49.1889C62.8868 49.1889 61.7847 48.91 60.8132 48.3523C59.8461 47.7945 59.0814 46.9871 58.5191 45.93C57.9614 44.873 57.6825 43.5933 57.6825 42.0909C57.6825 40.584 57.9659 39.3021 58.5326 38.245C59.0994 37.188 59.8685 36.3828 60.8401 35.8295C61.8117 35.2718 62.9048 34.9929 64.1193 34.9929C64.9199 34.9929 65.6621 35.1053 66.3458 35.3303C67.034 35.5552 67.6435 35.8835 68.1743 36.3153C68.7051 36.7427 69.1369 37.2667 69.4698 37.8874C69.8071 38.5082 70.023 39.2189 70.1175 40.0195ZM75.4128 35.1818V49H72.5385V35.1818H75.4128ZM84.7412 44.5874V38.6364H87.6155V49H84.8559V47.1175H84.748C84.5141 47.7248 84.125 48.2128 83.5807 48.5817C83.0409 48.9505 82.382 49.1349 81.6038 49.1349C80.9111 49.1349 80.3016 48.9775 79.7753 48.6626C79.249 48.3478 78.8374 47.9002 78.5406 47.32C78.2482 46.7397 78.0998 46.0447 78.0953 45.2351V38.6364H80.9695V44.7223C80.974 45.334 81.1382 45.8176 81.4621 46.1729C81.786 46.5283 82.22 46.706 82.7643 46.706C83.1106 46.706 83.4345 46.6272 83.7359 46.4698C84.0373 46.3079 84.2802 46.0695 84.4646 45.7546C84.6535 45.4397 84.7457 45.0507 84.7412 44.5874ZM90.3486 49V35.1818H93.2229V40.3771H93.3106C93.4365 40.0982 93.6187 39.8149 93.8571 39.527C94.1 39.2346 94.4149 38.9917 94.8017 38.7983C95.193 38.6004 95.6788 38.5014 96.2591 38.5014C97.0148 38.5014 97.712 38.6993 98.3507 39.0952C98.9894 39.4865 99.5 40.078 99.8823 40.8697C100.265 41.6568 100.456 42.6442 100.456 43.8317C100.456 44.9877 100.269 45.9638 99.8958 46.7599C99.527 47.5516 99.0232 48.1521 98.3844 48.5614C97.7502 48.9663 97.0395 49.1687 96.2523 49.1687C95.6946 49.1687 95.22 49.0765 94.8287 48.892C94.4418 48.7076 94.1247 48.476 93.8773 48.1971C93.6299 47.9137 93.441 47.6281 93.3106 47.3402H93.1824V49H90.3486ZM93.1621 43.8182C93.1621 44.4344 93.2476 44.9719 93.4185 45.4308C93.5895 45.8896 93.8369 46.2472 94.1607 46.5036C94.4846 46.7554 94.8782 46.8814 95.3415 46.8814C95.8093 46.8814 96.2051 46.7532 96.529 46.4968C96.8528 46.2359 97.098 45.8761 97.2644 45.4173C97.4353 44.954 97.5208 44.4209 97.5208 43.8182C97.5208 43.2199 97.4376 42.6937 97.2712 42.2393C97.1047 41.785 96.8596 41.4297 96.5357 41.1733C96.2119 40.9169 95.8138 40.7887 95.3415 40.7887C94.8737 40.7887 94.4778 40.9124 94.154 41.1598C93.8346 41.4072 93.5895 41.758 93.4185 42.2124C93.2476 42.6667 93.1621 43.2019 93.1621 43.8182ZM111.377 41.5916L108.745 41.7536C108.7 41.5286 108.603 41.3262 108.455 41.1463C108.307 40.9619 108.111 40.8157 107.868 40.7077C107.63 40.5953 107.344 40.5391 107.011 40.5391C106.566 40.5391 106.19 40.6335 105.884 40.8224C105.579 41.0069 105.426 41.2543 105.426 41.5646C105.426 41.812 105.525 42.0212 105.722 42.1921C105.92 42.363 106.26 42.5002 106.741 42.6037L108.617 42.9815C109.625 43.1884 110.376 43.5213 110.871 43.9801C111.365 44.4389 111.613 45.0417 111.613 45.7884C111.613 46.4676 111.413 47.0636 111.012 47.5763C110.616 48.0891 110.072 48.4895 109.379 48.7773C108.691 49.0607 107.897 49.2024 106.998 49.2024C105.626 49.2024 104.533 48.9168 103.719 48.3455C102.909 47.7698 102.434 46.9871 102.295 45.9975L105.122 45.8491C105.207 46.2674 105.414 46.5868 105.743 46.8072C106.071 47.0231 106.492 47.131 107.004 47.131C107.508 47.131 107.913 47.0343 108.219 46.8409C108.529 46.643 108.687 46.3888 108.691 46.0785C108.687 45.8176 108.576 45.6039 108.361 45.4375C108.145 45.2666 107.812 45.1361 107.362 45.0462L105.567 44.6886C104.555 44.4862 103.802 44.1353 103.307 43.636C102.817 43.1367 102.572 42.5002 102.572 41.7266C102.572 41.0608 102.751 40.4873 103.111 40.006C103.476 39.5247 103.986 39.1536 104.643 38.8928C105.304 38.6319 106.078 38.5014 106.964 38.5014C108.273 38.5014 109.303 38.7781 110.054 39.3313C110.81 39.8846 111.251 40.638 111.377 41.5916Z" fill="white"/>
</svg>
