<svg width="170" height="199" viewBox="0 0 170 199" fill="none" xmlns="http://www.w3.org/2000/svg">
<rect x="0.684692" y="1.13281" width="168.815" height="196.574" rx="1.5" fill="white" stroke="#666666"/>
<path d="M1.0011 2.44922C1.0011 1.89693 1.44881 1.44922 2.0011 1.44922H168.184C168.736 1.44922 169.184 1.89693 169.184 2.44922V57.7822H1.0011V2.44922Z" fill="#666666"/>
<path d="M21.3394 20.9543H24.9562L28.4388 27.5317H28.588L32.0706 20.9543H35.6874L30.1167 30.8279V36.2271H26.9101V30.8279L21.3394 20.9543ZM38.8629 36.4433C38.1321 36.4433 37.4808 36.3165 36.9091 36.063C36.3374 35.8045 35.8849 35.4241 35.5518 34.922C35.2237 34.4149 35.0597 33.7835 35.0597 33.0278C35.0597 32.3915 35.1765 31.857 35.4101 31.4245C35.6438 30.992 35.962 30.644 36.3647 30.3805C36.7674 30.117 37.2248 29.9181 37.7369 29.7839C38.2539 29.6496 38.7958 29.5552 39.3626 29.5005C40.0288 29.4309 40.5657 29.3663 40.9734 29.3066C41.381 29.242 41.6768 29.1475 41.8608 29.0232C42.0447 28.8989 42.1367 28.715 42.1367 28.4714V28.4266C42.1367 27.9543 41.9876 27.5889 41.6893 27.3304C41.3959 27.0719 40.9783 26.9426 40.4364 26.9426C39.8647 26.9426 39.4098 27.0694 39.0717 27.3229C38.7337 27.5715 38.5099 27.8847 38.4006 28.2626L35.4624 28.0239C35.6115 27.3279 35.9048 26.7263 36.3423 26.2192C36.7798 25.7072 37.3441 25.3144 38.0351 25.041C38.7312 24.7626 39.5366 24.6234 40.4513 24.6234C41.0877 24.6234 41.6967 24.6979 42.2784 24.8471C42.8651 24.9962 43.3846 25.2274 43.837 25.5406C44.2944 25.8538 44.6548 26.2565 44.9183 26.7487C45.1818 27.2359 45.3136 27.8201 45.3136 28.5012V36.2271H42.3008V34.6386H42.2113C42.0273 34.9966 41.7812 35.3123 41.473 35.5857C41.1648 35.8542 40.7944 36.0655 40.3619 36.2196C39.9293 36.3687 39.4297 36.4433 38.8629 36.4433ZM39.7727 34.2508C40.2401 34.2508 40.6527 34.1589 41.0106 33.9749C41.3686 33.786 41.6495 33.5324 41.8533 33.2143C42.0572 32.8961 42.1591 32.5356 42.1591 32.1329V30.9174C42.0597 30.982 41.9229 31.0417 41.7489 31.0964C41.5799 31.1461 41.3885 31.1933 41.1747 31.2381C40.9609 31.2778 40.7472 31.3151 40.5334 31.3499C40.3196 31.3797 40.1257 31.4071 39.9517 31.432C39.5788 31.4866 39.2532 31.5736 38.9748 31.693C38.6964 31.8123 38.4801 31.9739 38.326 32.1777C38.1719 32.3766 38.0948 32.6251 38.0948 32.9234C38.0948 33.356 38.2514 33.6866 38.5646 33.9153C38.8828 34.139 39.2855 34.2508 39.7727 34.2508ZM53.3737 36.4508C52.2004 36.4508 51.1911 36.2022 50.346 35.705C49.5058 35.2029 48.8594 34.5069 48.407 33.617C47.9596 32.7271 47.7359 31.7029 47.7359 30.5445C47.7359 29.3712 47.9621 28.3421 48.4145 27.4572C48.8719 26.5672 49.5207 25.8737 50.3609 25.3766C51.2011 24.8744 52.2004 24.6234 53.3587 24.6234C54.358 24.6234 55.233 24.8048 55.9837 25.1677C56.7344 25.5307 57.3286 26.0403 57.7661 26.6965C58.2036 27.3528 58.4447 28.1234 58.4894 29.0083H55.4915C55.407 28.4366 55.1833 27.9767 54.8204 27.6287C54.4624 27.2757 53.9926 27.0992 53.4109 27.0992C52.9188 27.0992 52.4887 27.2334 52.1208 27.5019C51.7579 27.7654 51.4745 28.1507 51.2707 28.6578C51.0668 29.1649 50.9649 29.7789 50.9649 30.4998C50.9649 31.2306 51.0643 31.8521 51.2632 32.3641C51.467 32.8762 51.7529 33.2665 52.1208 33.5349C52.4887 33.8034 52.9188 33.9376 53.4109 33.9376C53.7739 33.9376 54.0995 33.8631 54.3879 33.7139C54.6812 33.5648 54.9223 33.3485 55.1112 33.0651C55.3051 32.7768 55.4319 32.4312 55.4915 32.0285H58.4894C58.4397 32.9035 58.2011 33.6741 57.7735 34.3403C57.3509 35.0016 56.7668 35.5186 56.021 35.8915C55.2753 36.2643 54.3928 36.4508 53.3737 36.4508ZM64.1203 29.6049V36.2271H60.9434V20.9543H64.0308V26.7935H64.165C64.4235 26.1173 64.8411 25.5878 65.4179 25.205C65.9946 24.8172 66.7179 24.6234 67.588 24.6234C68.3834 24.6234 69.0769 24.7974 69.6686 25.1454C70.2652 25.4884 70.7275 25.9831 71.0556 26.6294C71.3887 27.2707 71.5528 28.0388 71.5478 28.9337V36.2271H68.371V29.5005C68.3759 28.7945 68.197 28.2452 67.834 27.8524C67.4761 27.4597 66.974 27.2633 66.3277 27.2633C65.8951 27.2633 65.5123 27.3552 65.1792 27.5392C64.8511 27.7231 64.5926 27.9916 64.4036 28.3446C64.2197 28.6926 64.1252 29.1127 64.1203 29.6049ZM80.5606 24.7725V27.1589H73.6625V24.7725H80.5606ZM75.2286 22.0282H78.4054V32.7072C78.4054 33.0005 78.4502 33.2292 78.5396 33.3932C78.6291 33.5523 78.7534 33.6642 78.9125 33.7288C79.0766 33.7935 79.2655 33.8258 79.4793 33.8258C79.6284 33.8258 79.7776 33.8133 79.9267 33.7885C80.0759 33.7587 80.1902 33.7363 80.2698 33.7214L80.7694 36.0854C80.6103 36.1351 80.3866 36.1922 80.0982 36.2569C79.8099 36.3265 79.4594 36.3687 79.0467 36.3837C78.2811 36.4135 77.61 36.3116 77.0333 36.0779C76.4615 35.8442 76.0166 35.4813 75.6984 34.9891C75.3802 34.4969 75.2236 33.8755 75.2286 33.1248V22.0282ZM101.866 26.3013H98.5992C98.5395 25.8787 98.4177 25.5033 98.2338 25.1752C98.0498 24.8421 97.8137 24.5587 97.5253 24.3251C97.237 24.0914 96.9039 23.9124 96.526 23.7881C96.1532 23.6638 95.748 23.6017 95.3105 23.6017C94.52 23.6017 93.8314 23.7981 93.2448 24.1908C92.6581 24.5786 92.2032 25.1454 91.8801 25.8911C91.5569 26.6319 91.3954 27.5317 91.3954 28.5907C91.3954 29.6795 91.5569 30.5942 91.8801 31.335C92.2082 32.0758 92.6656 32.6351 93.2522 33.0129C93.8389 33.3908 94.5175 33.5797 95.2881 33.5797C95.7206 33.5797 96.1209 33.5225 96.4888 33.4082C96.8616 33.2938 97.1922 33.1273 97.4806 32.9085C97.7689 32.6848 98.0076 32.4138 98.1965 32.0957C98.3904 31.7775 98.5246 31.4146 98.5992 31.0069L101.866 31.0218C101.781 31.7228 101.57 32.3989 101.232 33.0502C100.899 33.6965 100.449 34.2757 99.8819 34.7878C99.3201 35.2949 98.6489 35.6976 97.8684 35.9959C97.0928 36.2892 96.2153 36.4359 95.2359 36.4359C93.8737 36.4359 92.6557 36.1276 91.5818 35.5111C90.5129 34.8947 89.6677 34.0023 89.0463 32.8339C88.4298 31.6656 88.1216 30.2512 88.1216 28.5907C88.1216 26.9252 88.4348 25.5083 89.0612 24.34C89.6876 23.1717 90.5378 22.2817 91.6116 21.6702C92.6855 21.0538 93.8936 20.7455 95.2359 20.7455C96.1209 20.7455 96.9412 20.8698 97.6968 21.1184C98.4575 21.367 99.1312 21.7299 99.7178 22.2072C100.304 22.6795 100.782 23.2587 101.15 23.9447C101.522 24.6308 101.761 25.4163 101.866 26.3013ZM107.718 20.9543V36.2271H104.541V20.9543H107.718ZM118.029 31.3499V24.7725H121.205V36.2271H118.155V34.1464H118.036C117.778 34.8176 117.347 35.357 116.746 35.7647C116.149 36.1724 115.421 36.3762 114.561 36.3762C113.795 36.3762 113.122 36.2022 112.54 35.8542C111.958 35.5062 111.503 35.0115 111.175 34.3702C110.852 33.7288 110.688 32.9607 110.683 32.0658V24.7725H113.86V31.4991C113.865 32.1752 114.046 32.7097 114.404 33.1024C114.762 33.4952 115.242 33.6915 115.844 33.6915C116.226 33.6915 116.584 33.6045 116.917 33.4305C117.251 33.2516 117.519 32.9881 117.723 32.64C117.932 32.292 118.034 31.862 118.029 31.3499ZM124.226 36.2271V20.9543H127.403V26.6965H127.5C127.639 26.3883 127.841 26.0751 128.104 25.7569C128.373 25.4337 128.721 25.1653 129.148 24.9515C129.581 24.7327 130.118 24.6234 130.759 24.6234C131.594 24.6234 132.365 24.8421 133.071 25.2796C133.777 25.7121 134.341 26.3659 134.763 27.2409C135.186 28.1109 135.397 29.2022 135.397 30.5147C135.397 31.7924 135.191 32.8712 134.778 33.7512C134.371 34.6262 133.814 35.2899 133.108 35.7423C132.407 36.1898 131.621 36.4135 130.751 36.4135C130.135 36.4135 129.61 36.3116 129.178 36.1077C128.75 35.9039 128.4 35.6479 128.126 35.3396C127.853 35.0264 127.644 34.7107 127.5 34.3925H127.358V36.2271H124.226ZM127.336 30.4998C127.336 31.1809 127.43 31.775 127.619 32.2821C127.808 32.7892 128.082 33.1844 128.44 33.4678C128.798 33.7462 129.233 33.8854 129.745 33.8854C130.262 33.8854 130.699 33.7437 131.057 33.4604C131.415 33.172 131.686 32.7743 131.87 32.2672C132.059 31.7551 132.153 31.166 132.153 30.4998C132.153 29.8386 132.061 29.2569 131.877 28.7547C131.694 28.2526 131.423 27.8599 131.065 27.5765C130.707 27.2931 130.267 27.1514 129.745 27.1514C129.228 27.1514 128.79 27.2881 128.432 27.5616C128.079 27.835 127.808 28.2228 127.619 28.7249C127.43 29.2271 127.336 29.8187 127.336 30.4998ZM147.468 28.0388L144.559 28.2178C144.51 27.9692 144.403 27.7455 144.239 27.5467C144.075 27.3428 143.858 27.1812 143.59 27.0619C143.326 26.9376 143.011 26.8755 142.643 26.8755C142.151 26.8755 141.735 26.9799 141.397 27.1887C141.059 27.3925 140.89 27.666 140.89 28.009C140.89 28.2824 141 28.5136 141.218 28.7025C141.437 28.8915 141.812 29.0431 142.344 29.1574L144.418 29.5751C145.531 29.8038 146.361 30.1717 146.908 30.6788C147.455 31.1859 147.729 31.8521 147.729 32.6773C147.729 33.428 147.507 34.0868 147.065 34.6535C146.627 35.2203 146.026 35.6628 145.26 35.981C144.5 36.2942 143.622 36.4508 142.628 36.4508C141.111 36.4508 139.903 36.1351 139.004 35.5037C138.109 34.8673 137.584 34.0023 137.43 32.9085L140.555 32.7445C140.649 33.2068 140.878 33.5598 141.241 33.8034C141.604 34.042 142.069 34.1614 142.635 34.1614C143.192 34.1614 143.64 34.0545 143.978 33.8407C144.321 33.6219 144.495 33.341 144.5 32.998C144.495 32.7097 144.373 32.4735 144.134 32.2896C143.896 32.1006 143.528 31.9565 143.031 31.857L141.047 31.4618C139.928 31.2381 139.096 30.8503 138.549 30.2984C138.007 29.7466 137.736 29.0431 137.736 28.188C137.736 27.4522 137.935 26.8183 138.332 26.2864C138.735 25.7544 139.299 25.3442 140.025 25.0559C140.756 24.7675 141.611 24.6234 142.591 24.6234C144.037 24.6234 145.176 24.9291 146.006 25.5406C146.841 26.1521 147.328 26.9849 147.468 28.0388Z" fill="white"/>
</svg>
