<svg width="170" height="199" viewBox="0 0 170 199" fill="none" xmlns="http://www.w3.org/2000/svg">
<rect x="0.684692" y="1.13281" width="168.815" height="196.574" rx="1.5" fill="white" stroke="#666666"/>
<path d="M1.0011 2.44922C1.0011 1.89693 1.44881 1.44922 2.0011 1.44922H168.184C168.736 1.44922 169.184 1.89693 169.184 2.44922V57.7822H1.0011V2.44922Z" fill="#666666"/>
<path d="M35.1948 25.2271V9.95432H41.3099C42.4335 9.95432 43.3706 10.1209 44.1213 10.454C44.872 10.7871 45.4363 11.2494 45.8141 11.841C46.192 12.4277 46.3809 13.1038 46.3809 13.8695C46.3809 14.466 46.2616 14.9905 46.0229 15.443C45.7843 15.8904 45.4562 16.2583 45.0386 16.5467C44.6259 16.83 44.1536 17.0314 43.6217 17.1507V17.2998C44.2033 17.3247 44.7477 17.4888 45.2548 17.792C45.7669 18.0953 46.182 18.5204 46.5002 19.0672C46.8184 19.6092 46.9775 20.2555 46.9775 21.0062C46.9775 21.8165 46.7761 22.5399 46.3734 23.1763C45.9757 23.8077 45.3866 24.3073 44.606 24.6752C43.8255 25.0431 42.8635 25.2271 41.72 25.2271H35.1948ZM38.4239 22.5871H41.0563C41.9562 22.5871 42.6124 22.4156 43.0251 22.0726C43.4377 21.7246 43.644 21.2622 43.644 20.6855C43.644 20.2629 43.5421 19.89 43.3383 19.5669C43.1344 19.2437 42.8436 18.9902 42.4658 18.8062C42.0929 18.6223 41.6479 18.5303 41.1309 18.5303H38.4239V22.5871ZM38.4239 16.3453H40.8177C41.2602 16.3453 41.6529 16.2682 41.996 16.1141C42.344 15.955 42.6174 15.7313 42.8163 15.443C43.0201 15.1546 43.122 14.8091 43.122 14.4064C43.122 13.8545 42.9256 13.4096 42.5329 13.0715C42.1451 12.7334 41.5933 12.5644 40.8773 12.5644H38.4239V16.3453ZM52.7053 25.4433C51.9745 25.4433 51.3232 25.3165 50.7514 25.063C50.1797 24.8045 49.7273 24.4241 49.3942 23.922C49.0661 23.4149 48.902 22.7835 48.902 22.0278C48.902 21.3915 49.0188 20.857 49.2525 20.4245C49.4862 19.992 49.8044 19.644 50.2071 19.3805C50.6098 19.117 51.0671 18.9181 51.5792 18.7839C52.0963 18.6496 52.6382 18.5552 53.2049 18.5005C53.8711 18.4309 54.408 18.3663 54.8157 18.3066C55.2234 18.242 55.5192 18.1475 55.7031 18.0232C55.8871 17.8989 55.9791 17.715 55.9791 17.4714V17.4266C55.9791 16.9543 55.8299 16.5889 55.5316 16.3304C55.2383 16.0719 54.8207 15.9426 54.2788 15.9426C53.7071 15.9426 53.2522 16.0694 52.9141 16.3229C52.576 16.5715 52.3523 16.8847 52.2429 17.2626L49.3047 17.0239C49.4539 16.3279 49.7472 15.7263 50.1847 15.2192C50.6222 14.7072 51.1865 14.3144 51.8775 14.041C52.5735 13.7626 53.3789 13.6234 54.2937 13.6234C54.9301 13.6234 55.5391 13.6979 56.1208 13.8471C56.7074 13.9962 57.2269 14.2274 57.6794 14.5406C58.1367 14.8538 58.4972 15.2565 58.7607 15.7487C59.0242 16.2359 59.1559 16.8201 59.1559 17.5012V25.2271H56.1431V23.6386H56.0536C55.8697 23.9966 55.6236 24.3123 55.3154 24.5857C55.0071 24.8542 54.6367 25.0655 54.2042 25.2196C53.7717 25.3687 53.272 25.4433 52.7053 25.4433ZM53.6151 23.2508C54.0824 23.2508 54.4951 23.1589 54.853 22.9749C55.211 22.786 55.4919 22.5324 55.6957 22.2143C55.8995 21.8961 56.0014 21.5356 56.0014 21.1329V19.9174C55.902 19.982 55.7653 20.0417 55.5913 20.0964C55.4223 20.1461 55.2308 20.1933 55.0171 20.2381C54.8033 20.2778 54.5895 20.3151 54.3757 20.3499C54.162 20.3797 53.9681 20.4071 53.7941 20.432C53.4212 20.4866 53.0955 20.5736 52.8171 20.693C52.5387 20.8123 52.3225 20.9739 52.1683 21.1777C52.0142 21.3766 51.9372 21.6251 51.9372 21.9234C51.9372 22.356 52.0938 22.6866 52.407 22.9153C52.7252 23.139 53.1279 23.2508 53.6151 23.2508ZM66.2615 25.4135C65.3914 25.4135 64.6034 25.1898 63.8975 24.7423C63.1965 24.2899 62.6397 23.6262 62.227 22.7512C61.8194 21.8712 61.6155 20.7924 61.6155 19.5147C61.6155 18.2022 61.8268 17.1109 62.2494 16.2409C62.672 15.3659 63.2338 14.7121 63.9348 14.2796C64.6407 13.8421 65.4138 13.6234 66.254 13.6234C66.8953 13.6234 67.4298 13.7327 67.8573 13.9515C68.2899 14.1653 68.6379 14.4337 68.9014 14.7569C69.1698 15.0751 69.3737 15.3883 69.5129 15.6965H69.6098V9.95432H72.7792V25.2271H69.6471V23.3925H69.5129C69.3637 23.7107 69.1524 24.0264 68.879 24.3396C68.6105 24.6479 68.26 24.9039 67.8275 25.1077C67.4 25.3116 66.8779 25.4135 66.2615 25.4135ZM67.2682 22.8854C67.7803 22.8854 68.2128 22.7462 68.5658 22.4678C68.9238 22.1844 69.1972 21.7892 69.3861 21.2821C69.58 20.775 69.677 20.1809 69.677 19.4998C69.677 18.8187 69.5825 18.2271 69.3936 17.7249C69.2046 17.2228 68.9312 16.835 68.5733 16.5616C68.2153 16.2881 67.7803 16.1514 67.2682 16.1514C66.7462 16.1514 66.3062 16.2931 65.9483 16.5765C65.5903 16.8599 65.3194 17.2526 65.1354 17.7547C64.9515 18.2569 64.8595 18.8386 64.8595 19.4998C64.8595 20.166 64.9515 20.7551 65.1354 21.2672C65.3243 21.7743 65.5953 22.172 65.9483 22.4604C66.3062 22.7437 66.7462 22.8854 67.2682 22.8854ZM75.8112 25.2271V13.7725H78.8389V15.7935H78.9731C79.2117 15.1223 79.6095 14.5928 80.1663 14.205C80.7231 13.8172 81.3893 13.6234 82.1649 13.6234C82.9504 13.6234 83.6191 13.8197 84.1709 14.2125C84.7227 14.6003 85.0906 15.1273 85.2746 15.7935H85.3939C85.6276 15.1372 86.0502 14.6127 86.6617 14.2199C87.2781 13.8222 88.0065 13.6234 88.8467 13.6234C89.9156 13.6234 90.7831 13.9639 91.4493 14.645C92.1205 15.3212 92.4561 16.2807 92.4561 17.5236V25.2271H89.2867V18.15C89.2867 17.5136 89.1176 17.0364 88.7796 16.7182C88.4415 16.4 88.0189 16.2409 87.5118 16.2409C86.9351 16.2409 86.4852 16.4248 86.162 16.7927C85.8389 17.1557 85.6773 17.6354 85.6773 18.232V25.2271H82.5974V18.0829C82.5974 17.5211 82.4358 17.0736 82.1127 16.7405C81.7945 16.4074 81.3744 16.2409 80.8524 16.2409C80.4994 16.2409 80.1812 16.3304 79.8978 16.5094C79.6194 16.6834 79.3982 16.9295 79.2341 17.2476C79.07 17.5609 78.988 17.9288 78.988 18.3513V25.2271H75.8112ZM95.3855 25.2271V13.7725H98.5623V25.2271H95.3855ZM96.9814 12.2959C96.509 12.2959 96.1039 12.1393 95.7658 11.8261C95.4327 11.5079 95.2662 11.1276 95.2662 10.6851C95.2662 10.2476 95.4327 9.87229 95.7658 9.55908C96.1039 9.2409 96.509 9.08181 96.9814 9.08181C97.4537 9.08181 97.8564 9.2409 98.1894 9.55908C98.5275 9.87229 98.6965 10.2476 98.6965 10.6851C98.6965 11.1276 98.5275 11.5079 98.1894 11.8261C97.8564 12.1393 97.4537 12.2959 96.9814 12.2959ZM107.62 13.7725V16.1589H100.722V13.7725H107.62ZM102.288 11.0282H105.465V21.7072C105.465 22.0005 105.509 22.2292 105.599 22.3932C105.688 22.5523 105.813 22.6642 105.972 22.7288C106.136 22.7935 106.325 22.8258 106.539 22.8258C106.688 22.8258 106.837 22.8133 106.986 22.7885C107.135 22.7587 107.249 22.7363 107.329 22.7214L107.829 25.0854C107.67 25.1351 107.446 25.1922 107.157 25.2569C106.869 25.3265 106.519 25.3687 106.106 25.3837C105.34 25.4135 104.669 25.3116 104.092 25.0779C103.521 24.8442 103.076 24.4813 102.758 23.9891C102.439 23.4969 102.283 22.8755 102.288 22.1248V11.0282ZM115.162 25.4508C114.003 25.4508 113.001 25.2047 112.156 24.7125C111.316 24.2153 110.667 23.5243 110.21 22.6393C109.753 21.7494 109.524 20.7178 109.524 19.5445C109.524 18.3613 109.753 17.3272 110.21 16.4422C110.667 15.5523 111.316 14.8613 112.156 14.3691C113.001 13.8719 114.003 13.6234 115.162 13.6234C116.32 13.6234 117.319 13.8719 118.16 14.3691C119.005 14.8613 119.656 15.5523 120.113 16.4422C120.571 17.3272 120.799 18.3613 120.799 19.5445C120.799 20.7178 120.571 21.7494 120.113 22.6393C119.656 23.5243 119.005 24.2153 118.16 24.7125C117.319 25.2047 116.32 25.4508 115.162 25.4508ZM115.177 22.9898C115.704 22.9898 116.144 22.8407 116.497 22.5424C116.849 22.2391 117.115 21.8265 117.294 21.3045C117.478 20.7824 117.57 20.1883 117.57 19.5222C117.57 18.856 117.478 18.2619 117.294 17.7398C117.115 17.2178 116.849 16.8052 116.497 16.5019C116.144 16.1986 115.704 16.047 115.177 16.047C114.645 16.047 114.197 16.1986 113.834 16.5019C113.476 16.8052 113.205 17.2178 113.021 17.7398C112.842 18.2619 112.753 18.856 112.753 19.5222C112.753 20.1883 112.842 20.7824 113.021 21.3045C113.205 21.8265 113.476 22.2391 113.834 22.5424C114.197 22.8407 114.645 22.9898 115.177 22.9898ZM126.462 18.6049V25.2271H123.285V13.7725H126.313V15.7935H126.447C126.701 15.1273 127.126 14.6003 127.722 14.2125C128.319 13.8197 129.042 13.6234 129.892 13.6234C130.688 13.6234 131.381 13.7974 131.973 14.1454C132.565 14.4934 133.024 14.9905 133.353 15.6369C133.681 16.2782 133.845 17.0438 133.845 17.9337V25.2271H130.668V18.5005C130.673 17.7995 130.494 17.2526 130.131 16.8599C129.768 16.4621 129.268 16.2633 128.632 16.2633C128.205 16.2633 127.827 16.3552 127.499 16.5392C127.175 16.7231 126.922 16.9916 126.738 17.3446C126.559 17.6926 126.467 18.1127 126.462 18.6049ZM68.7877 39.3013H65.5213C65.4617 38.8787 65.3399 38.5033 65.1559 38.1752C64.972 37.8421 64.7358 37.5587 64.4475 37.3251C64.1591 37.0914 63.826 36.9124 63.4482 36.7881C63.0753 36.6638 62.6701 36.6017 62.2326 36.6017C61.4421 36.6017 60.7536 36.7981 60.1669 37.1908C59.5803 37.5786 59.1254 38.1454 58.8022 38.8911C58.4791 39.6319 58.3175 40.5317 58.3175 41.5907C58.3175 42.6795 58.4791 43.5942 58.8022 44.335C59.1303 45.0758 59.5877 45.6351 60.1744 46.0129C60.761 46.3908 61.4396 46.5797 62.2102 46.5797C62.6428 46.5797 63.043 46.5225 63.4109 46.4082C63.7838 46.2938 64.1144 46.1273 64.4027 45.9085C64.6911 45.6848 64.9297 45.4138 65.1186 45.0957C65.3125 44.7775 65.4467 44.4146 65.5213 44.0069L68.7877 44.0218C68.7031 44.7228 68.4918 45.3989 68.1538 46.0502C67.8207 46.6965 67.3708 47.2757 66.804 47.7878C66.2422 48.2949 65.571 48.6976 64.7905 48.9959C64.0149 49.2892 63.1374 49.4359 62.158 49.4359C60.7958 49.4359 59.5778 49.1276 58.5039 48.5111C57.435 47.8947 56.5899 47.0023 55.9684 45.8339C55.3519 44.6656 55.0437 43.2512 55.0437 41.5907C55.0437 39.9252 55.3569 38.5083 55.9833 37.34C56.6097 36.1717 57.4599 35.2817 58.5338 34.6702C59.6076 34.0538 60.8157 33.7455 62.158 33.7455C63.043 33.7455 63.8633 33.8698 64.619 34.1184C65.3796 34.367 66.0533 34.7299 66.6399 35.2072C67.2266 35.6795 67.7039 36.2587 68.0717 36.9447C68.4446 37.6308 68.6833 38.4163 68.7877 39.3013ZM74.6404 33.9543V49.2271H71.4635V33.9543H74.6404ZM84.9507 44.3499V37.7725H88.1276V49.2271H85.0775V47.1464H84.9582C84.6997 47.8176 84.2696 48.357 83.6681 48.7647C83.0715 49.1724 82.3431 49.3762 81.483 49.3762C80.7174 49.3762 80.0438 49.2022 79.4621 48.8542C78.8804 48.5062 78.4255 48.0115 78.0974 47.3702C77.7742 46.7288 77.6102 45.9607 77.6052 45.0658V37.7725H80.782V44.4991C80.787 45.1752 80.9685 45.7097 81.3264 46.1024C81.6844 46.4952 82.1641 46.6915 82.7657 46.6915C83.1485 46.6915 83.5065 46.6045 83.8396 46.4305C84.1727 46.2516 84.4411 45.9881 84.645 45.64C84.8538 45.292 84.9557 44.862 84.9507 44.3499ZM91.1483 49.2271V33.9543H94.3252V39.6965H94.4221C94.5613 39.3883 94.7627 39.0751 95.0262 38.7569C95.2946 38.4337 95.6426 38.1653 96.0702 37.9515C96.5027 37.7327 97.0397 37.6234 97.681 37.6234C98.5162 37.6234 99.2868 37.8421 99.9928 38.2796C100.699 38.7121 101.263 39.3659 101.686 40.2409C102.108 41.1109 102.319 42.2022 102.319 43.5147C102.319 44.7924 102.113 45.8712 101.701 46.7512C101.293 47.6262 100.736 48.2899 100.03 48.7423C99.3291 49.1898 98.5436 49.4135 97.6735 49.4135C97.0571 49.4135 96.5326 49.3116 96.1 49.1077C95.6725 48.9039 95.322 48.6479 95.0485 48.3396C94.7751 48.0264 94.5663 47.7107 94.4221 47.3925H94.2804V49.2271H91.1483ZM94.2581 43.4998C94.2581 44.1809 94.3525 44.775 94.5414 45.2821C94.7304 45.7892 95.0038 46.1844 95.3618 46.4678C95.7197 46.7462 96.1547 46.8854 96.6668 46.8854C97.1838 46.8854 97.6213 46.7437 97.9793 46.4604C98.3373 46.172 98.6082 45.7743 98.7922 45.2672C98.9811 44.7551 99.0755 44.166 99.0755 43.4998C99.0755 42.8386 98.9836 42.2569 98.7996 41.7547C98.6157 41.2526 98.3447 40.8599 97.9868 40.5765C97.6288 40.2931 97.1888 40.1514 96.6668 40.1514C96.1498 40.1514 95.7123 40.2881 95.3543 40.5616C95.0013 40.835 94.7304 41.2228 94.5414 41.7249C94.3525 42.2271 94.2581 42.8187 94.2581 43.4998ZM114.39 41.0388L111.481 41.2178C111.432 40.9692 111.325 40.7455 111.161 40.5467C110.997 40.3428 110.78 40.1812 110.512 40.0619C110.248 39.9376 109.933 39.8755 109.565 39.8755C109.073 39.8755 108.658 39.9799 108.319 40.1887C107.981 40.3925 107.812 40.666 107.812 41.009C107.812 41.2824 107.922 41.5136 108.141 41.7025C108.359 41.8915 108.735 42.0431 109.267 42.1574L111.34 42.5751C112.453 42.8038 113.284 43.1717 113.83 43.6788C114.377 44.1859 114.651 44.8521 114.651 45.6773C114.651 46.428 114.43 47.0868 113.987 47.6535C113.55 48.2203 112.948 48.6628 112.182 48.981C111.422 49.2942 110.544 49.4508 109.55 49.4508C108.034 49.4508 106.826 49.1351 105.926 48.5037C105.031 47.8673 104.506 47.0023 104.352 45.9085L107.477 45.7445C107.571 46.2068 107.8 46.5598 108.163 46.8034C108.526 47.042 108.991 47.1614 109.557 47.1614C110.114 47.1614 110.562 47.0545 110.9 46.8407C111.243 46.6219 111.417 46.341 111.422 45.998C111.417 45.7097 111.295 45.4735 111.056 45.2896C110.818 45.1006 110.45 44.9565 109.953 44.857L107.969 44.4618C106.85 44.2381 106.018 43.8503 105.471 43.2984C104.929 42.7466 104.658 42.0431 104.658 41.188C104.658 40.4522 104.857 39.8183 105.255 39.2864C105.657 38.7544 106.221 38.3442 106.947 38.0559C107.678 37.7675 108.533 37.6234 109.513 37.6234C110.959 37.6234 112.098 37.9291 112.928 38.5406C113.763 39.1521 114.251 39.9849 114.39 41.0388Z" fill="white"/>
</svg>
