<svg width="171" height="198" viewBox="0 0 171 198" fill="none" xmlns="http://www.w3.org/2000/svg">
<path d="M168 1.18359H3C1.89543 1.18359 1 2.07902 1 3.18359V195.184C1 196.288 1.89543 197.184 3 197.184H168C169.105 197.184 170 196.288 170 195.184V3.18359C170 2.07902 169.105 1.18359 168 1.18359Z" fill="white" stroke="#666666" stroke-miterlimit="10"/>
<path d="M169 1.18359H2C1.44772 1.18359 1 1.63131 1 2.18359V62.1836C1 62.7359 1.44771 63.1836 2 63.1836H169C169.552 63.1836 170 62.7359 170 62.1836V2.18359C170 1.63131 169.552 1.18359 169 1.18359Z" fill="#666666"/>
<path d="M30.306 29.0195H27.3507C27.2968 28.6372 27.1865 28.2976 27.0201 28.0007C26.8537 27.6993 26.64 27.4429 26.3791 27.2315C26.1182 27.0201 25.8169 26.8582 25.475 26.7457C25.1377 26.6333 24.7711 26.5771 24.3752 26.5771C23.66 26.5771 23.037 26.7547 22.5063 27.1101C21.9755 27.4609 21.5639 27.9737 21.2715 28.6484C20.9792 29.3187 20.833 30.1328 20.833 31.0909C20.833 32.076 20.9792 32.9036 21.2715 33.5739C21.5684 34.2441 21.9822 34.7501 22.513 35.092C23.0438 35.4338 23.6578 35.6048 24.355 35.6048C24.7463 35.6048 25.1084 35.553 25.4413 35.4496C25.7786 35.3461 26.0778 35.1954 26.3387 34.9975C26.5995 34.7951 26.8155 34.55 26.9864 34.2621C27.1618 33.9742 27.2833 33.6458 27.3507 33.277L30.306 33.2905C30.2295 33.9247 30.0383 34.5365 29.7325 35.1257C29.4311 35.7105 29.024 36.2345 28.5112 36.6978C28.003 37.1566 27.3957 37.521 26.6895 37.7908C25.9878 38.0562 25.1939 38.1889 24.3078 38.1889C23.0753 38.1889 21.9732 37.91 21.0017 37.3523C20.0346 36.7945 19.2699 35.9871 18.7076 34.93C18.1499 33.873 17.871 32.5933 17.871 31.0909C17.871 29.584 18.1543 28.3021 18.7211 27.245C19.2879 26.188 20.057 25.3828 21.0286 24.8295C22.0002 24.2718 23.0933 23.9929 24.3078 23.9929C25.1084 23.9929 25.8506 24.1053 26.5343 24.3303C27.2225 24.5552 27.832 24.8835 28.3628 25.3153C28.8936 25.7427 29.3254 26.2667 29.6583 26.8874C29.9956 27.5082 30.2115 28.2189 30.306 29.0195ZM37.4095 38.2024C36.3615 38.2024 35.4551 37.9798 34.6904 37.5344C33.9302 37.0846 33.3432 36.4594 32.9294 35.6587C32.5156 34.8536 32.3087 33.9202 32.3087 32.8587C32.3087 31.7881 32.5156 30.8525 32.9294 30.0518C33.3432 29.2467 33.9302 28.6214 34.6904 28.1761C35.4551 27.7263 36.3615 27.5014 37.4095 27.5014C38.4576 27.5014 39.3617 27.7263 40.1219 28.1761C40.8866 28.6214 41.4758 29.2467 41.8896 30.0518C42.3035 30.8525 42.5104 31.7881 42.5104 32.8587C42.5104 33.9202 42.3035 34.8536 41.8896 35.6587C41.4758 36.4594 40.8866 37.0846 40.1219 37.5344C39.3617 37.9798 38.4576 38.2024 37.4095 38.2024ZM37.423 35.9759C37.8998 35.9759 38.2979 35.8409 38.6173 35.571C38.9366 35.2966 39.1773 34.9233 39.3392 34.451C39.5056 33.9787 39.5889 33.4412 39.5889 32.8384C39.5889 32.2357 39.5056 31.6982 39.3392 31.2259C39.1773 30.7536 38.9366 30.3802 38.6173 30.1058C38.2979 29.8314 37.8998 29.6942 37.423 29.6942C36.9417 29.6942 36.5369 29.8314 36.2085 30.1058C35.8847 30.3802 35.6395 30.7536 35.4731 31.2259C35.3112 31.6982 35.2302 32.2357 35.2302 32.8384C35.2302 33.4412 35.3112 33.9787 35.4731 34.451C35.6395 34.9233 35.8847 35.2966 36.2085 35.571C36.5369 35.8409 36.9417 35.9759 37.423 35.9759ZM51.4053 33.5874V27.6364H54.2796V38H51.52V36.1175H51.412C51.1781 36.7248 50.7891 37.2128 50.2448 37.5817C49.705 37.9505 49.046 38.1349 48.2679 38.1349C47.5752 38.1349 46.9657 37.9775 46.4394 37.6626C45.9131 37.3478 45.5015 36.9002 45.2047 36.32C44.9123 35.7397 44.7638 35.0447 44.7593 34.2351V27.6364H47.6336V33.7223C47.6381 34.334 47.8023 34.8176 48.1262 35.1729C48.45 35.5283 48.8841 35.706 49.4284 35.706C49.7747 35.706 50.0986 35.6272 50.4 35.4698C50.7013 35.3079 50.9442 35.0695 51.1287 34.7546C51.3176 34.4397 51.4098 34.0507 51.4053 33.5874ZM59.833 32.0085V38H56.9587V27.6364H59.698V29.4648H59.8195C60.0489 28.8621 60.4335 28.3853 60.9732 28.0344C61.513 27.6791 62.1675 27.5014 62.9367 27.5014C63.6564 27.5014 64.2838 27.6589 64.8191 27.9737C65.3544 28.2886 65.7705 28.7384 66.0673 29.3232C66.3642 29.9034 66.5127 30.5961 66.5127 31.4013V38H63.6384V31.9141C63.6429 31.2798 63.4809 30.785 63.1526 30.4297C62.8242 30.0698 62.3721 29.8899 61.7964 29.8899C61.4096 29.8899 61.0677 29.9731 60.7708 30.1396C60.4784 30.306 60.249 30.5489 60.0826 30.8683C59.9207 31.1831 59.8375 31.5632 59.833 32.0085ZM74.6704 27.6364V29.7955H68.4293V27.6364H74.6704ZM69.8462 25.1534H72.7205V34.8153C72.7205 35.0807 72.761 35.2876 72.842 35.4361C72.9229 35.58 73.0354 35.6812 73.1793 35.7397C73.3278 35.7982 73.4987 35.8274 73.6921 35.8274C73.827 35.8274 73.962 35.8162 74.0969 35.7937C74.2319 35.7667 74.3353 35.7464 74.4073 35.733L74.8594 37.8718C74.7154 37.9168 74.513 37.9685 74.2521 38.027C73.9912 38.09 73.6741 38.1282 73.3008 38.1417C72.6081 38.1687 72.0008 38.0765 71.479 37.8651C70.9618 37.6536 70.5592 37.3253 70.2713 36.88C69.9834 36.4347 69.8417 35.8724 69.8462 35.1932V25.1534ZM76.9228 38V27.6364H79.7094V29.4446H79.8173C80.0062 28.8014 80.3233 28.3156 80.7687 27.9872C81.214 27.6544 81.7268 27.4879 82.307 27.4879C82.451 27.4879 82.6061 27.4969 82.7726 27.5149C82.939 27.5329 83.0852 27.5576 83.2111 27.5891V30.1396C83.0762 30.0991 82.8895 30.0631 82.6511 30.0316C82.4127 30.0001 82.1946 29.9844 81.9966 29.9844C81.5738 29.9844 81.196 30.0766 80.8631 30.261C80.5348 30.4409 80.2739 30.6928 80.0805 31.0167C79.8915 31.3406 79.7971 31.7139 79.7971 32.1367V38H76.9228ZM87.1671 41.8864C86.8028 41.8864 86.4609 41.8571 86.1416 41.7987C85.8267 41.7447 85.5658 41.675 85.3589 41.5895L86.0066 39.4439C86.344 39.5473 86.6476 39.6036 86.9175 39.6126C87.1919 39.6216 87.428 39.5586 87.6259 39.4237C87.8283 39.2887 87.9925 39.0593 88.1185 38.7354L88.2872 38.2969L84.5695 27.6364H87.5922L89.7378 35.2472H89.8457L92.0116 27.6364H95.0546L91.0265 39.12C90.8331 39.6778 90.5699 40.1636 90.2371 40.5774C89.9087 40.9957 89.4926 41.3174 88.9889 41.5423C88.4851 41.7717 87.8778 41.8864 87.1671 41.8864ZM113.929 29.0195H110.974C110.92 28.6372 110.81 28.2976 110.643 28.0007C110.477 27.6993 110.263 27.4429 110.002 27.2315C109.741 27.0201 109.44 26.8582 109.098 26.7457C108.761 26.6333 108.394 26.5771 107.998 26.5771C107.283 26.5771 106.66 26.7547 106.129 27.1101C105.598 27.4609 105.187 27.9737 104.895 28.6484C104.602 29.3187 104.456 30.1328 104.456 31.0909C104.456 32.076 104.602 32.9036 104.895 33.5739C105.191 34.2441 105.605 34.7501 106.136 35.092C106.667 35.4338 107.281 35.6048 107.978 35.6048C108.369 35.6048 108.731 35.553 109.064 35.4496C109.402 35.3461 109.701 35.1954 109.962 34.9975C110.223 34.7951 110.438 34.55 110.609 34.2621C110.785 33.9742 110.906 33.6458 110.974 33.277L113.929 33.2905C113.853 33.9247 113.661 34.5365 113.355 35.1257C113.054 35.7105 112.647 36.2345 112.134 36.6978C111.626 37.1566 111.019 37.521 110.313 37.7908C109.611 38.0562 108.817 38.1889 107.931 38.1889C106.698 38.1889 105.596 37.91 104.625 37.3523C103.658 36.7945 102.893 35.9871 102.331 34.93C101.773 33.873 101.494 32.5933 101.494 31.0909C101.494 29.584 101.777 28.3021 102.344 27.245C102.911 26.188 103.68 25.3828 104.652 24.8295C105.623 24.2718 106.716 23.9929 107.931 23.9929C108.731 23.9929 109.474 24.1053 110.157 24.3303C110.846 24.5552 111.455 24.8835 111.986 25.3153C112.517 25.7427 112.948 26.2667 113.281 26.8874C113.619 27.5082 113.835 28.2189 113.929 29.0195ZM119.224 24.1818V38H116.35V24.1818H119.224ZM128.553 33.5874V27.6364H131.427V38H128.667V36.1175H128.559C128.326 36.7248 127.936 37.2128 127.392 37.5817C126.852 37.9505 126.193 38.1349 125.415 38.1349C124.723 38.1349 124.113 37.9775 123.587 37.6626C123.061 37.3478 122.649 36.9002 122.352 36.32C122.06 35.7397 121.911 35.0447 121.907 34.2351V27.6364H124.781V33.7223C124.786 34.334 124.95 34.8176 125.274 35.1729C125.597 35.5283 126.032 35.706 126.576 35.706C126.922 35.706 127.246 35.6272 127.547 35.4698C127.849 35.3079 128.092 35.0695 128.276 34.7546C128.465 34.4397 128.557 34.0507 128.553 33.5874ZM134.16 38V24.1818H137.034V29.3771H137.122C137.248 29.0982 137.43 28.8149 137.669 28.527C137.911 28.2346 138.226 27.9917 138.613 27.7983C139.005 27.6004 139.49 27.5014 140.071 27.5014C140.826 27.5014 141.523 27.6993 142.162 28.0952C142.801 28.4865 143.311 29.078 143.694 29.8697C144.076 30.6568 144.267 31.6442 144.267 32.8317C144.267 33.9877 144.081 34.9638 143.707 35.7599C143.338 36.5516 142.835 37.1521 142.196 37.5614C141.562 37.9663 140.851 38.1687 140.064 38.1687C139.506 38.1687 139.032 38.0765 138.64 37.892C138.253 37.7076 137.936 37.476 137.689 37.1971C137.441 36.9137 137.253 36.6281 137.122 36.3402H136.994V38H134.16ZM136.974 32.8182C136.974 33.4344 137.059 33.9719 137.23 34.4308C137.401 34.8896 137.648 35.2472 137.972 35.5036C138.296 35.7554 138.69 35.8814 139.153 35.8814C139.621 35.8814 140.017 35.7532 140.34 35.4968C140.664 35.2359 140.909 34.8761 141.076 34.4173C141.247 33.954 141.332 33.4209 141.332 32.8182C141.332 32.2199 141.249 31.6937 141.083 31.2393C140.916 30.785 140.671 30.4297 140.347 30.1733C140.023 29.9169 139.625 29.7887 139.153 29.7887C138.685 29.7887 138.289 29.9124 137.965 30.1598C137.646 30.4072 137.401 30.758 137.23 31.2124C137.059 31.6667 136.974 32.2019 136.974 32.8182ZM155.188 30.5916L152.557 30.7536C152.512 30.5286 152.415 30.3262 152.267 30.1463C152.118 29.9619 151.922 29.8157 151.68 29.7077C151.441 29.5953 151.156 29.5391 150.823 29.5391C150.377 29.5391 150.002 29.6335 149.696 29.8224C149.39 30.0069 149.237 30.2543 149.237 30.5646C149.237 30.812 149.336 31.0212 149.534 31.1921C149.732 31.363 150.071 31.5002 150.553 31.6037L152.428 31.9815C153.436 32.1884 154.187 32.5213 154.682 32.9801C155.177 33.4389 155.424 34.0417 155.424 34.7884C155.424 35.4676 155.224 36.0636 154.824 36.5763C154.428 37.0891 153.884 37.4895 153.191 37.7773C152.503 38.0607 151.709 38.2024 150.809 38.2024C149.437 38.2024 148.344 37.9168 147.53 37.3455C146.72 36.7698 146.246 35.9871 146.106 34.9975L148.933 34.8491C149.019 35.2674 149.226 35.5868 149.554 35.8072C149.883 36.0231 150.303 36.131 150.816 36.131C151.32 36.131 151.725 36.0343 152.03 35.8409C152.341 35.643 152.498 35.3888 152.503 35.0785C152.498 34.8176 152.388 34.6039 152.172 34.4375C151.956 34.2666 151.623 34.1361 151.174 34.0462L149.379 33.6886C148.367 33.4862 147.613 33.1353 147.118 32.636C146.628 32.1367 146.383 31.5002 146.383 30.7266C146.383 30.0608 146.563 29.4873 146.923 29.006C147.287 28.5247 147.798 28.1536 148.454 27.8928C149.116 27.6319 149.889 27.5014 150.775 27.5014C152.084 27.5014 153.114 27.7781 153.866 28.3313C154.621 28.8846 155.062 29.638 155.188 30.5916Z" fill="white"/>
</svg>
