<svg width="170" height="199" viewBox="0 0 170 199" fill="none" xmlns="http://www.w3.org/2000/svg">
<rect x="0.684692" y="0.949219" width="168.815" height="196.574" rx="1.5" fill="white" stroke="#666666"/>
<path d="M1.0011 2.26562C1.0011 1.71334 1.44881 1.26562 2.0011 1.26562H168.184C168.736 1.26562 169.184 1.71334 169.184 2.26562V57.5986H1.0011V2.26562Z" fill="#666666"/>
<path d="M28.2074 25.1631C28.1478 24.5616 27.8917 24.0942 27.4393 23.7611C26.9869 23.428 26.3729 23.2615 25.5973 23.2615C25.0704 23.2615 24.6254 23.3361 24.2625 23.4852C23.8996 23.6294 23.6211 23.8307 23.4273 24.0893C23.2383 24.3478 23.1439 24.6411 23.1439 24.9692C23.1339 25.2427 23.1911 25.4813 23.3154 25.6851C23.4447 25.889 23.6211 26.0655 23.8449 26.2146C24.0686 26.3588 24.3271 26.4856 24.6204 26.5949C24.9138 26.6994 25.227 26.7888 25.5601 26.8634L26.9322 27.1915C27.5984 27.3407 28.2099 27.5396 28.7667 27.7881C29.3236 28.0367 29.8058 28.3425 30.2135 28.7054C30.6211 29.0683 30.9368 29.4959 31.1606 29.9881C31.3893 30.4802 31.5061 31.0445 31.5111 31.6809C31.5061 32.6155 31.2674 33.4259 30.7951 34.112C30.3278 34.7931 29.6517 35.3226 28.7667 35.7004C27.8868 36.0733 26.8253 36.2597 25.5824 36.2597C24.3495 36.2597 23.2756 36.0708 22.3608 35.693C21.451 35.3151 20.7401 34.7558 20.228 34.015C19.7209 33.2693 19.4549 32.3471 19.4301 31.2484H22.5547C22.5895 31.7604 22.7362 32.188 22.9947 32.531C23.2582 32.8691 23.6087 33.1251 24.0462 33.2991C24.4887 33.4682 24.9883 33.5527 25.5451 33.5527C26.092 33.5527 26.5668 33.4731 26.9695 33.3141C27.3772 33.155 27.6929 32.9337 27.9166 32.6503C28.1403 32.367 28.2522 32.0413 28.2522 31.6734C28.2522 31.3304 28.1503 31.042 27.9464 30.8084C27.7476 30.5747 27.4542 30.3758 27.0665 30.2118C26.6836 30.0477 26.2138 29.8986 25.657 29.7643L23.994 29.3467C22.7064 29.0335 21.6897 28.5438 20.9439 27.8776C20.1982 27.2114 19.8278 26.3141 19.8328 25.1855C19.8278 24.2608 20.0739 23.4529 20.5711 22.7619C21.0732 22.0708 21.7618 21.5314 22.6368 21.1436C23.5118 20.7558 24.5061 20.5619 25.6197 20.5619C26.7532 20.5619 27.7426 20.7558 28.5878 21.1436C29.4379 21.5314 30.0991 22.0708 30.5714 22.7619C31.0437 23.4529 31.2873 24.2533 31.3023 25.1631H28.2074ZM41.6126 40.3389V34.2089H41.5157C41.3665 34.5271 41.1552 34.8428 40.8818 35.156C40.6133 35.4643 40.2628 35.7203 39.8303 35.9241C39.4027 36.128 38.8807 36.2299 38.2642 36.2299C37.3942 36.2299 36.6062 36.0062 35.9003 35.5587C35.1993 35.1063 34.6424 34.4426 34.2298 33.5676C33.8221 32.6876 33.6183 31.6088 33.6183 30.3311C33.6183 29.0186 33.8296 27.9273 34.2522 27.0573C34.6748 26.1823 35.2365 25.5285 35.9375 25.096C36.6435 24.6585 37.4166 24.4398 38.2568 24.4398C38.8981 24.4398 39.4326 24.5491 39.8601 24.7679C40.2927 24.9817 40.6407 25.2501 40.9042 25.5733C41.1726 25.8915 41.3765 26.2047 41.5157 26.5129H41.6499V24.5889H44.782V40.3389H41.6126ZM39.271 33.7018C39.7831 33.7018 40.2156 33.5626 40.5686 33.2842C40.9265 33.0008 41.2 32.6056 41.3889 32.0985C41.5828 31.5914 41.6797 30.9973 41.6797 30.3162C41.6797 29.6351 41.5853 29.0435 41.3963 28.5413C41.2074 28.0392 40.934 27.6514 40.576 27.378C40.2181 27.1045 39.7831 26.9678 39.271 26.9678C38.749 26.9678 38.309 27.1095 37.951 27.3929C37.5931 27.6763 37.3221 28.069 37.1382 28.5712C36.9542 29.0733 36.8623 29.655 36.8623 30.3162C36.8623 30.9824 36.9542 31.5715 37.1382 32.0836C37.3271 32.5907 37.598 32.9884 37.951 33.2768C38.309 33.5601 38.749 33.7018 39.271 33.7018ZM55.0979 31.1663V24.5889H58.2748V36.0435H55.2247V33.9628H55.1054C54.8469 34.634 54.4168 35.1734 53.8153 35.5811C53.2187 35.9888 52.4904 36.1926 51.6303 36.1926C50.8646 36.1926 50.191 36.0186 49.6093 35.6706C49.0276 35.3226 48.5727 34.8279 48.2446 34.1866C47.9215 33.5452 47.7574 32.7771 47.7524 31.8822V24.5889H50.9293V31.3155C50.9342 31.9916 51.1157 32.5261 51.4737 32.9188C51.8316 33.3116 52.3114 33.5079 52.9129 33.5079C53.2957 33.5079 53.6537 33.4209 53.9868 33.2469C54.3199 33.068 54.5884 32.8045 54.7922 32.4565C55.001 32.1084 55.1029 31.6784 55.0979 31.1663ZM64.5022 36.2597C63.7714 36.2597 63.1201 36.1329 62.5484 35.8794C61.9767 35.6209 61.5243 35.2405 61.1912 34.7384C60.863 34.2313 60.699 33.5999 60.699 32.8442C60.699 32.2079 60.8158 31.6734 61.0495 31.2409C61.2831 30.8084 61.6013 30.4604 62.004 30.1969C62.4067 29.9334 62.8641 29.7345 63.3762 29.6003C63.8932 29.466 64.4351 29.3716 65.0019 29.3169C65.6681 29.2473 66.205 29.1827 66.6127 29.123C67.0203 29.0584 67.3162 28.9639 67.5001 28.8396C67.6841 28.7153 67.776 28.5314 67.776 28.2878V28.243C67.776 27.7707 67.6269 27.4053 67.3286 27.1468C67.0353 26.8883 66.6176 26.759 66.0757 26.759C65.504 26.759 65.0491 26.8858 64.711 27.1393C64.373 27.3879 64.1493 27.7011 64.0399 28.079L61.1017 27.8403C61.2508 27.1443 61.5441 26.5427 61.9816 26.0356C62.4191 25.5236 62.9834 25.1308 63.6745 24.8574C64.3705 24.579 65.1759 24.4398 66.0907 24.4398C66.727 24.4398 67.336 24.5143 67.9177 24.6635C68.5044 24.8126 69.0239 25.0438 69.4763 25.357C69.9337 25.6702 70.2941 26.0729 70.5576 26.5651C70.8211 27.0523 70.9529 27.6365 70.9529 28.3176V36.0435H67.9401V34.455H67.8506C67.6667 34.813 67.4206 35.1287 67.1123 35.4021C66.8041 35.6706 66.4337 35.8819 66.0012 36.036C65.5686 36.1851 65.069 36.2597 64.5022 36.2597ZM65.412 34.0672C65.8794 34.0672 66.292 33.9753 66.65 33.7913C67.0079 33.6024 67.2888 33.3489 67.4926 33.0307C67.6965 32.7125 67.7984 32.3521 67.7984 31.9494V30.7338C67.699 30.7984 67.5622 30.8581 67.3882 30.9128C67.2192 30.9625 67.0278 31.0097 66.814 31.0545C66.6002 31.0942 66.3865 31.1315 66.1727 31.1663C65.9589 31.1962 65.765 31.2235 65.591 31.2484C65.2181 31.303 64.8925 31.39 64.6141 31.5094C64.3357 31.6287 64.1194 31.7903 63.9653 31.9941C63.8112 32.193 63.7341 32.4415 63.7341 32.7398C63.7341 33.1724 63.8907 33.503 64.2039 33.7317C64.5221 33.9554 64.9248 34.0672 65.412 34.0672ZM83.3681 27.8552L80.4597 28.0342C80.41 27.7856 80.3031 27.5619 80.139 27.3631C79.975 27.1592 79.7587 26.9976 79.4902 26.8783C79.2267 26.754 78.9111 26.6919 78.5432 26.6919C78.051 26.6919 77.6358 26.7963 77.2978 27.0051C76.9597 27.2089 76.7907 27.4824 76.7907 27.8254C76.7907 28.0989 76.9 28.33 77.1188 28.519C77.3375 28.7079 77.7129 28.8595 78.2449 28.9739L80.318 29.3915C81.4316 29.6202 82.2619 29.9881 82.8088 30.4952C83.3557 31.0023 83.6291 31.6685 83.6291 32.4937C83.6291 33.2445 83.4079 33.9032 82.9654 34.4699C82.5279 35.0367 81.9263 35.4792 81.1607 35.7974C80.4 36.1106 79.5226 36.2672 78.5282 36.2672C77.0119 36.2672 75.8038 35.9515 74.9039 35.3201C74.0091 34.6837 73.4846 33.8187 73.3304 32.7249L76.4551 32.5609C76.5495 33.0232 76.7782 33.3762 77.1412 33.6198C77.5041 33.8584 77.9689 33.9778 78.5357 33.9778C79.0925 33.9778 79.54 33.8709 79.878 33.6571C80.2211 33.4383 80.3951 33.1574 80.4 32.8144C80.3951 32.5261 80.2733 32.2899 80.0346 32.106C79.796 31.917 79.4281 31.7729 78.9309 31.6734L76.9473 31.2782C75.8287 31.0545 74.9959 30.6667 74.449 30.1148C73.9071 29.563 73.6362 28.8595 73.6362 28.0044C73.6362 27.2686 73.8351 26.6347 74.2328 26.1028C74.6355 25.5708 75.1998 25.1606 75.9256 24.8723C76.6564 24.5839 77.5115 24.4398 78.491 24.4398C79.9377 24.4398 81.0762 24.7455 81.9064 25.357C82.7417 25.9685 83.2289 26.8013 83.3681 27.8552ZM89.2264 29.4213V36.0435H86.0495V20.7707H89.1369V26.6099H89.2711C89.5296 25.9337 89.9473 25.4043 90.524 25.0214C91.1007 24.6337 91.824 24.4398 92.6941 24.4398C93.4895 24.4398 94.1831 24.6138 94.7747 24.9618C95.3713 25.3048 95.8336 25.7995 96.1617 26.4458C96.4948 27.0871 96.6589 27.8552 96.6539 28.7501V36.0435H93.4771V29.3169C93.4821 28.6109 93.3031 28.0616 92.9402 27.6688C92.5822 27.2761 92.0801 27.0797 91.4338 27.0797C91.0012 27.0797 90.6184 27.1717 90.2853 27.3556C89.9572 27.5396 89.6987 27.808 89.5098 28.161C89.3258 28.509 89.2314 28.9291 89.2264 29.4213ZM118.39 26.1177H115.123C115.064 25.6951 114.942 25.3197 114.758 24.9916C114.574 24.6585 114.338 24.3751 114.049 24.1415C113.761 23.9078 113.428 23.7288 113.05 23.6045C112.677 23.4802 112.272 23.4181 111.834 23.4181C111.044 23.4181 110.355 23.6145 109.769 24.0072C109.182 24.395 108.727 24.9618 108.404 25.7075C108.081 26.4483 107.919 27.3481 107.919 28.4071C107.919 29.4959 108.081 30.4106 108.404 31.1514C108.732 31.8922 109.19 32.4515 109.776 32.8293C110.363 33.2072 111.042 33.3961 111.812 33.3961C112.245 33.3961 112.645 33.3389 113.013 33.2246C113.386 33.1102 113.716 32.9437 114.005 32.7249C114.293 32.5012 114.532 32.2302 114.721 31.9121C114.914 31.5939 115.049 31.231 115.123 30.8233L118.39 30.8382C118.305 31.5392 118.094 32.2153 117.756 32.8666C117.423 33.5129 116.973 34.0921 116.406 34.6042C115.844 35.1113 115.173 35.514 114.392 35.8123C113.617 36.1056 112.739 36.2523 111.76 36.2523C110.398 36.2523 109.18 35.944 108.106 35.3275C107.037 34.7111 106.192 33.8187 105.57 32.6503C104.954 31.482 104.646 30.0676 104.646 28.4071C104.646 26.7416 104.959 25.3247 105.585 24.1564C106.212 22.9881 107.062 22.0981 108.136 21.4866C109.209 20.8702 110.418 20.5619 111.76 20.5619C112.645 20.5619 113.465 20.6862 114.221 20.9348C114.982 21.1834 115.655 21.5463 116.242 22.0236C116.828 22.4959 117.306 23.0751 117.674 23.7611C118.046 24.4472 118.285 25.2327 118.39 26.1177ZM124.242 20.7707V36.0435H121.065V20.7707H124.242ZM134.553 31.1663V24.5889H137.729V36.0435H134.679V33.9628H134.56C134.302 34.634 133.871 35.1734 133.27 35.5811C132.673 35.9888 131.945 36.1926 131.085 36.1926C130.319 36.1926 129.646 36.0186 129.064 35.6706C128.482 35.3226 128.027 34.8279 127.699 34.1866C127.376 33.5452 127.212 32.7771 127.207 31.8822V24.5889H130.384V31.3155C130.389 31.9916 130.57 32.5261 130.928 32.9188C131.286 33.3116 131.766 33.5079 132.368 33.5079C132.75 33.5079 133.108 33.4209 133.441 33.2469C133.775 33.068 134.043 32.8045 134.247 32.4565C134.456 32.1084 134.558 31.6784 134.553 31.1663ZM140.75 36.0435V20.7707H143.927V26.5129H144.024C144.163 26.2047 144.365 25.8915 144.628 25.5733C144.897 25.2501 145.245 24.9817 145.672 24.7679C146.105 24.5491 146.642 24.4398 147.283 24.4398C148.118 24.4398 148.889 24.6585 149.595 25.096C150.301 25.5285 150.865 26.1823 151.287 27.0573C151.71 27.9273 151.921 29.0186 151.921 30.3311C151.921 31.6088 151.715 32.6876 151.302 33.5676C150.895 34.4426 150.338 35.1063 149.632 35.5587C148.931 36.0062 148.145 36.2299 147.275 36.2299C146.659 36.2299 146.134 36.128 145.702 35.9241C145.274 35.7203 144.924 35.4643 144.65 35.156C144.377 34.8428 144.168 34.5271 144.024 34.2089H143.882V36.0435H140.75ZM143.86 30.3162C143.86 30.9973 143.954 31.5914 144.143 32.0985C144.332 32.6056 144.606 33.0008 144.964 33.2842C145.322 33.5626 145.757 33.7018 146.269 33.7018C146.786 33.7018 147.223 33.5601 147.581 33.2768C147.939 32.9884 148.21 32.5907 148.394 32.0836C148.583 31.5715 148.677 30.9824 148.677 30.3162C148.677 29.655 148.585 29.0733 148.401 28.5712C148.218 28.069 147.947 27.6763 147.589 27.3929C147.231 27.1095 146.791 26.9678 146.269 26.9678C145.752 26.9678 145.314 27.1045 144.956 27.378C144.603 27.6514 144.332 28.0392 144.143 28.5413C143.954 29.0435 143.86 29.6351 143.86 30.3162Z" fill="white"/>
</svg>
