<svg width="170" height="197" viewBox="0 0 170 197" fill="none" xmlns="http://www.w3.org/2000/svg">
<path d="M167 1.18359H3C1.89543 1.18359 1 2.07902 1 3.18359V194.184C1 195.288 1.89543 196.184 3 196.184H167C168.105 196.184 169 195.288 169 194.184V3.18359C169 2.07902 168.105 1.18359 167 1.18359Z" fill="white" stroke="#666666" stroke-miterlimit="10"/>
<path d="M169 1.18359H1V62.1836H169V1.18359Z" fill="#666666"/>
<path d="M17.6862 40V26.1818H23.1379C24.1815 26.1818 25.0721 26.3685 25.8098 26.7418C26.552 27.1107 27.1165 27.6347 27.5033 28.3139C27.8946 28.9886 28.0903 29.7826 28.0903 30.6957C28.0903 31.6133 27.8924 32.4027 27.4966 33.0639C27.1007 33.7206 26.5272 34.2244 25.776 34.5753C25.0294 34.9261 24.1252 35.1016 23.0637 35.1016H19.4135V32.7536H22.5914C23.1491 32.7536 23.6124 32.6771 23.9813 32.5241C24.3501 32.3712 24.6245 32.1418 24.8044 31.8359C24.9889 31.5301 25.0811 31.15 25.0811 30.6957C25.0811 30.2369 24.9889 29.85 24.8044 29.5352C24.6245 29.2203 24.3479 28.9819 23.9745 28.82C23.6057 28.6535 23.1401 28.5703 22.5779 28.5703H20.6077V40H17.6862ZM25.1486 33.7116L28.5829 40H25.3577L21.9976 33.7116H25.1486ZM34.9965 40.2024C33.9484 40.2024 33.0421 39.9798 32.2774 39.5344C31.5172 39.0846 30.9302 38.4594 30.5164 37.6587C30.1026 36.8536 29.8957 35.9202 29.8957 34.8587C29.8957 33.7881 30.1026 32.8525 30.5164 32.0518C30.9302 31.2467 31.5172 30.6214 32.2774 30.1761C33.0421 29.7263 33.9484 29.5014 34.9965 29.5014C36.0446 29.5014 36.9487 29.7263 37.7089 30.1761C38.4735 30.6214 39.0628 31.2467 39.4766 32.0518C39.8904 32.8525 40.0974 33.7881 40.0974 34.8587C40.0974 35.9202 39.8904 36.8536 39.4766 37.6587C39.0628 38.4594 38.4735 39.0846 37.7089 39.5344C36.9487 39.9798 36.0446 40.2024 34.9965 40.2024ZM35.01 37.9759C35.4868 37.9759 35.8849 37.8409 36.2042 37.571C36.5236 37.2966 36.7643 36.9233 36.9262 36.451C37.0926 35.9787 37.1758 35.4412 37.1758 34.8384C37.1758 34.2357 37.0926 33.6982 36.9262 33.2259C36.7643 32.7536 36.5236 32.3802 36.2042 32.1058C35.8849 31.8314 35.4868 31.6942 35.01 31.6942C34.5287 31.6942 34.1239 31.8314 33.7955 32.1058C33.4716 32.3802 33.2265 32.7536 33.0601 33.2259C32.8981 33.6982 32.8172 34.2357 32.8172 34.8384C32.8172 35.4412 32.8981 35.9787 33.0601 36.451C33.2265 36.9233 33.4716 37.2966 33.7955 37.571C34.1239 37.8409 34.5287 37.9759 35.01 37.9759ZM44.1309 40L41.3106 29.6364H44.2187L45.8245 36.5994H45.9189L47.5922 29.6364H50.4463L52.1466 36.5589H52.2343L53.8131 29.6364H56.7144L53.9008 40H50.8579L49.0766 33.4822H48.9484L47.1672 40H44.1309ZM58.6277 40V29.6364H61.502V40H58.6277ZM60.0716 28.3004C59.6443 28.3004 59.2777 28.1587 58.9718 27.8754C58.6704 27.5875 58.5197 27.2434 58.5197 26.843C58.5197 26.4472 58.6704 26.1076 58.9718 25.8242C59.2777 25.5363 59.6443 25.3924 60.0716 25.3924C60.4989 25.3924 60.8632 25.5363 61.1646 25.8242C61.4705 26.1076 61.6234 26.4472 61.6234 26.843C61.6234 27.2434 61.4705 27.5875 61.1646 27.8754C60.8632 28.1587 60.4989 28.3004 60.0716 28.3004ZM67.0587 34.0085V40H64.1844V29.6364H66.9238V31.4648H67.0452C67.2746 30.8621 67.6592 30.3853 68.199 30.0344C68.7388 29.6791 69.3932 29.5014 70.1624 29.5014C70.8821 29.5014 71.5096 29.6589 72.0449 29.9737C72.5802 30.2886 72.9962 30.7384 73.2931 31.3232C73.59 31.9034 73.7384 32.5961 73.7384 33.4013V40H70.8641V33.9141C70.8686 33.2798 70.7067 32.785 70.3783 32.4297C70.05 32.0698 69.5979 31.8899 69.0222 31.8899C68.6353 31.8899 68.2935 31.9731 67.9966 32.1396C67.7042 32.306 67.4748 32.5489 67.3084 32.8683C67.1464 33.1831 67.0632 33.5632 67.0587 34.0085ZM81.0528 44.1023C80.1217 44.1023 79.3233 43.9741 78.6576 43.7177C77.9964 43.4658 77.4701 43.1217 77.0787 42.6854C76.6874 42.2491 76.4333 41.7588 76.3163 41.2145L78.9747 40.8569C79.0557 41.0638 79.1839 41.2572 79.3593 41.4371C79.5347 41.6171 79.7664 41.761 80.0542 41.869C80.3466 41.9814 80.702 42.0376 81.1203 42.0376C81.7455 42.0376 82.2606 41.8847 82.6654 41.5788C83.0747 41.2775 83.2794 40.7714 83.2794 40.0607V38.1648H83.1579C83.032 38.4527 82.8431 38.7248 82.5912 38.9812C82.3393 39.2376 82.0154 39.4467 81.6196 39.6087C81.2237 39.7706 80.7514 39.8516 80.2027 39.8516C79.4245 39.8516 78.716 39.6716 78.0773 39.3118C77.4431 38.9474 76.937 38.3919 76.5592 37.6452C76.1859 36.8941 75.9992 35.945 75.9992 34.7979C75.9992 33.6239 76.1904 32.6433 76.5727 31.8562C76.955 31.069 77.4633 30.4798 78.0976 30.0884C78.7363 29.6971 79.4357 29.5014 80.1959 29.5014C80.7762 29.5014 81.262 29.6004 81.6533 29.7983C82.0446 29.9917 82.3595 30.2346 82.5979 30.527C82.8408 30.8149 83.0275 31.0982 83.1579 31.3771H83.2659V29.6364H86.1199V40.1012C86.1199 40.9828 85.904 41.7205 85.4722 42.3143C85.0404 42.908 84.4421 43.3533 83.6775 43.6502C82.9173 43.9516 82.0424 44.1023 81.0528 44.1023ZM81.1135 37.6925C81.5768 37.6925 81.9682 37.5778 82.2875 37.3484C82.6114 37.1145 82.8588 36.7816 83.0297 36.3498C83.2052 35.9135 83.2929 35.3917 83.2929 34.7844C83.2929 34.1772 83.2074 33.6509 83.0365 33.2056C82.8656 32.7558 82.6182 32.4072 82.2943 32.1598C81.9704 31.9124 81.5768 31.7887 81.1135 31.7887C80.6412 31.7887 80.2432 31.9169 79.9193 32.1733C79.5954 32.4252 79.3503 32.776 79.1839 33.2259C79.0174 33.6757 78.9342 34.1952 78.9342 34.7844C78.9342 35.3827 79.0174 35.9 79.1839 36.3363C79.3548 36.7681 79.5999 37.1032 79.9193 37.3416C80.2432 37.5755 80.6412 37.6925 81.1135 37.6925ZM97.351 40V42.1793H88.2761V40H97.351ZM110.357 31.0195H107.401C107.347 30.6372 107.237 30.2976 107.071 30.0007C106.904 29.6993 106.691 29.4429 106.43 29.2315C106.169 29.0201 105.868 28.8582 105.526 28.7457C105.188 28.6333 104.822 28.5771 104.426 28.5771C103.711 28.5771 103.088 28.7547 102.557 29.1101C102.026 29.4609 101.615 29.9737 101.322 30.6484C101.03 31.3187 100.884 32.1328 100.884 33.0909C100.884 34.076 101.03 34.9036 101.322 35.5739C101.619 36.2441 102.033 36.7501 102.564 37.092C103.094 37.4338 103.708 37.6048 104.406 37.6048C104.797 37.6048 105.159 37.553 105.492 37.4496C105.829 37.3461 106.128 37.1954 106.389 36.9975C106.65 36.7951 106.866 36.55 107.037 36.2621C107.212 35.9742 107.334 35.6458 107.401 35.277L110.357 35.2905C110.28 35.9247 110.089 36.5365 109.783 37.1257C109.482 37.7105 109.075 38.2345 108.562 38.6978C108.054 39.1566 107.446 39.521 106.74 39.7908C106.038 40.0562 105.245 40.1889 104.358 40.1889C103.126 40.1889 102.024 39.91 101.052 39.3523C100.085 38.7945 99.3206 37.9871 98.7583 36.93C98.2005 35.873 97.9217 34.5933 97.9217 33.0909C97.9217 31.584 98.205 30.3021 98.7718 29.245C99.3386 28.188 100.108 27.3828 101.079 26.8295C102.051 26.2718 103.144 25.9929 104.358 25.9929C105.159 25.9929 105.901 26.1053 106.585 26.3303C107.273 26.5552 107.883 26.8835 108.413 27.3153C108.944 27.7427 109.376 28.2667 109.709 28.8874C110.046 29.5082 110.262 30.2189 110.357 31.0195ZM115.652 26.1818V40H112.778V26.1818H115.652ZM124.98 35.5874V29.6364H127.855V40H125.095V38.1175H124.987C124.753 38.7248 124.364 39.2128 123.82 39.5817C123.28 39.9505 122.621 40.1349 121.843 40.1349C121.15 40.1349 120.541 39.9775 120.014 39.6626C119.488 39.3478 119.077 38.9002 118.78 38.32C118.487 37.7397 118.339 37.0447 118.334 36.2351V29.6364H121.209V35.7223C121.213 36.334 121.377 36.8176 121.701 37.1729C122.025 37.5283 122.459 37.706 123.003 37.706C123.35 37.706 123.674 37.6272 123.975 37.4698C124.276 37.3079 124.519 37.0695 124.704 36.7546C124.893 36.4397 124.985 36.0507 124.98 35.5874ZM130.588 40V26.1818H133.462V31.3771H133.55C133.676 31.0982 133.858 30.8149 134.096 30.527C134.339 30.2346 134.654 29.9917 135.041 29.7983C135.432 29.6004 135.918 29.5014 136.498 29.5014C137.254 29.5014 137.951 29.6993 138.59 30.0952C139.229 30.4865 139.739 31.078 140.121 31.8697C140.504 32.6568 140.695 33.6442 140.695 34.8317C140.695 35.9877 140.508 36.9638 140.135 37.7599C139.766 38.5516 139.262 39.1521 138.624 39.5614C137.989 39.9663 137.279 40.1687 136.492 40.1687C135.934 40.1687 135.459 40.0765 135.068 39.892C134.681 39.7076 134.364 39.476 134.117 39.1971C133.869 38.9137 133.68 38.6281 133.55 38.3402H133.422V40H130.588ZM133.401 34.8182C133.401 35.4344 133.487 35.9719 133.658 36.4308C133.829 36.8896 134.076 37.2472 134.4 37.5036C134.724 37.7554 135.117 37.8814 135.581 37.8814C136.048 37.8814 136.444 37.7532 136.768 37.4968C137.092 37.2359 137.337 36.8761 137.504 36.4173C137.675 35.954 137.76 35.4209 137.76 34.8182C137.76 34.2199 137.677 33.6937 137.51 33.2393C137.344 32.785 137.099 32.4297 136.775 32.1733C136.451 31.9169 136.053 31.7887 135.581 31.7887C135.113 31.7887 134.717 31.9124 134.393 32.1598C134.074 32.4072 133.829 32.758 133.658 33.2124C133.487 33.6667 133.401 34.2019 133.401 34.8182ZM151.616 32.5916L148.984 32.7536C148.939 32.5286 148.843 32.3262 148.694 32.1463C148.546 31.9619 148.35 31.8157 148.107 31.7077C147.869 31.5953 147.583 31.5391 147.25 31.5391C146.805 31.5391 146.429 31.6335 146.124 31.8224C145.818 32.0069 145.665 32.2543 145.665 32.5646C145.665 32.812 145.764 33.0212 145.962 33.1921C146.16 33.363 146.499 33.5002 146.98 33.6037L148.856 33.9815C149.864 34.1884 150.615 34.5213 151.11 34.9801C151.605 35.4389 151.852 36.0417 151.852 36.7884C151.852 37.4676 151.652 38.0636 151.251 38.5763C150.856 39.0891 150.311 39.4895 149.619 39.7773C148.93 40.0607 148.136 40.2024 147.237 40.2024C145.865 40.2024 144.772 39.9168 143.958 39.3455C143.148 38.7698 142.674 37.9871 142.534 36.9975L145.361 36.8491C145.447 37.2674 145.654 37.5868 145.982 37.8072C146.31 38.0231 146.731 38.131 147.244 38.131C147.747 38.131 148.152 38.0343 148.458 37.8409C148.768 37.643 148.926 37.3888 148.93 37.0785C148.926 36.8176 148.816 36.6039 148.6 36.4375C148.384 36.2666 148.051 36.1361 147.601 36.0462L145.806 35.6886C144.794 35.4862 144.041 35.1353 143.546 34.636C143.056 34.1367 142.811 33.5002 142.811 32.7266C142.811 32.0608 142.991 31.4873 143.35 31.006C143.715 30.5247 144.225 30.1536 144.882 29.8928C145.543 29.6319 146.317 29.5014 147.203 29.5014C148.512 29.5014 149.542 29.7781 150.293 30.3313C151.049 30.8846 151.49 31.638 151.616 32.5916Z" fill="white"/>
</svg>
