<svg width="171" height="198" viewBox="0 0 171 198" fill="none" xmlns="http://www.w3.org/2000/svg">
<path d="M168 1H3C1.89543 1 1 1.89543 1 3V195C1 196.105 1.89543 197 3 197H168C169.105 197 170 196.105 170 195V3C170 1.89543 169.105 1 168 1Z" fill="white" stroke="#666666" stroke-miterlimit="10"/>
<path d="M169 1H2C1.44772 1 1 1.44771 1 2V62C1 62.5523 1.44771 63 2 63H169C169.552 63 170 62.5523 170 62V2C170 1.44772 169.552 1 169 1Z" fill="#666666"/>
<path d="M33.0694 24.9031H30V22.2656H39.0746V24.9031H36.0053V40.7262H33.0694V24.9031Z" fill="white"/>
<path d="M40.4893 22.2656H48.4963V24.9031H43.4252V29.7823H47.4554V32.4183H43.4266V38.0902H48.4977V40.7262H40.4907V22.2656H40.4893Z" fill="white"/>
<path d="M50.1778 22.2656H53.861L56.7169 33.3164H56.7703V22.2656H59.3859V40.7276H56.3699L52.8468 27.2504H52.7934V40.7276H50.1778V22.2656Z" fill="white"/>
<path d="M61.5745 22.2656H65.2578L68.1136 33.3164H68.167V22.2656H70.7826V40.7276H67.7666L64.2435 27.2504H64.1902V40.7276H61.5745V22.2656Z" fill="white"/>
<path d="M72.9711 22.2656H75.907V40.7276H72.9711V22.2656Z" fill="white"/>
<path d="M78.6828 39.7901C77.9523 38.9906 77.5885 37.844 77.5885 36.349V35.2926H80.3643V36.5586C80.3643 37.7538 80.8714 38.3521 81.8856 38.3521C82.3829 38.3521 82.7622 38.2077 83.0207 37.9176C83.2777 37.6275 83.407 37.1569 83.407 36.5059C83.407 35.7327 83.2286 35.0511 82.8732 34.4612C82.5163 33.8726 81.8589 33.1646 80.8981 32.3387C79.6886 31.2837 78.8429 30.3301 78.3625 29.4764C77.8821 28.6241 77.6419 27.6608 77.6419 26.5877C77.6419 25.1288 78.0156 24.0003 78.7629 23.1993C79.5102 22.3998 80.5961 22 82.0191 22C83.4238 22 84.4886 22.3998 85.2092 23.1993C85.9299 24.0003 86.2909 25.1469 86.2909 26.6419V27.4067H83.5151V26.4573C83.5151 25.8229 83.3901 25.362 83.1415 25.0719C82.8914 24.7818 82.5276 24.6374 82.0472 24.6374C81.0681 24.6374 80.5792 25.2274 80.5792 26.4031C80.5792 27.0722 80.7618 27.6968 81.1271 28.2771C81.4909 28.8573 82.1539 29.5597 83.1162 30.387C84.3439 31.442 85.1896 32.4012 85.6517 33.2618C86.1153 34.1225 86.3457 35.1344 86.3457 36.2949C86.3457 37.8079 85.9678 38.9684 85.2106 39.7763C84.4549 40.5869 83.3564 40.9909 81.9151 40.9909C80.4879 40.9909 79.4119 40.5897 78.6828 39.7901Z" fill="white"/>
<path d="M93.215 39.8036C92.4761 39.0124 92.1066 37.8963 92.1066 36.4541V26.5374C92.1066 25.0951 92.4761 23.9777 93.215 23.1878C93.9525 22.3966 95.0257 22.001 96.4318 22.001C97.8366 22.001 98.9098 22.3966 99.6487 23.1878C100.386 23.9777 100.756 25.0951 100.756 26.5374V28.489H97.9799V26.3527C97.9799 25.2089 97.4896 24.6384 96.5119 24.6384C95.5342 24.6384 95.0439 25.2089 95.0439 26.3527V36.6651C95.0439 37.7908 95.5342 38.353 96.5119 38.353C97.491 38.353 97.9799 37.7908 97.9799 36.6651V33.843H100.756V36.4541C100.756 37.8963 100.386 39.0124 99.6487 39.8036C98.9098 40.5948 97.838 40.9905 96.4318 40.9905C95.0243 40.9905 93.9525 40.5948 93.215 39.8036Z" fill="white"/>
<path d="M102.516 22.2656H105.452V38.0902H110.283V40.7262H102.516V22.2656Z" fill="white"/>
<path d="M112.711 39.7906C111.964 38.9911 111.59 37.8445 111.59 36.3495V22.2656H114.526V36.5605C114.526 37.1935 114.655 37.6515 114.913 37.9306C115.171 38.2123 115.54 38.3539 116.021 38.3539C116.501 38.3539 116.871 38.2123 117.129 37.9306C117.388 37.6515 117.516 37.1935 117.516 36.5605V22.2656H120.345V36.3495C120.345 37.8431 119.971 38.9897 119.224 39.7906C118.476 40.5902 117.391 40.9914 115.968 40.9914C114.545 40.9914 113.459 40.5902 112.711 39.7906Z" fill="white"/>
<path d="M122.425 22.2656H126.856C128.367 22.2656 129.471 22.6127 130.165 23.3067C130.859 24.0022 131.206 25.071 131.206 26.5119V27.2504C131.206 28.2012 131.05 28.973 130.738 29.5713C130.427 30.1696 129.952 30.5999 129.311 30.8636V30.9178C130.769 31.4092 131.5 32.6932 131.5 34.767V36.3509C131.5 37.7737 131.122 38.8606 130.366 39.6074C129.609 40.3556 128.502 40.729 127.042 40.729H122.425V22.2656ZM126.51 29.7823C127.097 29.7823 127.537 29.6324 127.831 29.3339C128.124 29.0355 128.27 28.5344 128.27 27.8306V26.802C128.27 26.1357 128.151 25.6512 127.911 25.3514C127.67 25.053 127.293 24.9044 126.776 24.9044H125.361V29.7837H126.51V29.7823ZM127.042 38.0902C127.558 38.0902 127.942 37.9528 128.19 37.6807C128.439 37.4086 128.564 36.9381 128.564 36.269V34.6601C128.564 33.8176 128.418 33.2318 128.124 32.9056C127.831 32.5794 127.346 32.4169 126.669 32.4169H125.361V38.0888H127.042V38.0902Z" fill="white"/>
<path d="M133.795 39.7901C133.065 38.9906 132.701 37.844 132.701 36.349V35.2926H135.477V36.5586C135.477 37.7538 135.984 38.3521 136.998 38.3521C137.495 38.3521 137.874 38.2077 138.133 37.9176C138.39 37.6275 138.519 37.1569 138.519 36.5059C138.519 35.7327 138.341 35.0511 137.985 34.4612C137.629 33.8726 136.971 33.1646 136.01 32.3387C134.801 31.2837 133.955 30.3301 133.475 29.4764C132.994 28.6241 132.754 27.6608 132.754 26.5877C132.754 25.1288 133.128 24.0003 133.875 23.1993C134.622 22.3998 135.708 22 137.131 22C138.536 22 139.601 22.3998 140.322 23.1993C141.042 24.0003 141.403 25.1469 141.403 26.6419V27.4067H138.627V26.4573C138.627 25.8229 138.502 25.362 138.254 25.0719C138.004 24.7818 137.64 24.6374 137.159 24.6374C136.18 24.6374 135.692 25.2274 135.692 26.4031C135.692 27.0722 135.874 27.6968 136.239 28.2771C136.603 28.8573 137.266 29.5597 138.228 30.387C139.456 31.442 140.302 32.4012 140.764 33.2618C141.228 34.1225 141.458 35.1344 141.458 36.2949C141.458 37.8079 141.08 38.9684 140.323 39.7763C139.567 40.5869 138.469 40.9909 137.027 40.9909C135.602 40.9909 134.526 40.5897 133.795 39.7901Z" fill="white"/>
</svg>
