<svg width="170" height="198" viewBox="0 0 170 198" fill="none" xmlns="http://www.w3.org/2000/svg">
<rect x="0.561584" y="0.5" width="168.815" height="196.574" rx="1.5" fill="white" stroke="#666666"/>
<path d="M1 2.18359C1 1.63131 1.44772 1.18359 2 1.18359H168C168.552 1.18359 169 1.63131 169 2.18359V62.1836H1V2.18359Z" fill="#666666"/>
<path d="M44.402 30H41.2714L46.0416 16.1818H49.8065L54.57 30H51.4393L47.978 19.3395H47.8701L44.402 30ZM44.2064 24.5685H51.6013V26.8491H44.2064V24.5685ZM61.4222 19.6364V21.7955H55.1811V19.6364H61.4222ZM56.598 17.1534H59.4723V26.8153C59.4723 27.0807 59.5128 27.2876 59.5937 27.4361C59.6747 27.58 59.7872 27.6812 59.9311 27.7397C60.0795 27.7982 60.2505 27.8274 60.4439 27.8274C60.5788 27.8274 60.7138 27.8162 60.8487 27.7937C60.9837 27.7667 61.0871 27.7464 61.1591 27.733L61.6111 29.8718C61.4672 29.9168 61.2648 29.9685 61.0039 30.027C60.743 30.09 60.4259 30.1282 60.0525 30.1417C59.3598 30.1687 58.7526 30.0765 58.2308 29.8651C57.7135 29.6536 57.311 29.3253 57.0231 28.88C56.7352 28.4347 56.5935 27.8724 56.598 27.1932V17.1534ZM66.7715 24.0085V30H63.8972V16.1818H66.6905V21.4648H66.812C67.0459 20.8531 67.4237 20.3741 67.9455 20.0277C68.4673 19.6768 69.1218 19.5014 69.9089 19.5014C70.6286 19.5014 71.2561 19.6589 71.7914 19.9737C72.3312 20.2841 72.7495 20.7317 73.0464 21.3164C73.3477 21.8967 73.4962 22.5916 73.4917 23.4013V30H70.6174V23.9141C70.6219 23.2753 70.46 22.7783 70.1316 22.4229C69.8077 22.0676 69.3534 21.8899 68.7687 21.8899C68.3773 21.8899 68.031 21.9731 67.7296 22.1396C67.4327 22.306 67.1988 22.5489 67.0279 22.8683C66.8615 23.1831 66.776 23.5632 66.7715 24.0085ZM79.0079 16.1818V30H76.1337V16.1818H79.0079ZM86.4134 30.2024C85.3474 30.2024 84.4298 29.9865 83.6606 29.5547C82.8959 29.1184 82.3067 28.5021 81.8928 27.706C81.479 26.9053 81.2721 25.9585 81.2721 24.8654C81.2721 23.7994 81.479 22.8638 81.8928 22.0586C82.3067 21.2534 82.8892 20.6259 83.6403 20.1761C84.396 19.7263 85.2822 19.5014 86.2987 19.5014C86.9824 19.5014 87.6189 19.6116 88.2082 19.832C88.8019 20.0479 89.3192 20.3741 89.76 20.8104C90.2053 21.2467 90.5517 21.7955 90.7991 22.4567C91.0465 23.1134 91.1702 23.8826 91.1702 24.7642V25.5536H82.4191V23.7724H88.4646C88.4646 23.3585 88.3746 22.992 88.1947 22.6726C88.0148 22.3532 87.7651 22.1036 87.4457 21.9237C87.1309 21.7392 86.7643 21.647 86.346 21.647C85.9096 21.647 85.5228 21.7482 85.1854 21.9506C84.8526 22.1486 84.5917 22.4162 84.4028 22.7536C84.2139 23.0864 84.1171 23.4575 84.1126 23.8668V25.5604C84.1126 26.0732 84.2071 26.5162 84.396 26.8896C84.5894 27.2629 84.8616 27.5508 85.2124 27.7532C85.5633 27.9556 85.9794 28.0568 86.4607 28.0568C86.78 28.0568 87.0724 28.0118 87.3378 27.9219C87.6032 27.8319 87.8303 27.697 88.0192 27.517C88.2082 27.3371 88.3521 27.1167 88.4511 26.8558L91.1094 27.0312C90.9745 27.67 90.6979 28.2277 90.2795 28.7045C89.8657 29.1768 89.3304 29.5457 88.6737 29.8111C88.0215 30.072 87.2681 30.2024 86.4134 30.2024ZM98.9383 19.6364V21.7955H92.6972V19.6364H98.9383ZM94.1141 17.1534H96.9884V26.8153C96.9884 27.0807 97.0289 27.2876 97.1098 27.4361C97.1908 27.58 97.3033 27.6812 97.4472 27.7397C97.5956 27.7982 97.7666 27.8274 97.96 27.8274C98.0949 27.8274 98.2299 27.8162 98.3648 27.7937C98.4998 27.7667 98.6032 27.7464 98.6752 27.733L99.1272 29.8718C98.9833 29.9168 98.7809 29.9685 98.52 30.027C98.2591 30.09 97.942 30.1282 97.5686 30.1417C96.8759 30.1687 96.2687 30.0765 95.7469 29.8651C95.2296 29.6536 94.827 29.3253 94.5392 28.88C94.2513 28.4347 94.1096 27.8724 94.1141 27.1932V17.1534ZM101.191 30V19.6364H104.065V30H101.191ZM102.635 18.3004C102.207 18.3004 101.841 18.1587 101.535 17.8754C101.233 17.5875 101.083 17.2434 101.083 16.843C101.083 16.4472 101.233 16.1076 101.535 15.8242C101.841 15.5363 102.207 15.3924 102.635 15.3924C103.062 15.3924 103.426 15.5363 103.728 15.8242C104.033 16.1076 104.186 16.4472 104.186 16.843C104.186 17.2434 104.033 17.5875 103.728 17.8754C103.426 18.1587 103.062 18.3004 102.635 18.3004ZM111.43 30.2024C110.368 30.2024 109.455 29.9775 108.691 29.5277C107.93 29.0734 107.346 28.4437 106.936 27.6385C106.532 26.8333 106.329 25.9067 106.329 24.8587C106.329 23.7971 106.534 22.866 106.943 22.0653C107.357 21.2602 107.944 20.6327 108.704 20.1829C109.464 19.7286 110.368 19.5014 111.416 19.5014C112.321 19.5014 113.112 19.6656 113.791 19.994C114.471 20.3223 115.008 20.7834 115.404 21.3771C115.8 21.9709 116.018 22.6681 116.058 23.4688H113.346C113.27 22.9515 113.067 22.5354 112.739 22.2205C112.415 21.9012 111.99 21.7415 111.464 21.7415C111.018 21.7415 110.629 21.8629 110.296 22.1058C109.968 22.3442 109.712 22.6928 109.527 23.1516C109.343 23.6104 109.251 24.166 109.251 24.8182C109.251 25.4794 109.341 26.0417 109.52 26.505C109.705 26.9683 109.964 27.3214 110.296 27.5643C110.629 27.8072 111.018 27.9286 111.464 27.9286C111.792 27.9286 112.087 27.8612 112.348 27.7262C112.613 27.5913 112.831 27.3956 113.002 27.1392C113.177 26.8783 113.292 26.5657 113.346 26.2013H116.058C116.014 26.993 115.798 27.6902 115.411 28.293C115.028 28.8912 114.5 29.359 113.825 29.6964C113.15 30.0337 112.352 30.2024 111.43 30.2024ZM126.902 22.5916L124.27 22.7536C124.225 22.5286 124.129 22.3262 123.98 22.1463C123.832 21.9619 123.636 21.8157 123.393 21.7077C123.155 21.5953 122.869 21.5391 122.536 21.5391C122.091 21.5391 121.715 21.6335 121.409 21.8224C121.104 22.0069 120.951 22.2543 120.951 22.5646C120.951 22.812 121.05 23.0212 121.248 23.1921C121.445 23.363 121.785 23.5002 122.266 23.6037L124.142 23.9815C125.15 24.1884 125.901 24.5213 126.396 24.9801C126.89 25.4389 127.138 26.0417 127.138 26.7884C127.138 27.4676 126.938 28.0636 126.537 28.5763C126.141 29.0891 125.597 29.4895 124.904 29.7773C124.216 30.0607 123.422 30.2024 122.523 30.2024C121.151 30.2024 120.058 29.9168 119.244 29.3455C118.434 28.7698 117.959 27.9871 117.82 26.9975L120.647 26.8491C120.732 27.2674 120.939 27.5868 121.268 27.8072C121.596 28.0231 122.017 28.131 122.529 28.131C123.033 28.131 123.438 28.0343 123.744 27.8409C124.054 27.643 124.212 27.3888 124.216 27.0785C124.212 26.8176 124.102 26.6039 123.886 26.4375C123.67 26.2666 123.337 26.1361 122.887 26.0462L121.092 25.6886C120.08 25.4862 119.327 25.1353 118.832 24.636C118.342 24.1367 118.097 23.5002 118.097 22.7266C118.097 22.0608 118.277 21.4873 118.636 21.006C119.001 20.5247 119.511 20.1536 120.168 19.8928C120.829 19.6319 121.603 19.5014 122.489 19.5014C123.798 19.5014 124.828 19.7781 125.579 20.3313C126.335 20.8846 126.776 21.638 126.902 22.5916ZM70.1175 40.0195H67.1622C67.1083 39.6372 66.998 39.2976 66.8316 39.0007C66.6652 38.6993 66.4515 38.4429 66.1906 38.2315C65.9297 38.0201 65.6284 37.8582 65.2865 37.7457C64.9492 37.6333 64.5826 37.5771 64.1867 37.5771C63.4715 37.5771 62.8485 37.7547 62.3178 38.1101C61.787 38.4609 61.3754 38.9737 61.083 39.6484C60.7907 40.3187 60.6445 41.1328 60.6445 42.0909C60.6445 43.076 60.7907 43.9036 61.083 44.5739C61.3799 45.2441 61.7937 45.7501 62.3245 46.092C62.8553 46.4338 63.4693 46.6048 64.1665 46.6048C64.5578 46.6048 64.9199 46.553 65.2528 46.4496C65.5901 46.3461 65.8893 46.1954 66.1502 45.9975C66.411 45.7951 66.627 45.55 66.7979 45.2621C66.9733 44.9742 67.0948 44.6458 67.1622 44.277L70.1175 44.2905C70.041 44.9247 69.8498 45.5365 69.544 46.1257C69.2426 46.7105 68.8355 47.2345 68.3227 47.6978C67.8145 48.1566 67.2072 48.521 66.501 48.7908C65.7993 49.0562 65.0054 49.1889 64.1193 49.1889C62.8868 49.1889 61.7847 48.91 60.8132 48.3523C59.8461 47.7945 59.0814 46.9871 58.5191 45.93C57.9614 44.873 57.6825 43.5933 57.6825 42.0909C57.6825 40.584 57.9659 39.3021 58.5326 38.245C59.0994 37.188 59.8685 36.3828 60.8401 35.8295C61.8117 35.2718 62.9048 34.9929 64.1193 34.9929C64.9199 34.9929 65.6621 35.1053 66.3458 35.3303C67.034 35.5552 67.6435 35.8835 68.1743 36.3153C68.7051 36.7427 69.1369 37.2667 69.4698 37.8874C69.8071 38.5082 70.023 39.2189 70.1175 40.0195ZM75.4128 35.1818V49H72.5385V35.1818H75.4128ZM84.7412 44.5874V38.6364H87.6155V49H84.8559V47.1175H84.748C84.5141 47.7248 84.125 48.2128 83.5807 48.5817C83.0409 48.9505 82.382 49.1349 81.6038 49.1349C80.9111 49.1349 80.3016 48.9775 79.7753 48.6626C79.249 48.3478 78.8374 47.9002 78.5406 47.32C78.2482 46.7397 78.0998 46.0447 78.0953 45.2351V38.6364H80.9695V44.7223C80.974 45.334 81.1382 45.8176 81.4621 46.1729C81.786 46.5283 82.22 46.706 82.7643 46.706C83.1106 46.706 83.4345 46.6272 83.7359 46.4698C84.0373 46.3079 84.2802 46.0695 84.4646 45.7546C84.6535 45.4397 84.7457 45.0507 84.7412 44.5874ZM90.3486 49V35.1818H93.2229V40.3771H93.3106C93.4365 40.0982 93.6187 39.8149 93.8571 39.527C94.1 39.2346 94.4149 38.9917 94.8017 38.7983C95.193 38.6004 95.6788 38.5014 96.2591 38.5014C97.0148 38.5014 97.712 38.6993 98.3507 39.0952C98.9894 39.4865 99.5 40.078 99.8823 40.8697C100.265 41.6568 100.456 42.6442 100.456 43.8317C100.456 44.9877 100.269 45.9638 99.8958 46.7599C99.527 47.5516 99.0232 48.1521 98.3844 48.5614C97.7502 48.9663 97.0395 49.1687 96.2523 49.1687C95.6946 49.1687 95.22 49.0765 94.8287 48.892C94.4418 48.7076 94.1247 48.476 93.8773 48.1971C93.6299 47.9137 93.441 47.6281 93.3106 47.3402H93.1824V49H90.3486ZM93.1621 43.8182C93.1621 44.4344 93.2476 44.9719 93.4185 45.4308C93.5895 45.8896 93.8369 46.2472 94.1607 46.5036C94.4846 46.7554 94.8782 46.8814 95.3415 46.8814C95.8093 46.8814 96.2051 46.7532 96.529 46.4968C96.8528 46.2359 97.098 45.8761 97.2644 45.4173C97.4353 44.954 97.5208 44.4209 97.5208 43.8182C97.5208 43.2199 97.4376 42.6937 97.2712 42.2393C97.1047 41.785 96.8596 41.4297 96.5357 41.1733C96.2119 40.9169 95.8138 40.7887 95.3415 40.7887C94.8737 40.7887 94.4778 40.9124 94.154 41.1598C93.8346 41.4072 93.5895 41.758 93.4185 42.2124C93.2476 42.6667 93.1621 43.2019 93.1621 43.8182ZM111.377 41.5916L108.745 41.7536C108.7 41.5286 108.603 41.3262 108.455 41.1463C108.307 40.9619 108.111 40.8157 107.868 40.7077C107.63 40.5953 107.344 40.5391 107.011 40.5391C106.566 40.5391 106.19 40.6335 105.884 40.8224C105.579 41.0069 105.426 41.2543 105.426 41.5646C105.426 41.812 105.525 42.0212 105.722 42.1921C105.92 42.363 106.26 42.5002 106.741 42.6037L108.617 42.9815C109.625 43.1884 110.376 43.5213 110.871 43.9801C111.365 44.4389 111.613 45.0417 111.613 45.7884C111.613 46.4676 111.413 47.0636 111.012 47.5763C110.616 48.0891 110.072 48.4895 109.379 48.7773C108.691 49.0607 107.897 49.2024 106.998 49.2024C105.626 49.2024 104.533 48.9168 103.719 48.3455C102.909 47.7698 102.434 46.9871 102.295 45.9975L105.122 45.8491C105.207 46.2674 105.414 46.5868 105.743 46.8072C106.071 47.0231 106.492 47.131 107.004 47.131C107.508 47.131 107.913 47.0343 108.219 46.8409C108.529 46.643 108.687 46.3888 108.691 46.0785C108.687 45.8176 108.576 45.6039 108.361 45.4375C108.145 45.2666 107.812 45.1361 107.362 45.0462L105.567 44.6886C104.555 44.4862 103.802 44.1353 103.307 43.636C102.817 43.1367 102.572 42.5002 102.572 41.7266C102.572 41.0608 102.751 40.4873 103.111 40.006C103.476 39.5247 103.986 39.1536 104.643 38.8928C105.304 38.6319 106.078 38.5014 106.964 38.5014C108.273 38.5014 109.303 38.7781 110.054 39.3313C110.81 39.8846 111.251 40.638 111.377 41.5916Z" fill="white"/>
</svg>
