<svg width="170" height="197" viewBox="0 0 170 197" fill="none" xmlns="http://www.w3.org/2000/svg">
<path d="M167 1H3C1.89543 1 1 1.89543 1 3V194C1 195.105 1.89543 196 3 196H167C168.105 196 169 195.105 169 194V3C169 1.89543 168.105 1 167 1Z" fill="white" stroke="#666666" stroke-miterlimit="10"/>
<path d="M169 1H1V62H169V1Z" fill="#666666"/>
<path d="M32.0611 41.4223C31.3537 40.6392 31 39.5163 31 38.0522V28.547C31 27.0828 31.3537 25.9599 32.0611 25.1755C32.7684 24.3925 33.7962 24.001 35.1432 24.001C36.4901 24.001 37.5179 24.3925 38.2253 25.1755C38.9327 25.9599 39.2863 27.0828 39.2863 28.547V30.0967H36.659V28.3675C36.659 27.178 36.179 26.5839 35.219 26.5839C34.259 26.5839 33.779 27.178 33.779 28.3675V38.2588C33.779 39.4293 34.259 40.0152 35.219 40.0152C36.179 40.0152 36.659 39.4293 36.659 38.2588V34.7202H35.2695V32.1373H39.2863V38.0536C39.2863 39.5163 38.9327 40.6392 38.2253 41.4236C37.5179 42.2067 36.4901 42.5996 35.1432 42.5996C33.7962 42.5982 32.7684 42.2053 32.0611 41.4223Z" fill="white"/>
<path d="M41.9642 41.4091C41.2409 40.6179 40.8779 39.499 40.8779 38.0526V28.5473C40.8779 27.1009 41.2396 25.9807 41.9642 25.1882C42.6876 24.397 43.7327 24 45.0969 24C46.4611 24 47.5062 24.397 48.2295 25.1882C48.9542 25.9807 49.3159 27.0995 49.3159 28.5473V38.0526C49.3159 39.4977 48.9542 40.6179 48.2295 41.4091C47.5062 42.203 46.4611 42.5986 45.0969 42.5986C43.7327 42.5986 42.6876 42.203 41.9642 41.4091ZM46.5369 38.2334V28.3665C46.5369 27.177 46.0569 26.5829 45.0969 26.5829C44.1369 26.5829 43.6569 27.177 43.6569 28.3665V38.2334C43.6569 39.4202 44.1369 40.0156 45.0969 40.0156C46.0569 40.0156 46.5369 39.4202 46.5369 38.2334Z" fill="white"/>
<path d="M51.1853 24.2603H53.9643V39.7579H58.5369V42.3395H51.1853V24.2603Z" fill="white"/>
<path d="M59.8761 24.2603H67.2277V26.8432H62.6551V31.8799H66.2424V34.4615H62.6551V42.3395H59.8761V24.2603Z" fill="white"/>
<path d="M73.4794 41.4359C72.78 40.661 72.4303 39.568 72.4303 38.1555V28.4436C72.4303 27.0312 72.78 25.9368 73.4794 25.1633C74.1775 24.3884 75.1933 24.001 76.5243 24.001C77.8539 24.001 78.8698 24.3884 79.5692 25.1633C80.2672 25.9368 80.6169 27.0312 80.6169 28.4436V30.355H77.9895V28.2628C77.9895 27.1427 77.5255 26.5839 76.6001 26.5839C75.6746 26.5839 75.2106 27.1427 75.2106 28.2628V38.3622C75.2106 39.4647 75.6746 40.0152 76.6001 40.0152C77.5268 40.0152 77.9895 39.4647 77.9895 38.3622V35.5984H80.6169V38.1555C80.6169 39.568 80.2672 40.661 79.5692 41.4359C78.8698 42.2108 77.8553 42.5982 76.5243 42.5982C75.1933 42.5982 74.1788 42.2108 73.4794 41.4359Z" fill="white"/>
<path d="M83.2179 41.4091C82.4946 40.6179 82.1316 39.499 82.1316 38.0526V28.5473C82.1316 27.1009 82.4933 25.9807 83.2179 25.1882C83.9412 24.397 84.9863 24 86.3506 24C87.7148 24 88.7599 24.397 89.4832 25.1882C90.2079 25.9807 90.5695 27.0995 90.5695 28.5473V38.0526C90.5695 39.4977 90.2079 40.6179 89.4832 41.4091C88.7599 42.203 87.7148 42.5986 86.3506 42.5986C84.9877 42.5986 83.9426 42.203 83.2179 41.4091ZM87.7906 38.2334V28.3665C87.7906 27.177 87.3106 26.5829 86.3506 26.5829C85.3906 26.5829 84.9106 27.177 84.9106 28.3665V38.2334C84.9106 39.4202 85.3906 40.0156 86.3506 40.0156C87.3119 40.0156 87.7906 39.4202 87.7906 38.2334Z" fill="white"/>
<path d="M93.4003 41.4233C92.6929 40.6402 92.3392 39.5173 92.3392 38.0532V24.2603H95.1182V38.2598C95.1182 38.8797 95.2405 39.3284 95.4838 39.6016C95.7285 39.8776 96.0782 40.0162 96.5329 40.0162C96.9877 40.0162 97.3374 39.8776 97.582 39.6016C97.8267 39.3284 97.9477 38.8797 97.9477 38.2598V24.2603H100.626V38.0532C100.626 39.516 100.272 40.6389 99.5645 41.4233C98.8572 42.2063 97.8293 42.5992 96.4824 42.5992C95.1355 42.5992 94.1077 42.2063 93.4003 41.4233Z" fill="white"/>
<path d="M102.595 24.2603H106.713C108.145 24.2603 109.188 24.6001 109.845 25.2798C110.502 25.9609 110.831 27.0077 110.831 28.4188V29.5295C110.831 31.4055 110.224 32.595 109.012 33.0939V33.1442C109.684 33.3509 110.162 33.7737 110.44 34.4112C110.718 35.0488 110.856 35.9012 110.856 36.9684V40.1454C110.856 40.662 110.872 41.0807 110.906 41.3988C110.941 41.7169 111.025 42.0323 111.159 42.3409H108.329C108.228 42.0472 108.162 41.7726 108.127 41.5143C108.094 41.2574 108.077 40.7925 108.077 40.1209V36.8147C108.077 35.9882 107.947 35.4104 107.686 35.0842C107.425 34.7579 106.975 34.5934 106.334 34.5934H105.374V42.3422H102.595V24.2603ZM106.384 32.0077C106.94 32.0077 107.356 31.8623 107.634 31.57C107.912 31.2777 108.05 30.787 108.05 30.0977V28.7029C108.05 28.0504 107.937 27.5759 107.71 27.2823C107.483 26.99 107.125 26.8446 106.636 26.8446H105.372V32.0091H106.384V32.0077Z" fill="white"/>
<path d="M113.332 41.4227C112.64 40.6396 112.296 39.5167 112.296 38.0526V37.0181H114.923V38.2579C114.923 39.4283 115.403 40.0143 116.363 40.0143C116.834 40.0143 117.193 39.8729 117.438 39.5888C117.681 39.3046 117.803 38.8438 117.803 38.2062C117.803 37.449 117.634 36.7815 117.298 36.2037C116.96 35.6273 116.338 34.934 115.428 34.1252C114.284 33.092 113.483 32.158 113.028 31.322C112.574 30.4873 112.346 29.5438 112.346 28.493C112.346 27.0642 112.7 25.959 113.407 25.1746C114.115 24.3915 115.143 24 116.49 24C117.819 24 118.827 24.3915 119.509 25.1746C120.191 25.959 120.533 27.0819 120.533 28.546V29.295H117.906V28.3652C117.906 27.7439 117.787 27.2926 117.552 27.0085C117.315 26.7243 116.971 26.5829 116.516 26.5829C115.589 26.5829 115.127 27.1607 115.127 28.3122C115.127 28.9674 115.3 29.5792 115.645 30.1474C115.99 30.7157 116.617 31.4035 117.528 32.2138C118.69 33.247 119.491 34.1863 119.928 35.0292C120.367 35.872 120.585 36.8631 120.585 37.9996C120.585 39.4814 120.227 40.6179 119.51 41.4091C118.795 42.203 117.755 42.5986 116.391 42.5986C115.042 42.5986 114.023 42.2057 113.332 41.4227Z" fill="white"/>
<path d="M122.174 24.2603H129.753V26.8432H124.953V31.6217H128.768V34.2032H124.953V39.7579H129.753V42.3395H122.174V24.2603Z" fill="white"/>
<path d="M131.951 41.4227C131.259 40.6396 130.915 39.5167 130.915 38.0526V37.0181H133.542V38.2579C133.542 39.4283 134.022 40.0143 134.982 40.0143C135.453 40.0143 135.812 39.8729 136.057 39.5888C136.3 39.3046 136.422 38.8438 136.422 38.2062C136.422 37.449 136.253 36.7815 135.917 36.2037C135.579 35.6273 134.957 34.934 134.048 34.1252C132.903 33.092 132.102 32.158 131.648 31.322C131.193 30.4873 130.965 29.5438 130.965 28.493C130.965 27.0642 131.319 25.959 132.026 25.1746C132.734 24.3915 133.762 24 135.109 24C136.438 24 137.446 24.3915 138.128 25.1746C138.81 25.959 139.152 27.0819 139.152 28.546V29.295H136.525V28.3652C136.525 27.7439 136.406 27.2926 136.171 27.0085C135.934 26.7243 135.59 26.5829 135.135 26.5829C134.208 26.5829 133.746 27.1607 133.746 28.3122C133.746 28.9674 133.919 29.5792 134.264 30.1474C134.609 30.7157 135.236 31.4035 136.147 32.2138C137.309 33.247 138.11 34.1863 138.547 35.0292C138.986 35.872 139.204 36.8631 139.204 37.9996C139.204 39.4814 138.846 40.6179 138.13 41.4091C137.414 42.203 136.374 42.5986 135.01 42.5986C133.661 42.5986 132.642 42.2057 131.951 41.4227Z" fill="white"/>
</svg>
