<svg width="70" height="69" viewBox="0 0 70 69" fill="none" xmlns="http://www.w3.org/2000/svg">
<path d="M27.8947 25.1074C27.2941 25.9995 26.4853 26.8061 26.1176 27.7838C25.1556 30.3929 24.3773 33.0814 23.5317 35.7272C22.9005 37.7192 21.7976 39.3445 19.4629 38.7274C17.0547 38.0797 16.5706 36.2099 17.3488 33.943C17.6368 33.0937 17.9677 32.2443 18.0535 31.3644C18.9053 23.0971 24.1629 18.6977 31.4426 15.9847C33.8324 15.0864 36.5409 14.0416 38.2873 16.2046C39.568 17.7872 40.1501 20.4147 40.0276 22.5289C39.7886 27.1972 38.6978 31.8166 38.4098 36.4666C38.3118 38.0553 39.1207 40.4444 40.3278 41.2326C45.6773 44.7217 47.1051 49.7077 47.0499 55.5981C47.0193 58.1644 47.4237 60.7308 47.5708 63.2971C47.7669 66.114 46.2288 68.3626 43.9003 68.3565C41.2163 68.3443 39.8744 66.7434 39.6844 64.122C39.5741 62.3378 39.1084 60.5414 39.2922 58.7938C39.9295 52.6896 37.552 48.2657 32.4047 45.1066C27.7844 42.2592 26.5894 38.0675 27.7537 32.9348C28.2807 30.5762 28.4461 28.1137 28.777 25.694C28.4829 25.5107 28.1888 25.2907 27.8947 25.1074Z" fill="#5C5C5D" stroke="white" stroke-width="0.1" stroke-miterlimit="10"/>
<path d="M27.239 43.5186C29.2427 45.2233 31.0136 46.5737 32.5333 48.1502C33.0603 48.694 33.3177 49.9528 33.1032 50.7166C31.7796 55.3176 30.3028 59.8821 28.8322 64.4465C27.8456 67.5384 25.7438 68.9498 23.4765 68.1738C21.0316 67.3306 20.2105 65.247 21.2215 62.0635C23.1456 56.0265 25.1249 50.0139 27.239 43.5186Z" fill="#5C5C5D" stroke="white" stroke-width="0.1" stroke-miterlimit="10"/>
<path d="M38.0115 12.7097C34.4819 12.7769 31.6202 9.97835 31.6018 6.4649C31.5896 2.98811 34.4757 0.0368087 37.9073 0.000146532C41.2346 -0.0242949 44.3475 3.01255 44.4088 6.35491C44.4578 9.75838 41.5472 12.6547 38.0115 12.7097Z" fill="#5C5C5D"/>
<path d="M41.7434 26.6289C51.3394 27.9976 60.2307 29.6046 67.4798 35.715C70.9788 38.6419 70.8501 40.1267 66.9957 42.5097C61.8117 45.7054 55.6717 47.9846 50.1322 46.5975C46.3146 45.6504 42.6319 41.0188 40.6404 37.1387C39.3474 34.6274 41.2164 30.5029 41.7434 26.6289Z" fill="#5C5C5D"/>
<path d="M17.5511 25.4316C16.6564 28.4379 16.203 30.6316 15.3451 32.6663C14.1379 35.5321 14.5607 37.9823 16.9138 39.8765C19.2485 41.7585 21.6934 41.343 23.9852 39.5282C24.2242 39.351 24.5612 39.2716 24.8553 39.1433C26.4363 43.6405 24.8615 45.8463 20.5966 44.7892C14.8671 43.3533 9.21737 41.5813 3.53083 39.9376C-0.397042 38.8011 -0.096784 35.807 0.0993033 32.6541C0.283135 29.6539 1.45353 27.833 4.56642 27.4114C8.6291 26.837 12.6795 26.171 17.5511 25.4316Z" fill="#5C5C5D"/>
</svg>
