<svg width="78" height="77" viewBox="0 0 78 77" fill="none" xmlns="http://www.w3.org/2000/svg">
<path d="M0.0439453 6.9867C1.1306 3.53392 3.11821 1.03339 7.0453 0.834714C12.5749 0.560684 17.2585 5.2329 17.2791 10.8848C17.286 13.0291 17.396 15.1802 17.5542 17.3245C17.6092 18.0918 17.8775 18.8796 18.1801 19.6127C18.8266 21.2431 19.3699 22.5311 21.7083 22.949C25.3534 23.5929 28.8334 25.196 32.3754 26.4497C32.6505 26.5456 32.9049 26.9498 33.0081 27.265C33.3657 28.3885 33.6546 29.5326 34.0604 31.0397C33.0769 31.0397 32.2378 31.2041 31.5019 30.9986C29.9201 30.5739 28.3726 29.9847 26.8252 29.4161C25.7591 29.0188 24.6794 28.32 24.1498 29.512C22.7605 28.6694 21.4125 28.0048 20.2777 27.0868C19.6106 26.5525 18.8678 25.5728 18.9022 24.8398C18.9572 23.6752 18.4758 23.0312 17.7537 22.3804C15.6423 20.4416 13.1044 19.1194 10.3259 18.7769C4.87887 18.0986 1.54325 15.235 0.0439453 10.0627C0.0439453 9.03508 0.0439453 8.01431 0.0439453 6.9867ZM9.75506 17.208C12.7812 17.2217 15.1402 15.3652 15.8073 12.4605C16.9352 7.53476 12.8775 2.27337 7.80184 2.0884C4.76195 1.97879 2.25852 3.87645 1.53638 6.82913C0.346558 11.7206 4.66567 17.1806 9.75506 17.208ZM12.9325 18.0575C14.2186 18.6467 15.4084 19.1879 16.722 19.7908C16.4332 18.3521 16.1787 17.119 15.9105 15.7899C14.927 16.5435 14.0123 17.2491 12.9325 18.0575Z" fill="#5C5C5D"/>
<path d="M77.0998 34.6294C76.2126 36.1091 75.0021 36.4791 73.3377 35.931C69.7889 34.7732 66.2057 33.7045 62.5125 32.5604C62.8907 31.0053 63.214 29.5941 63.5235 28.0938C67.5468 29.3269 71.4808 30.4778 75.3666 31.7589C76.0681 31.9781 76.5358 32.7523 77.0998 33.2592C77.0998 33.7182 77.0998 34.1704 77.0998 34.6294Z" fill="#5C5C5D"/>
<path d="M37.9462 28.8411C37.1347 29.2385 36.1787 29.6975 35.0783 30.2181C34.7069 28.9302 34.3011 27.7107 34.0604 26.4502C33.9847 26.1214 34.3699 25.5253 34.7069 25.3404C36.5019 24.3676 38.3245 23.4359 40.2089 22.6275C40.8898 22.3397 41.7977 22.2438 42.5129 22.4288C48.9022 24.073 55.2639 25.8062 61.6325 27.5052C61.8251 27.5669 62.0452 27.697 62.3547 27.8683C62.0314 29.2659 61.6944 30.6771 61.3506 32.2185C59.1704 31.5677 57.0796 30.9443 54.9407 30.3209C51.7357 34.8424 51.7082 39.6242 53.5996 44.4677C54.0328 45.6049 55.2639 46.4544 56.2062 47.3587C57.3891 48.5028 58.6408 49.5578 59.9132 50.695C57.8843 52.6064 56.1786 54.2369 54.6587 55.655C51.9902 53.2161 49.1429 50.6128 46.1993 47.9136C45.6216 50.9965 45.0301 54.1341 44.4111 57.4156C42.0452 56.9429 39.7757 56.4908 37.3616 56.0249C38.0631 52.1885 38.7853 48.4274 39.4043 44.6527C39.5693 43.6251 39.4937 42.5289 39.3836 41.4808C38.9435 37.3224 38.4414 33.1708 37.9462 28.8411Z" fill="#5C5C5D"/>
<path d="M55.938 56.6545C57.2447 55.2843 58.8609 53.6607 60.4359 52.0508C63.9159 54.3869 64.4524 55.7844 63.4208 59.6003C62.1828 64.1355 60.9448 68.657 59.6725 73.1922C59.0122 75.5695 57.2241 76.7341 55.1333 76.186C53.0769 75.638 52.1141 73.6718 52.7399 71.3151C53.7647 67.3828 54.8926 63.4642 55.8967 59.5044C56.1099 58.6892 55.938 57.7849 55.938 56.6545Z" fill="#5C5C5D"/>
<path d="M37.3476 57.2646C39.0945 57.6072 40.8277 57.9292 42.5539 58.2649C43.0423 58.3676 43.5443 58.4978 44.3902 58.7033C43.8676 59.9638 43.5581 61.2244 42.8772 62.2589C40.2843 66.2528 37.5815 70.192 34.913 74.1175C33.3999 76.3646 31.2816 76.9126 29.3972 75.5973C27.719 74.4327 27.4921 72.2267 28.8745 70.1509C31.2747 66.5817 33.7025 63.0124 36.1028 59.4295C36.543 58.7855 36.88 58.0799 37.3476 57.2646Z" fill="#5C5C5D"/>
<path d="M52.513 23.106C48.8954 23.0786 46.0206 20.1602 46.0893 16.5704C46.1512 12.9943 49.1361 10.0758 52.6712 10.1306C56.2406 10.1854 59.1223 13.1518 59.0879 16.7279C59.0467 20.3588 56.1856 23.1334 52.513 23.106Z" fill="#5C5C5D"/>
<path d="M12.9324 18.0576C14.0122 17.2493 14.9269 16.5436 15.9104 15.79C16.1786 17.1191 16.4331 18.3522 16.7219 19.7909C15.4083 19.188 14.2116 18.6468 12.9324 18.0576Z" fill="#5C5C5D"/>
</svg>
